<svg width="584" height="344" viewBox="0 0 584 344" fill="none" xmlns="http://www.w3.org/2000/svg">
<path d="M168.788 296.522C168.853 296.522 169.131 297.65 169.728 299.44C171.265 304.12 173.606 308.497 176.647 312.373C177.816 313.861 178.61 314.727 178.561 314.776C178.512 314.825 178.315 314.596 177.939 314.228C177.563 313.861 177.031 313.288 176.418 312.593C174.818 310.69 173.418 308.627 172.239 306.438C171.066 304.247 170.123 301.94 169.426 299.555C169.164 298.639 168.976 297.92 168.886 297.372C168.808 297.096 168.775 296.809 168.788 296.522Z" fill="#E0E0E0"/>
<path d="M35.779 252.844C35.8444 252.844 35.5091 253.989 35.1084 255.836C34.5836 258.238 34.2662 260.68 34.1597 263.136C34.0627 265.594 34.1749 268.055 34.495 270.493C34.7404 272.374 34.9857 273.518 34.9121 273.534C34.7949 273.273 34.7098 272.999 34.6586 272.717C34.5196 272.21 34.356 271.458 34.1925 270.518C33.3729 265.602 33.5846 260.568 34.814 255.738C35.0511 254.814 35.2801 254.103 35.4601 253.58C35.5362 253.323 35.6433 253.076 35.779 252.844Z" fill="#E0E0E0"/>
<path d="M345.882 236.396L345.539 236.274L344.557 235.898C344.124 235.734 343.559 235.62 342.922 235.432C342.158 235.282 341.384 235.189 340.607 235.154C337.115 234.925 331.881 236.2 326.819 239.985C324.078 242.06 321.623 244.487 319.516 247.203C317.169 250.073 314.871 253.318 312.262 256.596C309.605 260.102 306.428 263.181 302.841 265.727C298.908 268.37 294.469 270.168 289.805 271.008C285.138 271.842 280.347 271.68 275.747 270.534C271.499 269.425 267.373 267.894 263.431 265.964C259.628 264.207 256.07 262.417 252.685 260.937C249.526 259.539 246.247 258.431 242.887 257.626C240.127 256.972 237.3 256.645 234.464 256.653C232.338 256.675 230.222 256.96 228.167 257.504C226.866 257.885 225.602 258.38 224.388 258.983L223.456 259.482L223.129 259.637C223.224 259.563 223.325 259.498 223.431 259.441L224.347 258.91C225.55 258.268 226.813 257.745 228.118 257.348C230.195 256.763 232.339 256.447 234.496 256.408C237.355 256.374 240.208 256.682 242.993 257.324C246.359 258.108 249.644 259.202 252.807 260.594C256.226 262.057 259.783 263.863 263.578 265.588C267.509 267.494 271.617 269.008 275.845 270.109C280.395 271.242 285.134 271.395 289.748 270.559C294.34 269.737 298.712 267.972 302.587 265.376C306.145 262.871 309.3 259.839 311.943 256.384C314.552 253.114 316.85 249.885 319.23 247.015C321.353 244.288 323.828 241.852 326.59 239.773C331.726 235.98 337.033 234.737 340.566 235.015C341.353 235.065 342.135 235.174 342.905 235.342C343.559 235.538 344.124 235.669 344.541 235.849L345.514 236.266C345.642 236.294 345.765 236.338 345.882 236.396Z" fill="white"/>
<path d="M351.043 181.83C351.043 181.83 350.462 181.953 349.448 182.288C348.042 182.802 346.715 183.512 345.506 184.397C343.944 185.484 342.235 187.005 340.256 188.582C338.079 190.273 335.723 191.72 333.231 192.899C328.705 195.069 323.8 196.338 318.788 196.634C317.832 196.708 316.957 196.684 316.196 196.7C315.435 196.716 314.781 196.659 314.25 196.618L313.023 196.487C312.878 196.486 312.735 196.461 312.598 196.414C312.739 196.4 312.882 196.4 313.023 196.414L314.258 196.455H316.196C316.957 196.414 317.832 196.455 318.764 196.324C323.722 195.945 328.566 194.651 333.051 192.506C335.515 191.339 337.85 189.917 340.019 188.264C342.006 186.719 343.732 185.214 345.335 184.176C346.584 183.292 347.963 182.608 349.424 182.149C349.821 182.036 350.225 181.948 350.634 181.887C350.767 181.852 350.905 181.833 351.043 181.83Z" fill="white"/>
<path d="M244.211 200.771C244.061 200.77 243.913 200.748 243.769 200.706C243.475 200.64 243.041 200.575 242.494 200.428C240.96 199.966 239.489 199.321 238.11 198.507C236.095 197.263 234.181 195.864 232.385 194.321C230.333 192.629 228.141 190.683 225.63 188.95C222.838 187.005 219.659 185.685 216.31 185.079C212.961 184.474 209.521 184.598 206.224 185.443C205.136 185.721 204.588 185.934 204.539 185.893C204.668 185.81 204.808 185.746 204.956 185.705C205.356 185.542 205.766 185.402 206.183 185.288C207.714 184.835 209.291 184.561 210.885 184.471C216.212 184.082 221.508 185.556 225.868 188.64C228.411 190.397 230.603 192.351 232.639 194.06C234.406 195.607 236.287 197.02 238.265 198.286C239.612 199.116 241.046 199.793 242.543 200.305C243.107 200.431 243.663 200.586 244.211 200.771Z" fill="white"/>
<path d="M244.361 123.496C243.921 123.7 243.464 123.867 242.996 123.994C242.554 124.15 242.014 124.321 241.36 124.485C240.706 124.648 239.986 124.861 239.16 125.008C238.334 125.155 237.443 125.359 236.461 125.482C235.48 125.605 234.441 125.719 233.337 125.817C230.94 125.968 228.534 125.941 226.141 125.735C223.749 125.494 221.379 125.073 219.05 124.477C217.987 124.174 216.965 123.904 216.041 123.561C215.117 123.218 214.25 122.915 213.481 122.596C212.712 122.278 212.025 121.951 211.42 121.664C210.815 121.378 210.316 121.117 209.907 120.847C209.474 120.631 209.059 120.382 208.664 120.103C209.118 120.268 209.558 120.467 209.981 120.7C210.398 120.912 210.913 121.158 211.526 121.411C212.14 121.664 212.81 122 213.595 122.278C214.381 122.555 215.231 122.899 216.155 123.185C217.079 123.471 218.085 123.765 219.148 124.051C223.772 125.228 228.551 125.678 233.313 125.384C234.409 125.302 235.455 125.237 236.42 125.09C237.386 124.942 238.285 124.82 239.103 124.673C239.921 124.526 240.649 124.354 241.295 124.207C241.941 124.06 242.497 123.929 242.93 123.798C243.399 123.663 243.878 123.562 244.361 123.496Z" fill="white"/>
<path d="M346.396 123.291C346.396 123.291 346.273 123.242 346.052 123.128L345.112 122.621C344.622 122.318 344.114 122.045 343.591 121.804C342.985 121.509 342.315 121.133 341.522 120.831L340.295 120.324C339.861 120.144 339.403 120.013 338.929 119.85C337.997 119.507 336.958 119.269 335.871 119.032C331.117 117.943 326.184 117.898 321.412 118.902C320.324 119.163 319.277 119.384 318.337 119.719C317.862 119.874 317.396 119.997 316.963 120.161L315.728 120.651C315.017 120.929 314.321 121.243 313.642 121.591C313.117 121.834 312.607 122.107 312.113 122.409L311.148 122.94C311.038 123.004 310.924 123.058 310.805 123.103C310.805 123.103 310.895 123.005 311.107 122.866L312.023 122.261C312.508 121.939 313.013 121.65 313.536 121.395C314.211 121.025 314.904 120.689 315.613 120.389L316.856 119.874C317.282 119.695 317.756 119.564 318.23 119.4C319.249 119.075 320.283 118.802 321.33 118.583C326.154 117.525 331.156 117.57 335.96 118.714C337.056 119.008 338.103 119.261 339.044 119.621C339.518 119.793 339.984 119.94 340.409 120.12L341.644 120.659C342.348 120.97 343.036 121.317 343.705 121.697C344.22 121.964 344.717 122.265 345.194 122.597L346.11 123.218C346.207 123.232 346.303 123.257 346.396 123.291Z" fill="white"/>
<path d="M296.403 67.7686C296.403 67.7686 296.199 67.8994 295.806 68.1201L294.073 69.0602C292.56 69.8776 290.368 71.0221 287.62 72.3873C282.141 75.1013 274.445 78.7962 265.335 81.1015C261.052 82.1819 256.665 82.7905 252.25 82.9163C248.647 83.0239 245.044 82.7167 241.512 82.0007C239.132 81.517 236.804 80.8053 234.561 79.8753C233.743 79.5647 233.179 79.2377 232.77 79.0578C232.556 78.9709 232.35 78.8642 232.156 78.739C232.378 78.8018 232.595 78.8839 232.802 78.9843C233.228 79.1396 233.816 79.442 234.626 79.7282C236.876 80.5945 239.2 81.2566 241.569 81.7064C245.085 82.3777 248.665 82.6519 252.242 82.5239C256.62 82.3708 260.97 81.757 265.22 80.6928C274.273 78.3957 281.977 74.7579 287.481 72.1175L294.023 68.913L295.79 68.0383C295.986 67.9306 296.191 67.8403 296.403 67.7686Z" fill="white"/>
<path d="M132.231 210.196L159.57 211.39L158.303 240.336L130.963 239.143L128.862 287.268L92.878 285.698L94.9797 237.573L2.10938 233.486L2.18298 211.414L101.138 69.3379L138.283 70.9728L132.231 210.196ZM38.1829 206.109L96.2473 208.643L100.083 120.863L99.1996 120.528L95.9284 126.782L38.1829 206.109Z" fill="#2E90FA"/>
<g opacity="0.4">
<path d="M132.231 210.196L159.57 211.39L158.303 240.336L130.963 239.143L128.862 287.268L92.878 285.698L94.9797 237.573L2.10938 233.486L2.18298 211.414L101.138 69.3379L138.283 70.9728L132.231 210.196ZM38.1829 206.109L96.2473 208.643L100.083 120.863L99.1996 120.528L95.9284 126.782L38.1829 206.109Z" fill="black"/>
</g>
<path d="M155.094 211.194L182.434 212.387L181.166 241.35L153.827 240.157L151.725 288.281L115.741 286.712L117.843 238.587L24.9727 234.5L25.0463 212.428L124.001 70.3516L161.146 71.9865L155.094 211.194ZM61.0462 207.106L119.152 209.64L122.979 121.86L122.104 121.525L118.833 127.779L61.0462 207.106Z" fill="#2E90FA"/>
<path d="M25.5303 216.671C25.258 216.874 24.9613 217.041 24.6471 217.17C24.0664 217.464 23.2159 217.873 22.1936 218.371C20.0919 219.352 17.1559 220.677 13.8847 222.058C10.6135 223.44 7.61211 224.625 5.43674 225.451C4.34905 225.859 3.45764 226.186 2.84429 226.399C2.52994 226.526 2.20401 226.621 1.87109 226.685C2.15967 226.505 2.46676 226.357 2.78704 226.244L5.32225 225.173L13.713 221.666L22.0791 218.093L24.6225 217.014C24.9136 216.872 25.2176 216.757 25.5303 216.671Z" fill="#2E90FA"/>
<path d="M38.8432 192.196C38.4482 192.441 38.0354 192.657 37.6083 192.842C36.7905 193.234 35.6292 193.79 34.1735 194.477C31.254 195.809 27.2058 197.583 22.7242 199.488C18.2426 201.392 14.1209 203.052 11.1359 204.221C9.64745 204.801 8.43709 205.259 7.58657 205.561C7.15646 205.739 6.71359 205.884 6.26172 205.995C6.66651 205.762 7.09062 205.565 7.52932 205.406L11.0295 203.943L22.5606 199.095L34.0754 194.19L37.5674 192.711C37.9754 192.499 38.4026 192.327 38.8432 192.196Z" fill="#2E90FA"/>
<path d="M55.0954 170.369C54.6801 170.614 54.2484 170.83 53.8033 171.015C52.9855 171.407 51.7342 171.963 50.2131 172.65C47.1627 173.982 42.9346 175.756 38.2404 177.661C33.5462 179.566 29.2445 181.225 26.145 182.394C24.5912 182.975 23.3317 183.432 22.4485 183.735C22.0017 183.918 21.5391 184.06 21.0664 184.16C21.4949 183.938 21.9375 183.744 22.3913 183.579L26.0387 182.108L38.0768 177.26L50.0904 172.356L53.7379 170.851C54.1742 170.648 54.6288 170.487 55.0954 170.369Z" fill="#2E90FA"/>
<path d="M120.218 195.58C119.937 195.768 119.639 195.927 119.326 196.054C118.745 196.34 117.895 196.733 116.832 197.215C114.722 198.163 111.778 199.439 108.498 200.763C105.219 202.087 102.218 203.215 100.042 204.033C98.9463 204.425 98.0631 204.736 97.4498 204.94C97.1379 205.07 96.811 205.161 96.4766 205.21C96.7614 205.033 97.0661 204.89 97.3843 204.785L99.9359 203.755L108.343 200.395L116.717 196.962C117.723 196.553 118.574 196.201 119.261 195.932C119.564 195.775 119.885 195.657 120.218 195.58Z" fill="#2E90FA"/>
<path d="M117.535 240.484C117.271 240.68 116.982 240.842 116.677 240.966C116.112 241.252 115.295 241.645 114.264 242.119C112.22 243.075 109.357 244.342 106.192 245.675C103.028 247.007 100.1 248.127 98.0144 248.945C96.9512 249.337 96.0925 249.648 95.4955 249.852C95.1896 249.975 94.8716 250.065 94.5469 250.122C94.8257 249.95 95.1217 249.807 95.4301 249.697L97.8835 248.667L106.062 245.307L114.174 241.874L116.628 240.835C116.919 240.691 117.223 240.574 117.535 240.484Z" fill="#2E90FA"/>
<path d="M117.156 256.229C116.902 256.417 116.628 256.576 116.338 256.703C115.774 256.989 114.948 257.381 113.885 257.863C111.84 258.812 108.978 260.087 105.813 261.411C102.648 262.736 99.7205 263.864 97.6351 264.681C96.5801 265.074 95.7214 265.376 95.1163 265.58C94.8133 265.706 94.4981 265.799 94.1758 265.858C94.4517 265.679 94.7482 265.533 95.059 265.425L97.5124 264.395L105.691 261.035L113.811 257.602L116.265 256.572C116.549 256.426 116.848 256.311 117.156 256.229Z" fill="#2E90FA"/>
<path d="M116.782 271.965C116.515 272.158 116.227 272.32 115.923 272.447C115.359 272.733 114.533 273.126 113.51 273.6C111.458 274.556 108.603 275.823 105.43 277.156C102.257 278.488 99.3459 279.608 97.2523 280.426C96.1973 280.818 95.3304 281.129 94.7334 281.333C94.4297 281.454 94.1147 281.544 93.793 281.603C94.0693 281.426 94.3658 281.284 94.6762 281.178L97.1296 280.148L105.308 276.788L113.429 273.355L115.882 272.325C116.169 272.175 116.47 272.054 116.782 271.965Z" fill="#2E90FA"/>
<path d="M120.61 178.945C120.332 179.138 120.033 179.299 119.719 179.427C119.138 179.713 118.288 180.106 117.265 180.58C115.155 181.536 112.211 182.803 108.932 184.136C105.653 185.468 102.659 186.588 100.476 187.406C99.3799 187.798 98.4967 188.109 97.8834 188.313C97.5682 188.433 97.2423 188.524 96.9102 188.583C97.1974 188.405 97.5049 188.262 97.8261 188.158L100.369 187.128L108.768 183.743L117.143 180.31L119.686 179.272C119.982 179.13 120.291 179.021 120.61 178.945Z" fill="#2E90FA"/>
<path d="M121.032 162.317C120.751 162.506 120.453 162.668 120.141 162.8C119.56 163.086 118.71 163.478 117.687 163.952C115.577 164.909 112.633 166.176 109.354 167.508C106.074 168.841 103.081 169.961 100.898 170.778C99.8018 171.171 98.9186 171.481 98.3052 171.677C97.9909 171.802 97.6649 171.895 97.332 171.955C97.6188 171.775 97.9263 171.629 98.248 171.522L100.791 170.492L109.198 167.132L117.573 163.699L120.116 162.669C120.408 162.52 120.715 162.402 121.032 162.317Z" fill="#2E90FA"/>
<path d="M121.458 145.69C121.202 145.869 120.928 146.023 120.64 146.148C120.093 146.417 119.283 146.802 118.277 147.259C116.257 148.167 113.46 149.385 110.336 150.652C107.212 151.919 104.35 152.99 102.272 153.734C101.234 154.102 100.391 154.396 99.819 154.592C99.5185 154.711 99.2058 154.795 98.8867 154.846C99.163 154.679 99.4563 154.542 99.7618 154.437L102.215 153.448L110.23 150.251L118.203 146.982L120.657 146.001C120.912 145.869 121.181 145.765 121.458 145.69Z" fill="#2E90FA"/>
<path d="M123.341 130.15C122.036 130.856 120.667 131.439 119.252 131.891C117.885 132.478 116.463 132.93 115.008 133.24C116.313 132.532 117.682 131.949 119.097 131.499C120.464 130.912 121.886 130.46 123.341 130.15Z" fill="#2E90FA"/>
<path d="M71.3099 147.733C70.8998 147.985 70.4705 148.203 70.0259 148.387C69.2081 148.78 67.9569 149.327 66.4276 150.022C63.3853 151.347 59.1573 153.121 54.4549 155.025C49.7525 156.93 45.459 158.598 42.3677 159.758C40.8138 160.339 39.5462 160.797 38.6712 161.107C38.22 161.278 37.7584 161.42 37.2891 161.532C37.7145 161.304 38.1575 161.11 38.6139 160.952L42.2613 159.48L54.2995 154.633L66.3131 149.728L69.9523 148.24C70.3931 148.041 70.8466 147.872 71.3099 147.733Z" fill="#2E90FA"/>
<path d="M87.5052 125.073C87.0899 125.318 86.6582 125.534 86.2131 125.719C85.3953 126.111 84.144 126.667 82.6229 127.354C79.5807 128.686 75.3444 130.46 70.6502 132.365C65.956 134.27 61.6543 135.929 58.563 137.098C57.001 137.679 55.7415 138.136 54.8583 138.439C54.4135 138.62 53.9538 138.762 53.4844 138.864C53.9085 138.639 54.3485 138.445 54.801 138.284L58.4485 136.812C61.597 135.553 65.8088 133.845 70.4866 131.965L82.5084 127.06L86.1477 125.58C86.5832 125.369 87.0377 125.199 87.5052 125.073Z" fill="#2E90FA"/>
<path d="M102.528 102.47C102.115 102.723 101.683 102.941 101.236 103.124C100.418 103.517 99.1749 104.064 97.6456 104.759C94.6034 106.092 90.3671 107.866 85.6729 109.77C80.9787 111.675 76.7015 113.31 73.602 114.446C72.0482 115.027 70.7806 115.484 69.9055 115.787C69.4552 115.962 68.9934 116.107 68.5234 116.22C68.9489 115.992 69.3919 115.798 69.8483 115.64L73.4957 114.168L85.5339 109.321L97.5475 104.416L101.187 102.928C101.623 102.746 102.071 102.593 102.528 102.47Z" fill="#2E90FA"/>
<path d="M118.131 80.709C117.717 80.959 117.285 81.1776 116.838 81.363C116.021 81.7553 114.769 82.303 113.248 82.9979C110.206 84.3222 105.97 86.0961 101.276 88.0008C96.5813 89.9055 92.2797 91.5732 89.1802 92.734C87.6263 93.3226 86.3669 93.7722 85.4837 94.0828C85.0351 94.2613 84.5729 94.4035 84.1016 94.5079C84.528 94.2816 84.9709 94.0876 85.4264 93.9275L89.0738 92.456L101.112 87.6084L113.126 82.7036L116.773 81.2158C117.212 81.0137 117.666 80.8443 118.131 80.709Z" fill="#2E90FA"/>
<path d="M159.529 113.964C159.388 114.155 159.229 114.333 159.055 114.495C158.592 115.003 158.098 115.481 157.575 115.926C155.667 117.59 153.526 118.967 151.22 120.013C147.783 121.566 144.066 122.4 140.294 122.465C138.066 122.509 135.842 122.262 133.678 121.73C131.37 121.132 129.13 120.294 126.997 119.228C122.597 117.087 118.688 114.561 114.869 112.803C111.521 111.163 107.878 110.212 104.156 110.007C101.647 109.879 99.1446 110.347 96.8525 111.372C96.2362 111.665 95.643 112.004 95.0778 112.386C94.8882 112.532 94.6856 112.661 94.4727 112.77C94.6471 112.607 94.833 112.457 95.0288 112.321C95.5779 111.904 96.1637 111.537 96.7789 111.225C99.0724 110.129 101.599 109.61 104.139 109.713C107.911 109.872 111.611 110.805 115.008 112.451C118.868 114.201 122.793 116.727 127.152 118.852C129.265 119.894 131.479 120.716 133.76 121.305C135.886 121.834 138.071 122.087 140.262 122.057C143.988 121.995 147.663 121.189 151.073 119.686C153.369 118.67 155.513 117.341 157.444 115.738C158.139 115.182 158.63 114.691 158.973 114.373C159.144 114.217 159.33 114.08 159.529 113.964Z" fill="white"/>
<path d="M148.145 73.5728C147.818 73.8053 147.47 74.0078 147.106 74.1777C146.427 74.5537 145.413 74.9952 144.138 75.5674C142.642 76.196 141.113 76.7418 139.558 77.2023C137.653 77.7441 135.716 78.17 133.76 78.4776C131.796 78.7875 129.817 78.9813 127.83 79.058C126.208 79.1161 124.583 79.0833 122.965 78.9599C121.868 78.8919 120.776 78.7664 119.693 78.5838C119.295 78.5392 118.901 78.4599 118.516 78.3468C118.918 78.3328 119.32 78.3574 119.718 78.4204C120.487 78.5103 121.591 78.6002 122.989 78.6656C124.387 78.731 126.007 78.7392 127.822 78.6656C129.789 78.5686 131.749 78.3667 133.694 78.0607C135.638 77.7346 137.563 77.3035 139.46 76.7691C141.202 76.2622 142.731 75.7391 144.031 75.2322C145.332 74.7254 146.337 74.3003 147.041 73.9733C147.396 73.8075 147.766 73.6735 148.145 73.5728Z" fill="white"/>
<path d="M90.0807 164.312C89.8111 164.062 89.5648 163.789 89.3447 163.494L87.4147 161.189C85.2584 158.685 82.9707 156.298 80.5614 154.036C79.2546 152.792 77.8148 151.695 76.2679 150.766C75.0063 150.005 73.6231 149.466 72.1789 149.172C70.8263 148.933 69.4424 148.933 68.0898 149.172C68.0898 149.172 68.1798 149.123 68.3597 149.066C68.6259 148.978 68.8997 148.915 69.1775 148.878C70.1818 148.709 71.2073 148.709 72.2116 148.878C73.7087 149.136 75.1484 149.656 76.4642 150.415C78.0519 151.35 79.5256 152.467 80.8558 153.742C83.2807 156.011 85.5485 158.441 87.6436 161.017C88.4615 162.007 89.0666 162.832 89.4755 163.413C89.7103 163.689 89.9133 163.99 90.0807 164.312Z" fill="white"/>
<path d="M155.315 189.032C155.216 189.123 155.109 189.205 154.996 189.278C154.775 189.417 154.464 189.654 154.023 189.899C152.804 190.624 151.52 191.235 150.187 191.722C145.765 193.391 140.959 193.775 136.328 192.827C131.696 191.879 127.428 189.64 124.017 186.367C122.983 185.397 122.042 184.332 121.204 183.187C120.902 182.787 120.705 182.452 120.558 182.231C120.411 182.01 120.345 181.888 120.362 181.88C120.378 181.871 120.713 182.313 121.335 183.089C122.217 184.182 123.182 185.204 124.222 186.147C127.633 189.305 131.845 191.468 136.4 192.401C140.955 193.333 145.678 193 150.056 191.436C151.383 190.976 152.671 190.413 153.908 189.752C154.362 189.484 154.832 189.244 155.315 189.032Z" fill="white"/>
<path d="M179.138 240.786C179.138 240.786 179.056 240.664 178.909 240.41L178.255 239.274C177.433 237.821 176.497 236.436 175.458 235.129L174.346 233.821L173.749 233.11L173.054 232.432L171.582 230.985L169.864 229.554C167.121 227.376 164.095 225.58 160.868 224.216C156.973 222.569 152.824 221.604 148.601 221.363C143.741 221.107 138.882 221.887 134.347 223.652C129.563 225.532 124.942 228.377 120.052 231.124C117.573 232.548 115.008 233.818 112.372 234.925C109.645 236.075 106.767 236.829 103.826 237.165C100.878 237.461 97.9014 237.282 95.0102 236.633C92.2095 236.011 89.486 235.082 86.8894 233.862C82.016 231.51 77.3796 228.696 73.0439 225.459C68.8404 222.475 64.8658 219.597 60.924 217.284C57.3037 215.077 53.3843 213.403 49.2866 212.314C45.8883 211.481 42.3706 211.249 38.8922 211.627C36.2648 211.898 33.7079 212.64 31.3438 213.818C29.8642 214.573 28.4896 215.519 27.2548 216.63L26.3307 217.554C26.1262 217.758 26.0117 217.856 26.0117 217.856C26.0117 217.856 26.1017 217.742 26.3061 217.529L27.1975 216.573C28.419 215.42 29.7953 214.443 31.2866 213.671C33.6586 212.453 36.2336 211.68 38.884 211.39C42.3915 210.986 45.9425 211.199 49.3765 212.019C53.5112 213.095 57.4672 214.767 61.1202 216.981C65.103 219.279 69.0775 222.156 73.2811 225.156C77.5974 228.369 82.2119 231.161 87.0611 233.494C89.6332 234.699 92.3288 235.62 95.1002 236.241C97.9486 236.878 100.881 237.055 103.785 236.764C106.685 236.422 109.523 235.676 112.217 234.549C114.839 233.45 117.39 232.189 119.855 230.772C124.762 228.042 129.375 225.197 134.2 223.3C135.394 222.836 136.614 222.443 137.855 222.123C138.46 221.968 139.066 221.788 139.671 221.657L141.503 221.355C143.857 221.004 146.241 220.895 148.618 221.028C152.89 221.286 157.086 222.276 161.024 223.954C164.253 225.351 167.279 227.177 170.02 229.382L171.737 230.838L173.201 232.309L173.888 232.996C174.092 233.241 174.297 233.478 174.485 233.715C174.877 234.181 175.245 234.622 175.589 235.048C176.62 236.368 177.537 237.773 178.329 239.249C178.596 239.751 178.8 240.135 178.942 240.402C179.097 240.647 179.138 240.786 179.138 240.786Z" fill="white"/>
<path d="M154.425 274.932C154.291 274.985 154.151 275.021 154.008 275.038L152.798 275.275C152.162 275.4 151.521 275.493 150.876 275.553C150.124 275.627 149.24 275.757 148.308 275.774L146.803 275.839C146.288 275.839 145.74 275.839 145.168 275.839C144.047 275.839 142.845 275.733 141.586 275.635C138.856 275.337 136.156 274.812 133.514 274.065C130.882 273.281 128.321 272.275 125.859 271.057C124.747 270.46 123.676 269.921 122.727 269.308C122.253 269.005 121.778 268.744 121.345 268.441L120.118 267.583C119.3 267.051 118.671 266.487 118.074 266.013C117.558 265.618 117.064 265.195 116.593 264.746L115.702 263.929C115.506 263.732 115.399 263.626 115.416 263.61C115.537 263.684 115.652 263.769 115.759 263.863L116.708 264.681C117.109 265.024 117.607 265.441 118.221 265.891C118.834 266.34 119.488 266.888 120.29 267.395C120.691 267.656 121.108 267.934 121.525 268.212C121.942 268.49 122.432 268.752 122.907 269.03C123.855 269.618 124.927 270.15 126.039 270.73C128.489 271.914 131.029 272.901 133.636 273.681C136.253 274.425 138.925 274.955 141.626 275.267C142.878 275.373 144.08 275.504 145.184 275.512C145.74 275.512 146.28 275.561 146.82 275.512H148.308C149.257 275.512 150.115 275.406 150.868 275.357C151.62 275.308 152.266 275.226 152.79 275.153L154.008 274.997C154.143 274.955 154.284 274.933 154.425 274.932Z" fill="white"/>
<path d="M520.592 210.532L547.825 207.875L550.647 236.723L523.414 239.388L528.1 287.325L492.28 290.832L487.594 242.887L395.034 251.936L392 230.085L469.978 75.5099L506.984 71.9375L520.592 210.532ZM426.847 219.695L484.723 214.038L476.169 126.569L475.253 126.357L472.914 133.011L426.847 219.695Z" fill="#2E90FA"/>
<g opacity="0.4">
<path d="M520.592 210.532L547.825 207.875L550.647 236.723L523.414 239.388L528.1 287.325L492.28 290.832L487.594 242.887L395.034 251.936L392 230.085L469.978 75.5099L506.984 71.9375L520.592 210.532ZM426.847 219.695L484.723 214.038L476.169 126.569L475.253 126.357L472.914 133.011L426.847 219.695Z" fill="black"/>
</g>
<path d="M543.329 208.308L570.562 205.643L573.391 234.5L546.15 237.165L550.853 285.101L515.016 288.567L510.33 240.631L417.811 249.705L414.777 227.862L492.788 73.2864L529.794 69.665L543.329 208.308ZM449.632 217.447L507.509 211.807L498.954 124.338L498.03 124.133L495.7 130.796L449.632 217.447Z" fill="#2E90FA"/>
<path d="M415.823 231.949C415.573 232.181 415.299 232.387 415.006 232.562C414.474 232.938 413.689 233.462 412.716 234.099C410.761 235.374 408.046 237.091 404.996 238.922C401.945 240.753 399.156 242.347 397.112 243.467C396.098 244.023 395.264 244.473 394.659 244.767C394.366 244.94 394.056 245.083 393.734 245.192C393.985 244.972 394.26 244.781 394.552 244.62L396.916 243.206L404.734 238.554L412.503 233.846L414.867 232.423C415.169 232.233 415.489 232.075 415.823 231.949Z" fill="#2E90FA"/>
<path d="M425.554 205.839C425.203 206.144 424.825 206.418 424.426 206.657C423.69 207.164 422.602 207.875 421.253 208.733C418.554 210.458 414.792 212.821 410.621 215.273C406.45 217.725 402.599 220.014 399.81 221.584C398.42 222.401 397.283 222.998 396.49 223.415C396.088 223.649 395.669 223.854 395.238 224.028C395.606 223.745 395.997 223.493 396.408 223.276L399.679 221.33L410.417 214.905L421.13 208.447L424.401 206.485C424.77 206.243 425.155 206.027 425.554 205.839Z" fill="#2E90FA"/>
<path d="M438.575 181.945C438.202 182.247 437.805 182.521 437.39 182.762C436.613 183.269 435.476 183.988 434.061 184.863C431.232 186.604 427.29 188.951 422.906 191.501C418.523 194.052 414.524 196.3 411.604 197.886C410.148 198.703 408.963 199.316 408.137 199.741C407.719 199.983 407.281 200.188 406.828 200.354C407.217 200.07 407.627 199.816 408.055 199.594L411.457 197.624L422.694 191.133L433.906 184.593L437.3 182.615C437.708 182.36 438.134 182.136 438.575 181.945Z" fill="#2E90FA"/>
<path d="M506.565 197.754C506.315 197.983 506.041 198.183 505.748 198.351C505.216 198.719 504.423 199.226 503.449 199.847C501.487 201.09 498.755 202.757 495.697 204.539C492.638 206.321 489.825 207.858 487.772 208.946C486.75 209.485 485.916 209.91 485.319 210.196C485.028 210.37 484.718 210.507 484.395 210.605C484.646 210.393 484.92 210.209 485.212 210.057L487.592 208.676L495.443 204.172L503.245 199.594L505.625 198.212C505.92 198.024 506.235 197.871 506.565 197.754Z" fill="#2E90FA"/>
<path d="M510.264 242.593C510.015 242.819 509.741 243.017 509.447 243.181C508.931 243.549 508.171 244.056 507.222 244.669C505.333 245.895 502.691 247.555 499.731 249.321C496.771 251.086 494.047 252.59 492.06 253.686C491.07 254.225 490.261 254.65 489.696 254.937C489.416 255.11 489.113 255.245 488.797 255.337C489.052 255.13 489.326 254.946 489.615 254.789L491.97 253.416L499.567 248.945L507.099 244.424L509.397 243.051C509.668 242.866 509.959 242.712 510.264 242.593Z" fill="#2E90FA"/>
<path d="M512.104 258.231C511.855 258.458 511.58 258.655 511.286 258.82C510.771 259.179 510.011 259.686 509.062 260.307C507.173 261.534 504.531 263.193 501.571 264.959C498.61 266.724 495.887 268.229 493.9 269.324C492.91 269.864 492.101 270.289 491.536 270.575C491.256 270.748 490.953 270.883 490.637 270.975C490.892 270.768 491.166 270.585 491.455 270.428L493.753 269.062L501.35 264.591L508.907 260.054L511.205 258.681C511.486 258.497 511.788 258.346 512.104 258.231Z" fill="#2E90FA"/>
<path d="M513.944 273.853C513.697 274.084 513.422 274.285 513.126 274.45C512.611 274.809 511.85 275.316 510.902 275.938C509.013 277.164 506.371 278.823 503.411 280.589C500.45 282.355 497.727 283.859 495.74 284.954C494.75 285.494 493.94 285.919 493.376 286.205C493.094 286.374 492.791 286.509 492.477 286.606C492.729 286.395 493.003 286.211 493.294 286.058L495.592 284.693L503.19 280.221L510.746 275.676L513.044 274.311C513.325 274.123 513.627 273.969 513.944 273.853Z" fill="#2E90FA"/>
<path d="M504.643 181.233C504.395 181.464 504.121 181.664 503.826 181.83C503.286 182.19 502.501 182.705 501.519 183.326C499.565 184.569 496.825 186.236 493.767 188.01C490.708 189.784 487.895 191.329 485.85 192.416C484.82 192.964 483.986 193.389 483.397 193.675C483.104 193.844 482.794 193.981 482.473 194.084C482.726 193.872 483 193.686 483.29 193.528L485.662 192.155L493.513 187.642L501.323 183.065L503.695 181.691C503.992 181.503 504.311 181.349 504.643 181.233Z" fill="#2E90FA"/>
<path d="M502.729 164.704C502.477 164.931 502.203 165.134 501.912 165.309C501.372 165.669 500.587 166.184 499.605 166.805C497.651 168.039 494.919 169.715 491.861 171.489C488.802 173.263 485.989 174.808 483.936 175.895C482.914 176.435 482.08 176.868 481.483 177.154C481.189 177.321 480.88 177.458 480.559 177.563C480.811 177.349 481.085 177.163 481.376 177.007L483.748 175.634L491.599 171.121L499.409 166.543L501.789 165.162C502.084 164.974 502.399 164.82 502.729 164.704Z" fill="#2E90FA"/>
<path d="M500.81 148.183C500.576 148.403 500.318 148.595 500.041 148.755C499.526 149.107 498.773 149.573 497.849 150.186C495.985 151.371 493.384 152.973 490.489 154.666C487.594 156.358 484.895 157.821 482.941 158.851C481.959 159.366 481.166 159.775 480.61 160.045C480.33 160.205 480.034 160.334 479.727 160.429C479.981 160.225 480.255 160.047 480.544 159.897L482.801 158.581L490.284 154.298L497.718 149.932L499.984 148.616C500.242 148.442 500.519 148.297 500.81 148.183Z" fill="#2E90FA"/>
<path d="M500.483 132.537C499.287 133.422 498.011 134.194 496.672 134.842C495.396 135.608 494.051 136.253 492.656 136.771C495.123 135.112 497.744 133.694 500.483 132.537Z" fill="#2E90FA"/>
<path d="M451.446 157.257C451.077 157.562 450.683 157.835 450.269 158.075C449.451 158.582 448.347 159.301 446.932 160.176C444.11 161.917 440.169 164.263 435.785 166.814C431.402 169.364 427.403 171.612 424.483 173.198C423.027 174.015 421.833 174.629 421.007 175.054C420.591 175.292 420.156 175.497 419.707 175.667C420.095 175.38 420.505 175.126 420.934 174.907L424.336 172.936L435.54 166.454L446.752 159.914L450.146 157.936C450.562 157.678 450.997 157.451 451.446 157.257Z" fill="#2E90FA"/>
<path d="M464.325 132.569C463.952 132.872 463.555 133.145 463.14 133.387C462.322 133.894 461.226 134.613 459.811 135.488C456.982 137.229 453.04 139.575 448.664 142.126C444.289 144.676 440.274 146.924 437.354 148.51C435.898 149.327 434.713 149.941 433.887 150.366C433.469 150.607 433.031 150.812 432.578 150.979C432.967 150.695 433.377 150.441 433.805 150.219L437.207 148.248L448.444 141.758L459.656 135.218L463.058 133.24C463.463 132.984 463.886 132.76 464.325 132.569Z" fill="#2E90FA"/>
<path d="M475.99 108.054C475.616 108.356 475.219 108.63 474.804 108.871C473.986 109.378 472.89 110.097 471.475 110.972C468.646 112.713 464.704 115.059 460.32 117.61C455.937 120.16 451.938 122.409 449.018 124.003C447.562 124.82 446.377 125.425 445.551 125.85C445.131 126.089 444.693 126.297 444.242 126.471C444.627 126.179 445.038 125.922 445.469 125.703L448.871 123.733L460.075 117.25L471.287 110.71L474.714 108.724C475.122 108.469 475.548 108.245 475.99 108.054Z" fill="#2E90FA"/>
<path d="M488.372 84.314C488 84.6185 487.604 84.892 487.187 85.1314C486.41 85.6383 485.273 86.3576 483.858 87.2242C481.028 88.9735 477.087 91.3115 472.703 93.8702C468.32 96.4289 464.321 98.6606 461.401 100.255C459.945 101.072 458.759 101.677 457.933 102.102C457.513 102.342 457.076 102.549 456.625 102.723C457.015 102.438 457.425 102.181 457.852 101.955L461.254 99.9931L472.49 93.5023L483.703 86.9626L487.064 85.017C487.481 84.7493 487.919 84.5142 488.372 84.314Z" fill="#2E90FA"/>
<path d="M534.036 111.421C533.924 111.632 533.792 111.831 533.644 112.018C533.257 112.59 532.833 113.136 532.376 113.653C530.722 115.577 528.793 117.246 526.651 118.607C523.471 120.64 519.909 122.004 516.183 122.613C513.985 122.963 511.75 123.029 509.535 122.809C507.164 122.545 504.828 122.03 502.567 121.272C497.905 119.776 493.686 117.822 489.654 116.621C486.109 115.465 482.369 115.034 478.654 115.353C476.153 115.583 473.741 116.398 471.613 117.732C471.035 118.107 470.488 118.528 469.977 118.991C469.807 119.157 469.627 119.313 469.438 119.457C469.578 119.263 469.74 119.085 469.92 118.926C470.403 118.436 470.932 117.993 471.498 117.601C473.62 116.184 476.058 115.311 478.597 115.059C482.355 114.688 486.148 115.091 489.744 116.244C493.833 117.438 498.053 119.384 502.665 120.871C504.902 121.613 507.21 122.123 509.551 122.392C511.73 122.619 513.929 122.561 516.093 122.22C519.772 121.638 523.295 120.323 526.455 118.354C528.576 117.023 530.503 115.405 532.18 113.547C532.647 113.048 533.086 112.524 533.496 111.977C533.663 111.779 533.843 111.594 534.036 111.421Z" fill="white"/>
<path d="M517.077 73.0005C516.787 73.2764 516.472 73.5254 516.136 73.7444C515.515 74.2103 514.582 74.8234 513.397 75.5428C512.003 76.3698 510.567 77.123 509.095 77.799C507.286 78.6234 505.429 79.3386 503.534 79.9408C501.633 80.5229 499.7 80.9924 497.744 81.3469C496.147 81.6306 494.537 81.827 492.919 81.9354C491.83 82.0174 490.739 82.0447 489.647 82.0172C489.245 82.0342 488.842 82.0095 488.445 81.9436C488.84 81.8816 489.24 81.8515 489.639 81.8537C490.408 81.8537 491.528 81.7638 492.911 81.633C494.293 81.5022 495.904 81.2896 497.687 80.9627C499.618 80.5831 501.528 80.1056 503.411 79.5321C505.29 78.9361 507.135 78.2403 508.94 77.4475C510.575 76.6955 512.055 75.9597 513.249 75.2812C514.443 74.6027 515.4 74.0305 516.046 73.6463C516.37 73.4014 516.715 73.1853 517.077 73.0005Z" fill="white"/>
<path d="M472.339 171.048C472.047 170.834 471.774 170.596 471.522 170.337L469.281 168.326C466.798 166.146 464.199 164.102 461.495 162.203C460.025 161.15 458.446 160.259 456.785 159.546C455.427 158.971 453.98 158.634 452.508 158.549C451.148 158.492 449.789 158.675 448.492 159.088C448.492 159.088 448.574 159.023 448.746 158.941C448.994 158.823 449.251 158.725 449.514 158.647C450.488 158.346 451.505 158.211 452.524 158.246C454.034 158.294 455.524 158.609 456.924 159.178C458.616 159.885 460.222 160.785 461.708 161.859C464.433 163.76 467.024 165.847 469.461 168.105C470.393 168.971 471.096 169.74 471.612 170.214C471.883 170.465 472.127 170.745 472.339 171.048Z" fill="white"/>
<path d="M540.422 186.335C540.422 186.335 540.34 186.441 540.144 186.621C539.948 186.801 539.67 187.07 539.269 187.373C538.163 188.262 536.978 189.048 535.728 189.719C531.586 191.982 526.889 193.029 522.178 192.74C517.467 192.45 512.933 190.837 509.1 188.084C507.925 187.271 506.829 186.349 505.829 185.329C505.469 184.978 505.224 184.675 505.011 184.512C504.917 184.415 504.835 184.308 504.766 184.193C505.163 184.524 505.543 184.876 505.902 185.247C506.921 186.208 508.015 187.085 509.174 187.871C512.993 190.52 517.465 192.072 522.104 192.36C526.743 192.648 531.373 191.661 535.491 189.506C536.742 188.867 537.939 188.129 539.073 187.299C539.504 186.952 539.954 186.63 540.422 186.335Z" fill="white"/>
<path d="M571.298 234.23C571.298 234.23 571.191 234.116 571.011 233.887L570.193 232.857C569.17 231.538 568.049 230.298 566.84 229.146L565.548 228.001L564.861 227.388L564.044 226.808L562.408 225.582L560.502 224.413C557.488 222.642 554.247 221.289 550.869 220.391C546.768 219.303 542.51 218.932 538.283 219.295C533.435 219.72 528.734 221.175 524.494 223.562C520.021 226.097 515.85 229.554 511.409 232.963C509.156 234.723 506.796 236.342 504.344 237.811C501.793 239.334 499.04 240.487 496.165 241.236C493.286 241.938 490.313 242.178 487.358 241.947C484.496 241.708 481.669 241.16 478.926 240.312C473.775 238.666 468.794 236.53 464.05 233.936C459.47 231.574 455.144 229.277 450.908 227.552C446.998 225.875 442.866 224.774 438.641 224.282C435.158 223.944 431.642 224.22 428.255 225.099C425.689 225.749 423.262 226.857 421.091 228.369C419.723 229.327 418.485 230.459 417.41 231.737L416.634 232.775C416.454 233.012 416.355 233.127 416.355 233.127C416.355 233.127 416.429 232.996 416.593 232.751L417.345 231.68C418.4 230.372 419.627 229.211 420.992 228.23C423.175 226.699 425.615 225.575 428.197 224.911C431.614 224.026 435.16 223.749 438.673 224.094C442.941 224.535 447.122 225.601 451.08 227.257C455.349 228.974 459.691 231.263 464.271 233.617C468.995 236.193 473.954 238.312 479.081 239.945C481.797 240.77 484.594 241.299 487.423 241.522C490.334 241.753 493.264 241.516 496.1 240.819C498.925 240.078 501.632 238.941 504.139 237.443C506.577 235.987 508.924 234.382 511.164 232.636C515.613 229.244 519.808 225.77 524.323 223.219C525.437 222.59 526.59 222.03 527.774 221.543C528.354 221.298 528.919 221.036 529.508 220.824L531.274 220.268C533.556 219.588 535.902 219.144 538.274 218.944C542.54 218.594 546.834 218.984 550.967 220.096C554.366 221.011 557.624 222.386 560.65 224.184L562.555 225.377L564.191 226.628L565.009 227.217L565.696 227.838L566.979 228.999C568.173 230.167 569.267 231.433 570.251 232.783L571.019 233.838C571.224 234.1 571.298 234.23 571.298 234.23Z" fill="white"/>
<path d="M551.669 271.507C551.548 271.583 551.415 271.638 551.276 271.67L550.115 272.071C549.504 272.288 548.882 272.471 548.25 272.619C547.514 272.798 546.68 273.044 545.731 273.199L544.259 273.477C543.744 273.567 543.204 273.616 542.624 273.689C541.512 273.861 540.309 273.91 539.042 273.992C536.309 274.083 533.573 273.943 530.864 273.575C528.15 273.162 525.474 272.525 522.866 271.67C521.672 271.237 520.535 270.853 519.512 270.379C518.997 270.15 518.498 269.945 518.024 269.717L516.691 269.038C515.824 268.621 515.096 268.155 514.442 267.771C513.877 267.454 513.331 267.105 512.806 266.725L511.801 266.013C511.572 265.85 511.457 265.76 511.465 265.744C511.601 265.797 511.73 265.865 511.85 265.948L512.896 266.586C513.338 266.872 513.894 267.215 514.532 267.567C515.17 267.918 515.922 268.384 516.789 268.768L518.13 269.422C518.605 269.643 519.104 269.831 519.619 270.052C520.641 270.51 521.77 270.869 522.955 271.294C528.139 272.994 533.581 273.774 539.034 273.6C540.285 273.526 541.487 273.493 542.583 273.338C543.139 273.273 543.671 273.232 544.218 273.15L545.691 272.905C546.631 272.774 547.457 272.545 548.201 272.39C548.945 272.234 549.567 272.063 550.074 271.916L551.26 271.589C551.392 271.544 551.529 271.517 551.669 271.507Z" fill="white"/>
<path d="M510.787 180.719C509.941 177.579 509.873 174.282 510.587 171.11C511.301 167.938 512.777 164.988 514.887 162.514C516.998 160.04 519.679 158.117 522.699 156.911C525.719 155.704 528.988 155.251 532.222 155.59C533.359 161.77 531.404 168.113 528.174 173.492C524.322 179.819 516.668 182.484 510.787 180.719Z" fill="#2E90FA"/>
<path d="M130.898 171.375C133.144 170.328 135.615 169.855 138.089 170C140.563 170.144 142.962 170.901 145.071 172.202C147.179 173.503 148.931 175.308 150.169 177.454C151.407 179.599 152.091 182.019 152.161 184.495C143.125 183.825 134.382 181.054 130.898 171.375Z" fill="#2E90FA"/>
<g clip-path="url(#clip0_5533_79046)">
<g clip-path="url(#clip1_5533_79046)">
<path d="M370.743 217.089C408.899 178.932 408.899 117.068 370.743 78.9113C332.586 40.7547 270.722 40.7547 232.565 78.9113C194.409 117.068 194.409 178.932 232.565 217.089C270.722 255.245 332.586 255.245 370.743 217.089Z" fill="#8EC4FF"/>
<mask id="mask0_5533_79046" style="mask-type:luminance" maskUnits="userSpaceOnUse" x="203" y="50" width="197" height="196">
<path d="M370.743 217.089C408.899 178.932 408.899 117.068 370.743 78.9113C332.586 40.7547 270.722 40.7547 232.565 78.9113C194.409 117.068 194.409 178.932 232.565 217.089C270.722 255.245 332.586 255.245 370.743 217.089Z" fill="white"/>
</mask>
<g mask="url(#mask0_5533_79046)">
<path d="M388.031 99.7915C388.031 99.7915 358.096 70.9087 329.373 98.4061L316.229 112.235C316.229 112.235 293.202 135.104 289.099 115.358C286.076 100.81 266.843 118.799 258.735 130.508C250.626 142.217 229.215 170.193 203.199 156.253L230.475 263.295L270.478 287.939L383.239 285.516C383.239 285.516 440.048 240.271 445.353 196.556C450.657 152.841 441.814 100.858 441.814 100.858L388.031 99.7915Z" fill="white"/>
</g>
<mask id="mask1_5533_79046" style="mask-type:luminance" maskUnits="userSpaceOnUse" x="203" y="50" width="197" height="196">
<path d="M370.743 217.089C408.899 178.932 408.899 117.068 370.743 78.9113C332.586 40.7547 270.722 40.7547 232.565 78.9113C194.409 117.068 194.409 178.932 232.565 217.089C270.722 255.245 332.586 255.245 370.743 217.089Z" fill="white"/>
</mask>
<g mask="url(#mask1_5533_79046)">
<path d="M369.633 194.056C369.633 194.056 372.125 193.379 373.026 179.591C373.981 164.966 380.975 170.319 389.451 190.455L391.41 197.927L386.376 200.046C386.376 200.046 373.711 206.562 369.633 194.056V194.056Z" fill="#79B7FB"/>
</g>
<path d="M326.753 155.433C326.753 155.433 329.308 155.6 326.586 157.989L326.753 155.433Z" fill="#056AD6"/>
<mask id="mask2_5533_79046" style="mask-type:luminance" maskUnits="userSpaceOnUse" x="203" y="50" width="197" height="196">
<path d="M370.743 217.089C408.899 178.932 408.899 117.068 370.743 78.9113C332.586 40.7547 270.722 40.7547 232.565 78.9113C194.409 117.068 194.409 178.932 232.565 217.089C270.722 255.245 332.586 255.245 370.743 217.089Z" fill="white"/>
</mask>
<g mask="url(#mask2_5533_79046)">
<path d="M228.788 214.227C228.788 214.227 258.268 212.618 276.285 199.108C294.303 185.598 306.809 181.519 310.728 196.463C314.648 211.406 319.364 214.162 330.069 200.174C340.774 186.187 344.168 171.721 358.314 179.989C372.461 188.257 371.116 208.84 386.537 197.609C386.537 197.609 370.598 254.228 362.967 258.625C355.337 263.022 291.166 271.069 291.166 271.069C291.166 271.069 261.757 271.594 252.166 268.52C242.576 265.445 218.68 256.54 218.68 256.54L228.788 214.227Z" fill="#97C7FC"/>
</g>
<mask id="mask3_5533_79046" style="mask-type:luminance" maskUnits="userSpaceOnUse" x="203" y="50" width="197" height="196">
<path d="M370.743 217.089C408.899 178.932 408.899 117.068 370.743 78.9113C332.586 40.7547 270.722 40.7547 232.565 78.9113C194.409 117.068 194.409 178.932 232.565 217.089C270.722 255.245 332.586 255.245 370.743 217.089Z" fill="white"/>
</mask>
<g mask="url(#mask3_5533_79046)">
<path d="M235.621 222.017C235.621 222.017 269.109 233.997 290.201 210.896C290.201 210.896 300.588 201.783 304.825 211.852C309.063 221.92 323.051 232.626 339.269 209.207C339.269 209.207 352.89 188.066 363.803 208.362C363.803 208.362 368.2 215.994 373.234 213.874C378.268 211.755 351.026 254.037 350.867 256.474C350.708 258.912 308.315 270.829 296.447 265.158C284.578 259.486 279.544 261.605 267.675 255.934C255.806 250.262 238.744 249.148 238.744 249.148L235.621 222.017Z" fill="#79B7FB"/>
</g>
<path d="M372.389 189.34C372.389 189.34 384.098 197.449 389.451 190.455C389.451 190.455 386.536 197.609 383.939 199.886C383.939 199.886 376.308 204.284 371.911 196.653L369.633 194.056L372.389 189.34Z" fill="#97C7FC"/>
<path d="M219.625 176L191.455 165.756L181.211 170.878L199.138 189.798L219.625 176Z" fill="#91C5FC"/>
<path d="M191.453 181.122C191.453 181.122 211.941 181.122 219.623 176L199.136 189.798L191.453 181.122Z" fill="#2E90FA"/>
<path d="M186.332 176C186.332 176 209.381 178.56 211.942 173.438L219.624 176C219.624 176 209.381 181.121 191.454 181.121L186.332 176Z" fill="#60AAFB"/>
<path d="M263.16 151.383C263.16 151.383 217.064 176.993 214.502 179.554L199.137 189.798C199.137 189.798 217.064 202.602 242.673 194.919C242.673 194.919 318.438 171.394 334.335 166.51L263.16 151.383Z" fill="#BEDDFD"/>
<mask id="mask4_5533_79046" style="mask-type:luminance" maskUnits="userSpaceOnUse" x="199" y="151" width="136" height="47">
<path d="M263.16 151.383C263.16 151.383 217.064 176.993 214.502 179.554L199.137 189.798C199.137 189.798 217.064 202.602 242.673 194.919C242.673 194.919 318.438 171.394 334.335 166.51L263.16 151.383Z" fill="white"/>
</mask>
<g mask="url(#mask4_5533_79046)">
<path d="M265.723 169.31C265.723 169.31 217.065 194.919 214.504 197.48C211.943 200.041 240.113 205.163 240.113 205.163C240.113 205.163 247.796 202.602 263.162 200.041C278.528 197.48 286.21 192.358 291.332 192.358C296.454 192.358 296.454 189.797 296.454 189.797C296.454 189.797 322.064 194.919 324.624 194.919C327.185 194.919 327.185 176.992 324.624 169.31H265.723Z" fill="#1583F9"/>
</g>
<mask id="mask5_5533_79046" style="mask-type:luminance" maskUnits="userSpaceOnUse" x="199" y="151" width="136" height="47">
<path d="M263.16 151.383C263.16 151.383 217.064 176.993 214.502 179.554L199.137 189.798C199.137 189.798 217.064 202.602 242.673 194.919C242.673 194.919 318.438 171.394 334.335 166.51L263.16 151.383Z" fill="white"/>
</mask>
<g mask="url(#mask5_5533_79046)">
<path d="M278.528 169.31C278.528 169.31 224.748 197.48 222.187 197.48C219.626 197.48 242.674 202.602 242.674 205.163C242.674 207.724 265.722 205.163 265.722 205.163L291.332 202.602C291.332 202.602 296.454 205.163 301.576 205.163H311.82L332.307 202.602L278.528 169.31Z" fill="#056AD6"/>
</g>
<mask id="mask6_5533_79046" style="mask-type:luminance" maskUnits="userSpaceOnUse" x="199" y="151" width="136" height="47">
<path d="M263.16 151.383C263.16 151.383 217.064 176.993 214.502 179.554L199.137 189.798C199.137 189.798 217.064 202.602 242.673 194.919C242.673 194.919 318.438 171.394 334.335 166.51L263.16 151.383Z" fill="white"/>
</mask>
<g mask="url(#mask6_5533_79046)">
<path opacity="0.2" d="M240.111 161.627C240.111 161.627 263.16 176.993 234.99 207.724C206.819 238.455 293.891 217.968 293.891 217.968C293.891 217.968 268.282 128.335 268.282 125.774L240.111 161.627Z" fill="#1D2123"/>
</g>
<path d="M334.333 166.511C334.701 167.45 334.88 168.453 334.861 169.462C334.841 170.47 334.623 171.465 334.219 172.39C333.815 173.314 333.232 174.15 332.505 174.849C331.778 175.549 330.92 176.098 329.981 176.466L301.572 184.675C297.621 186.223 295.343 186.337 293.795 182.386C293.427 181.447 293.248 180.444 293.267 179.435C293.287 178.426 293.505 177.431 293.909 176.507C294.313 175.583 294.895 174.747 295.622 174.047C296.35 173.348 297.207 172.799 298.147 172.431L324.378 162.158C326.275 161.415 328.39 161.457 330.257 162.273C332.124 163.089 333.59 164.613 334.333 166.511Z" fill="#056AD6"/>
<path d="M392.76 136.018C392.76 136.018 382.516 107.847 349.223 115.53C315.931 123.213 263.16 151.383 263.16 151.383L290.322 166.749C290.322 166.749 392.76 156.505 392.76 136.018Z" fill="#BEDDFD"/>
<mask id="mask7_5533_79046" style="mask-type:luminance" maskUnits="userSpaceOnUse" x="254" y="114" width="139" height="53">
<path d="M392.759 136.018C392.759 136.018 382.516 107.847 349.223 115.53C315.931 123.213 254.469 146.262 254.469 146.262L290.322 166.749C290.322 166.749 392.759 156.505 392.759 136.018Z" fill="white"/>
</mask>
<g mask="url(#mask7_5533_79046)">
<path d="M280.078 161.627L344.102 136.018C344.102 136.018 372.272 123.213 400.442 130.896C428.613 138.579 379.954 171.871 372.272 171.871C364.589 171.871 313.371 179.554 295.444 182.115C277.517 184.676 269.834 184.676 267.273 184.676L280.078 161.627Z" fill="#1583F9"/>
</g>
<mask id="mask8_5533_79046" style="mask-type:luminance" maskUnits="userSpaceOnUse" x="254" y="114" width="139" height="56">
<path d="M392.759 136.018C392.759 136.018 382.516 107.847 349.223 115.53C315.931 123.213 254.469 146.262 254.469 146.262L295.444 169.31C295.444 169.31 392.759 156.505 392.759 136.018Z" fill="white"/>
</mask>
<g mask="url(#mask8_5533_79046)">
<path d="M280.078 166.749C280.078 166.749 367.15 130.896 390.199 133.457C413.247 136.018 395.321 169.309 387.638 171.871C379.955 174.432 300.566 194.92 300.566 194.92L287.761 197.481L280.078 166.749Z" fill="#056AD6"/>
</g>
<path d="M291.331 156.505L199.138 140.146L181.211 145.268L273.405 171.871L309.258 159.066L291.331 156.505Z" fill="#1583F9"/>
<path d="M214.501 142.708L209.379 145.268L293.89 164.188L309.255 159.066L214.501 142.708Z" fill="#056AD6"/>
<path d="M313.848 163.949C314.591 165.847 314.55 167.961 313.734 169.828C312.918 171.695 311.394 173.162 309.497 173.905L281.087 182.114C277.136 183.662 274.858 183.776 273.31 179.825C272.567 177.928 272.608 175.813 273.425 173.946C274.241 172.079 275.765 170.613 277.662 169.87L303.893 159.597C305.79 158.854 307.905 158.895 309.772 159.711C311.639 160.528 313.105 162.052 313.848 163.949Z" fill="#056AD6"/>
<path d="M313.847 163.949C315.394 167.901 313.98 172.148 310.688 173.438C307.395 174.727 303.298 173.071 301.751 169.12L301.461 168.351C299.913 164.4 301.762 159.9 305.055 158.611C308.347 157.322 312.3 159.998 313.847 163.949Z" fill="#1583F9"/>
<mask id="mask9_5533_79046" style="mask-type:luminance" maskUnits="userSpaceOnUse" x="263" y="114" width="130" height="53">
<path d="M392.76 136.018C392.76 136.018 382.516 107.847 349.223 115.53C315.931 123.213 263.16 151.383 263.16 151.383L290.322 166.749C290.322 166.749 392.76 156.505 392.76 136.018Z" fill="white"/>
</mask>
<g mask="url(#mask9_5533_79046)">
<path opacity="0.2" d="M291.332 138.579C291.332 138.579 299.015 153.944 306.698 156.505L301.576 159.066L252.918 148.822L258.04 123.213L291.332 138.579Z" fill="#1D2123"/>
</g>
<path d="M334.336 166.511C334.336 166.511 365.598 153.944 373.281 151.383C380.964 148.822 373.281 143.701 370.72 143.701C368.159 143.701 345.111 151.384 339.989 151.384H334.867C334.867 151.384 327.184 153.944 324.623 153.944H322.062L334.336 166.511Z" fill="#056AD6"/>
<path d="M372.492 116.645C372.492 116.645 360.279 114.203 350.508 121.531L355.393 123.973C355.393 123.973 377.377 119.088 384.705 123.973C384.705 123.973 377.377 116.645 372.492 116.645V116.645Z" fill="#4992FC"/>
<path d="M345.618 125.04C345.745 127.06 344.757 128.766 343.411 128.851C342.065 128.936 340.87 127.368 340.742 125.348C340.614 123.329 341.602 121.622 342.949 121.537C344.295 121.452 345.49 123.021 345.618 125.04ZM338.554 127.318C339.015 129.288 338.324 131.134 337.01 131.442C335.696 131.749 334.258 130.401 333.797 128.43C333.336 126.46 334.028 124.613 335.341 124.306C336.655 123.999 338.094 125.347 338.554 127.318ZM330.955 129.922C331.083 131.941 330.095 133.647 328.748 133.732C327.402 133.818 326.207 132.249 326.08 130.23C325.952 128.21 326.94 126.504 328.286 126.419C329.632 126.334 330.828 127.902 330.955 129.921L330.955 129.922ZM323.892 132.199C324.352 134.17 323.661 136.016 322.348 136.323C321.034 136.63 319.596 135.282 319.135 133.312C318.674 131.341 319.365 129.495 320.679 129.188C321.992 128.881 323.431 130.229 323.892 132.199Z" fill="#056AD6"/>
</g>
</g>
<defs>
<clipPath id="clip0_5533_79046">
<rect width="274" height="274" fill="white" transform="translate(154 11)"/>
</clipPath>
<clipPath id="clip1_5533_79046">
<rect width="274" height="274" fill="white" transform="translate(154 11)"/>
</clipPath>
</defs>
</svg>
