<svg width="32" height="32" viewBox="0 0 32 32" fill="none" xmlns="http://www.w3.org/2000/svg">
<path d="M10.8968 25.3169C12.1469 24.5127 13.1795 23.5854 13.7339 22.7039C14.0062 22.2698 14.1572 21.8605 14.1464 21.4978C14.1373 21.1766 13.9896 20.8763 13.6715 20.6206C13.3261 20.3434 12.7959 20.1134 12.0481 19.9491C11.7542 20.3375 11.4496 20.7286 11.1483 21.1143L11.13 21.1358L11.1241 21.1433L11.1133 21.1583L11.0951 21.1798L11.0843 21.1949L11.0784 21.2024L11.0618 21.2239L11.0435 21.247L11.0269 21.2684L11.0102 21.2915L11.0043 21.2991L10.9919 21.3125L10.9753 21.3356L10.9629 21.3496L10.957 21.3571L10.9404 21.3786L10.9237 21.4017L10.9087 21.4199L10.9011 21.4291V21.4307L10.8936 21.4398L10.8861 21.449L10.8786 21.4581L10.8727 21.4688H10.8711L10.8652 21.478L10.8576 21.4871L10.8501 21.4962L10.8426 21.507L10.8351 21.5161L10.8275 21.5252L10.8259 21.5285L10.812 21.5451L10.7969 21.5634V21.565L10.7894 21.5741L10.7819 21.5833L10.7668 21.6031L10.7593 21.6123L10.7518 21.623L10.7443 21.6321L10.7368 21.6429L10.7292 21.652L10.7217 21.6628H10.7201L10.7126 21.6719V21.6735L10.7051 21.6826L10.6975 21.6934L10.69 21.7025L10.6825 21.7133H10.6809L10.6734 21.724L10.6658 21.7331L10.6583 21.7439L10.6508 21.7546H10.6492L10.6417 21.7654L10.6342 21.7745V21.7761L10.625 21.7852V21.7869L10.6175 21.796V21.7976L10.61 21.8067L10.6084 21.8083L10.6008 21.8175V21.8191L10.5933 21.8282L10.5917 21.8298L10.5842 21.839V21.8406L10.5751 21.8513L10.5675 21.8621L10.5584 21.8728L10.5493 21.8836V21.8852L10.5418 21.8959H10.5401L10.5326 21.9067L10.5235 21.9174V21.919L10.5052 21.9405V21.9421L10.4977 21.9529H10.4961L10.4886 21.9652H10.487L10.4794 21.976L10.4778 21.9776L10.4703 21.9883H10.4687L10.4596 22.0007L10.4413 22.0248L10.4322 22.0372L10.423 22.0496L10.4123 22.0619L10.4032 22.0743C10.2887 22.2204 10.149 22.3348 9.98735 22.4138C9.82457 22.4928 9.64783 22.5341 9.46357 22.5341C9.27931 22.5341 9.10256 22.4928 8.93979 22.4138C8.77862 22.3348 8.63841 22.2204 8.52399 22.0743C8.31716 21.8094 8.16029 21.6085 8.00021 21.406C7.14443 20.317 6.22634 19.1492 5.61983 18.1365C5.32919 18.555 5.05629 18.988 4.79736 19.4323C4.41218 20.0946 4.06192 20.7721 3.73905 21.4635C3.69345 21.5607 3.61456 21.6385 3.51665 21.6826C4.68777 24.1662 6.60185 26.2296 8.97309 27.5866C9.19872 27.1192 9.44799 26.6819 9.7499 26.3026C10.0652 25.8971 10.4386 25.5592 10.8968 25.3169ZM3.99369 13.6889C4.39123 13.7287 4.79306 13.7346 5.20295 13.7013C5.2503 13.5691 5.30317 13.439 5.36143 13.3113C5.413 13.1985 5.4678 13.0889 5.52743 12.9809C5.68357 12.6957 5.8694 12.4277 6.08183 12.1815C6.10332 12.1557 6.12588 12.13 6.14898 12.1036L6.15328 12.0993L6.15757 12.0934L6.16832 12.0827L6.17262 12.0768L6.17423 12.0752L6.17745 12.0719L6.18336 12.066L6.18766 12.0617V12.0601L6.1984 12.0494L6.20753 12.0386L6.21183 12.0343C6.47022 11.7575 6.76476 11.5168 7.08749 11.3188C7.39804 11.1287 7.73096 10.9778 8.07864 10.8697C8.39828 10.4705 8.78829 10.0638 9.28629 9.67276C9.82672 9.24621 10.4998 8.83686 11.3588 8.46511C13.0263 7.74471 14.2324 6.97274 15.2724 6.05625C16.2759 5.17308 17.1301 4.14969 18.0955 2.90551C17.2816 2.74757 16.4414 2.66699 15.5808 2.66699C9.11223 2.66699 3.7181 7.27465 2.50293 13.3876C2.51958 13.3892 2.53516 13.3935 2.5502 13.3983C3.0251 13.538 3.50644 13.6401 3.99369 13.6889Z" fill="#BFBFD0"/>
<path d="M23.1477 22.947C22.8856 21.8763 22.6771 20.7847 22.5402 19.6652C22.4091 18.6085 22.35 18.2598 22.3237 18.2625C22.2415 18.2733 21.9718 18.6724 21.6978 19.0775C21.3475 19.597 20.993 20.1234 20.5664 20.2835C19.8627 20.5457 18.1012 19.7216 16.8613 18.5994C16.4654 18.2416 16.1167 17.8532 15.861 17.4621C15.5838 17.0355 15.4135 16.5972 15.4044 16.1706C15.392 15.5706 15.68 15.036 16.3955 14.646C16.5266 14.5746 16.662 14.5305 16.8146 14.48C17.2255 14.3446 17.8197 14.148 17.8106 13.2756C17.7998 12.2216 18.4821 11.5383 19.4458 11.0553C20.163 10.6975 21.022 10.4569 21.8445 10.2543C21.5812 9.52963 21.4835 8.74852 21.549 7.98407C21.6419 6.92416 22.0529 5.89003 22.7808 5.07723C22.8388 5.0133 22.8979 4.95098 22.9576 4.89135C21.7513 4.08876 20.4222 3.4885 19.0225 3.11426C19.0072 3.17498 18.9798 3.232 18.9419 3.28187C17.8852 4.64799 16.9666 5.76378 15.8691 6.73076C14.7651 7.70365 13.4844 8.5229 11.7148 9.28735C10.9412 9.62257 10.3337 9.99378 9.84479 10.379C9.73012 10.4682 9.61884 10.5618 9.51118 10.6594C10.5695 10.6701 11.6246 11.0429 12.4411 11.7741C12.5556 11.8762 12.6651 11.9858 12.7699 12.1029C13.4919 12.9087 13.9072 13.9471 14.0001 15.0162C14.0947 16.0836 13.8674 17.1876 13.3028 18.1304C13.1046 18.4608 12.8736 18.8078 12.6222 19.1645C13.3227 19.3547 13.8524 19.612 14.2349 19.9182C14.7769 20.3555 15.0283 20.8852 15.045 21.4729C15.06 22.0225 14.8607 22.601 14.4954 23.1828C13.8664 24.1804 12.7242 25.2113 11.357 26.0881C11.3463 26.094 11.3356 26.1004 11.3248 26.1063C10.9837 26.2858 10.6973 26.5447 10.4508 26.8568C10.1875 27.1872 9.96674 27.574 9.76851 27.9898L9.7626 28.0005C11.5214 28.8531 13.4951 29.3328 15.5811 29.3328C18.8458 29.3328 21.8353 28.1585 24.1529 26.2111C24.1145 26.1668 24.085 26.1155 24.0658 26.0601C23.722 25.0496 23.4099 24.0144 23.1477 22.947ZM5.1818 17.1935C4.94113 16.4946 4.85303 15.7452 4.91696 15.0113C4.92931 14.8776 4.94597 14.7465 4.96746 14.6138C4.60806 14.6288 4.25458 14.617 3.90593 14.5816C3.37731 14.53 2.86266 14.4231 2.35715 14.277C2.2857 14.841 2.24756 15.4164 2.24756 15.9998C2.24756 17.6549 2.54893 19.2386 3.10011 20.7009C3.38645 20.11 3.68943 19.533 4.01552 18.9754C4.37008 18.3646 4.7558 17.771 5.1818 17.1935Z" fill="#BFBFD0"/>
<path d="M27.8794 13.9615L27.8627 13.9814L27.8477 14.0029L27.8386 14.0136L27.8311 14.0244L27.8144 14.0443L27.7994 14.0657H27.7977L27.7827 14.0856L27.766 14.1071L27.7585 14.1179L27.751 14.127L27.7344 14.1485L27.7177 14.17L27.7027 14.1898L27.686 14.2113L27.6785 14.2221L27.6694 14.2312L27.6543 14.2527L27.6377 14.2726L27.6226 14.2941L27.606 14.3139L27.5984 14.3247L27.5909 14.3338L27.5743 14.3553L27.5576 14.3752L27.5501 14.3859L27.5442 14.3951L27.5367 14.4042L27.5216 14.4241L27.5141 14.4332L27.5066 14.4423L27.4991 14.4515L27.4915 14.4622L27.484 14.4713L27.4765 14.4805L27.469 14.4896L27.4615 14.5004L27.4539 14.5095L27.448 14.5186H27.4464L27.4405 14.5294H27.4389L27.433 14.5385H27.4314L27.4255 14.5476H27.4238L27.4179 14.5584H27.4163L27.4104 14.5675H27.4088L27.3964 14.5842L27.3948 14.5874H27.3889L27.3814 14.5965V14.5981L27.3739 14.6073L27.3664 14.6164L27.3588 14.6271L27.3513 14.6363V14.6379L27.3363 14.6561V14.6578L27.3288 14.6669H27.3271L27.3196 14.6776L27.3121 14.6868V14.6884L27.3046 14.6975L27.2971 14.7083H27.2955L27.2879 14.719L27.2804 14.7281V14.7297L27.2729 14.7389L27.2713 14.7405L27.2638 14.7496L27.2562 14.7604L27.2471 14.7711L27.2396 14.7818L27.2305 14.7926L27.2229 14.8033L27.2138 14.8141L27.2063 14.8248V14.8264L27.1971 14.8356V14.8372L27.1896 14.8479H27.188L27.1805 14.8587L27.1714 14.8694V14.871L27.1622 14.8818L27.1547 14.8925H27.1531L27.1456 14.9049L27.1364 14.9156L27.1273 14.928L27.1182 14.9387V14.9403L27.109 14.9511L27.0908 14.9752L27.0816 14.986V14.9876L27.0725 14.9983H27.0709L27.0618 15.0107L27.0526 15.0231L27.0435 15.0354L27.0328 15.0488C26.9199 15.195 26.7787 15.3078 26.617 15.3867C26.4542 15.4673 26.2791 15.5087 26.0932 15.5087H26.0857L26.0781 15.5071H26.0341L26.0309 15.5055H26.0078L26.0002 15.5039H25.9895C25.982 15.5022 25.9745 15.5022 25.9653 15.5006H25.961L25.9535 15.499H25.946L25.9411 15.4974H25.9379L25.932 15.4958H25.9229L25.9154 15.4942L25.9078 15.4926L25.9003 15.491H25.8928L25.8912 15.4894H25.8853L25.8821 15.4877H25.8778L25.8745 15.4861H25.8702L25.8659 15.4845L25.8509 15.4813H25.8477L25.8418 15.4797L25.8342 15.4781L25.8267 15.4765H25.8251L25.8192 15.4749L25.8176 15.4732L25.8117 15.4716H25.8101L25.8042 15.47H25.8009L25.7966 15.4684L25.7934 15.4668H25.7891L25.7859 15.4652L25.7768 15.462H25.7751L25.7692 15.4603H25.7676L25.7617 15.4571H25.7601L25.7526 15.4555L25.7451 15.4523L25.7392 15.4507H25.7375L25.7316 15.4475H25.73L25.7241 15.4458L25.7209 15.4442L25.7161 15.4426H25.7128L25.7085 15.441L25.7026 15.4378L25.6983 15.4362L25.6951 15.4346L25.6908 15.4329H25.6876L25.6817 15.4297H25.6801L25.6742 15.4265L25.6666 15.4233L25.6591 15.4201L25.6532 15.4184L25.6516 15.4168L25.6457 15.4152L25.6441 15.4136L25.6382 15.412L25.6365 15.4104L25.6317 15.4088L25.6274 15.4072L25.6242 15.4056L25.6199 15.4039L25.6167 15.4023C25.6027 15.3964 25.5877 15.39 25.5742 15.3841C25.4131 15.3051 25.2729 15.1907 25.1568 15.0429C24.95 14.7765 24.7931 14.5772 24.6346 14.3746C23.7789 13.2857 22.8592 12.1162 22.2543 11.1052L22.2419 11.0869C21.4087 11.2894 20.5255 11.5226 19.8524 11.8605C19.1825 12.1957 18.7071 12.6384 18.7135 13.2707C18.7286 14.8012 17.7664 15.1176 17.1008 15.3373C16.9821 15.3755 16.8768 15.4104 16.8295 15.4362C16.4535 15.6419 16.3025 15.8901 16.3073 16.155C16.3116 16.3999 16.4293 16.6804 16.6195 16.9726C16.8327 17.2987 17.1298 17.6275 17.4677 17.9337C18.4986 18.8673 19.8282 19.6028 20.2575 19.4427C20.4095 19.3847 20.6856 18.978 20.9564 18.5746C21.3448 17.9976 21.7283 17.4292 22.2188 17.3685C22.7823 17.2998 23.2255 17.8284 23.4388 19.5582C23.5742 20.6546 23.7751 21.7113 24.0265 22.7363C24.2624 23.6985 24.5444 24.6461 24.8581 25.5809C27.3631 23.1564 28.9194 19.7607 28.9194 16.0008C28.9194 14.9865 28.805 13.9981 28.5907 13.0483C28.3559 13.3513 28.1168 13.6569 27.8794 13.9615ZM6.81752 12.7023C6.22659 13.3631 5.89191 14.2129 5.81562 15.0886C5.73665 15.9857 5.92844 16.9022 6.38829 17.6699C6.95612 18.6218 7.8624 19.7731 8.7042 20.8448C8.90351 21.0962 9.09852 21.3444 9.23121 21.5163C9.26344 21.5561 9.29675 21.5851 9.33005 21.6017C9.36497 21.6184 9.40795 21.6275 9.45952 21.6275C9.51109 21.6275 9.55407 21.6184 9.58899 21.6017C9.6223 21.5851 9.65614 21.5561 9.68784 21.5163C9.82053 21.3444 10.0166 21.0962 10.2148 20.8432C11.0572 19.7725 11.9613 18.6213 12.5308 17.6699C12.9938 16.8963 13.1797 15.9825 13.1018 15.095C13.0239 14.2103 12.686 13.3577 12.0999 12.7028C12.0177 12.6115 11.9323 12.5245 11.841 12.4439C11.1829 11.8546 10.3228 11.5591 9.4606 11.5575C8.59891 11.5575 7.7383 11.8514 7.07753 12.4439C6.98782 12.524 6.90133 12.611 6.81752 12.7023ZM9.45952 12.7829C10.1176 12.7829 10.7144 13.0493 11.1453 13.4818C11.3673 13.7027 11.5434 13.9655 11.6633 14.2548C11.7833 14.5441 11.8448 14.8544 11.8442 15.1676C11.8442 15.8267 11.5777 16.4225 11.1453 16.8549C10.924 17.0764 10.6612 17.252 10.3719 17.3717C10.0827 17.4914 9.77258 17.5527 9.45952 17.5522C8.80037 17.5522 8.2046 17.2858 7.77214 16.8549C7.3413 16.4225 7.07323 15.8273 7.07323 15.1676C7.07323 14.5095 7.3413 13.9126 7.77214 13.4818C8.2046 13.0493 8.79983 12.7829 9.45952 12.7829Z" fill="#BFBFD0"/>
<path d="M9.45931 16.6509C9.8692 16.6509 10.2388 16.4849 10.5069 16.2168C10.6452 16.0794 10.755 15.9159 10.8298 15.7358C10.9045 15.5557 10.9429 15.3626 10.9426 15.1676C10.9426 14.7577 10.7766 14.3881 10.5069 14.1184C10.2388 13.8504 9.86867 13.6844 9.45931 13.6844C9.04996 13.6844 8.67821 13.8504 8.41014 14.1184C8.14207 14.3881 7.97607 14.7583 7.97607 15.1676C7.97607 15.5775 8.14207 15.9487 8.41014 16.2168C8.67821 16.4849 9.04942 16.6509 9.45931 16.6509ZM26.0914 6.6582C25.6815 6.6582 25.3119 6.8242 25.0422 7.09227C24.9043 7.22998 24.7951 7.39355 24.7206 7.57359C24.6461 7.75363 24.6079 7.9466 24.6081 8.14144C24.6081 8.55133 24.7741 8.92093 25.0422 9.19061C25.3119 9.45868 25.682 9.62468 26.0914 9.62468C26.5012 9.62468 26.8725 9.45868 27.1405 9.19061C27.4086 8.92093 27.5746 8.5508 27.5746 8.14144C27.5746 7.73155 27.4086 7.36034 27.1405 7.09227C26.8725 6.8242 26.5007 6.6582 26.0914 6.6582Z" fill="#BFBFD0"/>
<path d="M29.7355 8.06717C29.6576 7.18238 29.318 6.33091 28.7336 5.67658C28.6514 5.58526 28.5643 5.49823 28.4746 5.41765C27.8155 4.82833 26.9565 4.53125 26.0942 4.53125C25.232 4.53125 24.3703 4.8251 23.7096 5.41765C23.6198 5.49823 23.5328 5.58526 23.4506 5.67658C22.8581 6.33735 22.525 7.18722 22.4471 8.06287C22.3692 8.9584 22.5599 9.8765 23.0198 10.6442C23.5892 11.5945 24.4939 12.7457 25.3373 13.8175C25.5355 14.0705 25.7316 14.3198 25.8643 14.489C25.8933 14.5271 25.9266 14.5561 25.9632 14.5744H25.9615L25.9632 14.576C25.9965 14.5927 26.0411 14.6002 26.091 14.6002C26.1426 14.6002 26.1872 14.5927 26.2205 14.576C26.2554 14.5594 26.2892 14.5304 26.3193 14.489C26.4531 14.3187 26.6481 14.07 26.8463 13.8175C27.6898 12.7452 28.5944 11.594 29.1639 10.6442C29.6275 9.87059 29.8133 8.95518 29.7355 8.06717ZM27.7789 9.82761C27.3465 10.2601 26.7512 10.5265 26.0916 10.5265C25.4335 10.5265 24.8366 10.2601 24.4058 9.82761C24.1838 9.60667 24.0077 9.34396 23.8877 9.05462C23.7678 8.76529 23.7063 8.45506 23.7069 8.14184C23.7069 7.48268 23.9733 6.88692 24.4058 6.45446C24.627 6.23298 24.8898 6.05736 25.1791 5.9377C25.4684 5.81804 25.7785 5.75669 26.0916 5.75716C26.7507 5.75716 27.3465 6.02362 27.7789 6.45446C28.2098 6.88692 28.4762 7.48215 28.4762 8.14184C28.4762 8.79993 28.2098 9.39677 27.7789 9.82761Z" fill="#BFBFD0"/>
</svg>
