<svg width="1920" height="450" viewBox="0 0 1920 450" fill="none" xmlns="http://www.w3.org/2000/svg">
<g clip-path="url(#clip0_5584_84875)">
<path d="M1386.74 371.589C1356.01 385.064 1341.24 418.965 1339.85 443.63" stroke="#427ADB" stroke-width="1.1" stroke-miterlimit="10" stroke-dasharray="5.52 5.52"/>
<path d="M1555.69 451.597C1554.66 432.281 1547.87 413.714 1536.21 398.281C1524.49 383.08 1507.62 371.718 1488.91 367.406C1470.84 363.203 1449.17 366.887 1438.51 382.113C1435.36 386.612 1433.32 392.284 1434.6 397.625C1436.41 405.138 1445.01 409.966 1452.57 408.35C1460.12 406.733 1465.91 399.644 1466.77 391.969C1467.63 384.295 1464.02 376.53 1458.19 371.449C1452.61 366.584 1428.9 360.899 1400.83 367.122" stroke="#427ADB" stroke-width="1.1" stroke-miterlimit="10" stroke-dasharray="5.52 5.52"/>
<path d="M1595.65 441.991C1603.91 430.425 1609.27 417.05 1611.29 402.985C1612.45 394.886 1612.42 386.316 1608.92 378.899C1605.43 371.482 1597.93 365.556 1589.72 365.963C1584.84 366.208 1579.67 369.388 1579.07 374.238C1578.5 378.787 1582.2 383.021 1586.59 384.483C1590.97 385.946 1595.7 385.243 1600.17 384.274C1615.97 380.715 1630.84 373.849 1643.79 364.129C1656.74 354.409 1667.48 342.055 1675.31 327.88C1680.18 318.945 1683.82 308.087 1679.74 298.809C1677.66 293.98 1673.6 290.192 1669.25 287.269C1649.1 273.808 1601.63 301.902 1588.4 281.693C1579.19 267.573 1593.32 249.274 1604.38 241.662C1634.28 221.06 1670.33 211.033 1705.2 200.945" stroke="#427ADB" stroke-width="1.1" stroke-miterlimit="10" stroke-dasharray="5.52 5.52"/>
<path d="M1029.21 418.59C1058.56 441.48 1156.48 451.634 1238.47 417.007C1284.87 397.391 1296.47 361.258 1270.88 347.38C1251.79 337.023 1213.76 346.479 1231.23 381.825C1252.52 424.812 1315.52 458.826 1351.88 467.137" stroke="#427ADB" stroke-width="1.1" stroke-miterlimit="10" stroke-dasharray="5.52 5.52"/>
<path d="M1560.28 389.099C1560.28 389.099 1544.72 374.337 1543.16 372.721C1541.13 370.612 1543.55 367.794 1545.92 369.618C1548.13 371.334 1561.41 384.381 1563.18 386.354C1563.38 386.54 1563.54 386.765 1563.65 387.016C1563.76 387.266 1563.82 387.536 1563.82 387.81C1563.82 388.083 1563.77 388.354 1563.66 388.606C1563.55 388.857 1563.4 389.084 1563.2 389.272C1563 389.46 1562.76 389.605 1562.51 389.699C1562.25 389.793 1561.98 389.833 1561.7 389.816C1561.43 389.8 1561.16 389.728 1560.92 389.605C1560.68 389.481 1560.46 389.309 1560.28 389.099Z" stroke="#427ADB" stroke-width="0.71" stroke-miterlimit="10"/>
<path d="M1550.01 379.566C1550.01 379.566 1542.18 384.177 1540.92 385.027C1539.66 385.876 1540.63 386.721 1541.61 386.526C1545.85 385.711 1553.87 383.077 1553.87 383.077" stroke="#427ADB" stroke-width="0.71" stroke-miterlimit="10"/>
<path d="M1553.4 376.514C1553.4 376.514 1557.76 368.546 1558.58 367.263C1559.4 365.98 1560.25 366.917 1560.1 367.92C1559.4 372.171 1557.03 380.278 1557.03 380.278" stroke="#427ADB" stroke-width="0.71" stroke-miterlimit="10"/>
<path d="M1544.68 374.208L1541.26 375.071C1540.36 375.314 1539.55 374.417 1540.53 373.681C1541.79 372.762 1542.7 372.118 1542.7 372.118" stroke="#427ADB" stroke-width="0.71" stroke-miterlimit="10"/>
<path d="M1547.75 371.21C1547.75 371.21 1548.35 368.39 1548.5 367.738C1548.72 366.835 1547.8 366.049 1547.09 367.06C1546.21 368.343 1545.6 369.273 1545.6 369.273" stroke="#427ADB" stroke-width="0.71" stroke-miterlimit="10"/>
<path d="M1123.87 413.581C1123.87 413.581 1099.39 430.99 1096.73 432.672C1093.29 434.845 1090.06 430.804 1093.22 428.045C1096.18 425.469 1117.69 410.756 1120.84 408.798C1121.15 408.598 1121.5 408.463 1121.87 408.399C1122.23 408.335 1122.61 408.344 1122.97 408.426C1123.33 408.507 1123.68 408.659 1123.98 408.873C1124.29 409.087 1124.54 409.358 1124.74 409.673C1124.94 409.987 1125.08 410.337 1125.14 410.703C1125.21 411.07 1125.2 411.445 1125.12 411.808C1125.03 412.171 1124.88 412.515 1124.67 412.819C1124.46 413.123 1124.18 413.382 1123.87 413.581Z" stroke="#427ADB" stroke-width="0.99" stroke-miterlimit="10"/>
<path d="M1107.98 425.127C1107.98 425.127 1112.16 437.134 1113.02 439.051C1113.88 440.968 1115.26 439.917 1115.26 438.497C1115.31 432.495 1113.91 420.765 1113.91 420.765" stroke="#427ADB" stroke-width="0.99" stroke-miterlimit="10"/>
<path d="M1104.72 419.647C1104.72 419.647 1094.94 411.486 1093.4 410.02C1091.86 408.554 1093.36 407.62 1094.71 408.11C1100.38 410.213 1110.83 415.672 1110.83 415.672" stroke="#427ADB" stroke-width="0.99" stroke-miterlimit="10"/>
<path d="M1099.18 430.993C1099.18 430.993 1099.39 434.991 1099.44 435.99C1099.53 437.289 1098.08 438.171 1097.34 436.602C1096.41 434.616 1095.78 433.206 1095.78 433.206" stroke="#427ADB" stroke-width="0.99" stroke-miterlimit="10"/>
<path d="M1095.9 425.973C1095.9 425.973 1092.18 424.37 1091.34 423.983C1090.15 423.452 1088.81 424.502 1089.98 425.745C1091.5 427.301 1092.61 428.404 1092.61 428.404" stroke="#427ADB" stroke-width="0.99" stroke-miterlimit="10"/>
<path d="M1333.33 393.304L1315.08 395.585C1315.08 395.585 1319.5 385.366 1333.33 393.304Z" stroke="#427ADB" stroke-width="0.71" stroke-miterlimit="10"/>
<path d="M1305.14 429.142C1305.14 429.142 1306.9 407.903 1315.08 395.565C1306.31 401.551 1301.32 421.78 1301.05 427.845L1305.14 429.142Z" stroke="#427ADB" stroke-width="0.71" stroke-miterlimit="10"/>
<path d="M1315.08 395.565C1315.08 395.565 1320.9 388.665 1314.29 382.016C1314.22 386.546 1314.48 391.074 1315.08 395.565Z" stroke="#427ADB" stroke-width="0.71" stroke-miterlimit="10"/>
<path d="M1303.8 380.587L1315.03 395.566C1315.03 395.566 1314.17 381.708 1303.8 380.587Z" stroke="#427ADB" stroke-width="0.71" stroke-miterlimit="10"/>
<path d="M1315.07 395.565C1315.07 395.565 1327.24 394.848 1329.13 404.73C1321.62 400.195 1315.07 395.565 1315.07 395.565Z" stroke="#427ADB" stroke-width="0.71" stroke-miterlimit="10"/>
<path d="M1317.96 409.912L1315.07 395.565C1315.07 395.565 1324.48 406.262 1317.96 409.912Z" stroke="#427ADB" stroke-width="0.71" stroke-miterlimit="10"/>
<path d="M1300.33 395.893L1315.07 395.565C1315.07 395.565 1303.51 387.122 1300.33 395.893Z" stroke="#427ADB" stroke-width="0.71" stroke-miterlimit="10"/>
<path d="M1301.36 425.94C1298.36 425.613 1295.33 426.038 1292.53 427.176L1312.77 433.595C1311.03 430.73 1308.46 428.455 1305.41 427.068" stroke="#427ADB" stroke-width="0.71" stroke-miterlimit="10"/>
<path d="M1637.44 338.076C1639.42 344.981 1635.43 352.189 1628.53 354.174C1621.62 356.16 1614.41 352.172 1612.43 345.266C1610.44 338.361 1614.43 331.153 1621.34 329.168C1628.24 327.182 1635.45 331.17 1637.44 338.076Z" stroke="#427ADB" stroke-width="0.71" stroke-linecap="round" stroke-linejoin="round"/>
<path d="M1632.89 336.504C1635.72 340.877 1634.48 346.723 1630.11 349.562C1625.73 352.4 1619.89 351.155 1617.05 346.782C1614.21 342.409 1615.46 336.563 1619.83 333.724C1624.2 330.886 1630.05 332.131 1632.89 336.504Z" stroke="#427ADB" stroke-width="0.71" stroke-linecap="round" stroke-linejoin="round"/>
<path d="M1626.18 342.389C1626.32 342.143 1626.38 341.863 1626.35 341.583C1626.33 341.304 1626.22 341.038 1626.05 340.818C1625.88 340.598 1625.64 340.434 1625.38 340.346C1625.11 340.258 1624.82 340.25 1624.55 340.324C1624.28 340.397 1624.04 340.549 1623.85 340.759C1623.67 340.969 1623.55 341.23 1623.51 341.507C1623.47 341.785 1623.52 342.068 1623.64 342.321C1623.76 342.573 1623.95 342.785 1624.19 342.93C1624.36 343.029 1624.54 343.094 1624.73 343.12C1624.92 343.147 1625.12 343.134 1625.3 343.084C1625.49 343.033 1625.66 342.946 1625.81 342.826C1625.96 342.707 1626.09 342.558 1626.18 342.389Z" stroke="#427ADB" stroke-width="0.71" stroke-linecap="round" stroke-linejoin="round"/>
<path d="M1625.28 343.183L1621.03 348.669L1623.58 342.109" stroke="#427ADB" stroke-width="0.71" stroke-linecap="round" stroke-linejoin="round"/>
<path d="M1626.37 341.226L1628.85 334.857L1624.65 340.282" stroke="#427ADB" stroke-width="0.71" stroke-linecap="round" stroke-linejoin="round"/>
<path d="M1321.02 339.11C1322.7 346.095 1318.4 353.121 1311.42 354.803C1304.43 356.484 1297.41 352.184 1295.73 345.198C1294.04 338.212 1298.34 331.186 1305.33 329.505C1312.32 327.824 1319.34 332.124 1321.02 339.11Z" stroke="#427ADB" stroke-width="0.71" stroke-linecap="round" stroke-linejoin="round"/>
<path d="M1304.86 350.927C1306.59 351.619 1308.49 351.78 1310.32 351.391C1312.15 351.002 1313.82 350.079 1315.12 348.741C1316.42 347.402 1317.3 345.707 1317.64 343.87C1317.97 342.033 1317.76 340.137 1317.02 338.422C1316.28 336.707 1315.05 335.25 1313.48 334.234C1311.92 333.219 1310.08 332.692 1308.21 332.719C1306.35 332.746 1304.53 333.327 1302.99 334.388C1301.45 335.448 1300.27 336.941 1299.58 338.677C1298.66 341.002 1298.69 343.597 1299.68 345.894C1300.67 348.191 1302.53 350.001 1304.86 350.927Z" stroke="#427ADB" stroke-width="0.71" stroke-linecap="round" stroke-linejoin="round"/>
<path d="M1307.84 343.49C1308.1 343.595 1308.39 343.619 1308.67 343.561C1308.95 343.502 1309.2 343.362 1309.4 343.16C1309.59 342.957 1309.73 342.7 1309.78 342.422C1309.83 342.144 1309.8 341.857 1309.69 341.597C1309.57 341.337 1309.39 341.116 1309.15 340.962C1308.91 340.808 1308.64 340.728 1308.35 340.732C1308.07 340.736 1307.79 340.823 1307.56 340.984C1307.33 341.144 1307.15 341.37 1307.04 341.632C1306.9 341.985 1306.91 342.378 1307.06 342.727C1307.21 343.075 1307.49 343.35 1307.84 343.49Z" stroke="#427ADB" stroke-width="0.71" stroke-linecap="round" stroke-linejoin="round"/>
<path d="M1306.92 342.705L1300.91 339.237L1307.75 340.872" stroke="#427ADB" stroke-width="0.71" stroke-linecap="round" stroke-linejoin="round"/>
<path d="M1309.01 343.512L1315.66 345.1L1309.71 341.681" stroke="#427ADB" stroke-width="0.71" stroke-linecap="round" stroke-linejoin="round"/>
<path d="M1402.59 389.137C1402.51 384.398 1393.75 373.121 1393.75 373.121C1393.75 373.121 1385.38 384.661 1385.46 389.401C1385.49 391.679 1386.43 393.849 1388.07 395.435C1389.7 397.021 1391.9 397.893 1394.18 397.857C1396.46 397.822 1398.63 396.884 1400.21 395.248C1401.8 393.613 1402.67 391.414 1402.64 389.136L1402.59 389.137Z" stroke="#427ADB" stroke-width="1.5" stroke-linecap="round" stroke-linejoin="round"/>
<path d="M1397.82 389.591C1397.81 388.835 1397.58 388.1 1397.15 387.479C1396.72 386.857 1396.11 386.377 1395.41 386.098C1394.71 385.82 1393.94 385.756 1393.2 385.915C1392.46 386.074 1391.79 386.448 1391.26 386.99C1390.73 387.533 1390.38 388.219 1390.25 388.962C1390.11 389.705 1390.2 390.472 1390.5 391.165C1390.8 391.859 1391.3 392.448 1391.93 392.858C1392.56 393.268 1393.31 393.481 1394.06 393.469C1395.07 393.453 1396.04 393.036 1396.75 392.309C1397.45 391.581 1397.84 390.604 1397.82 389.591Z" stroke="#427ADB" stroke-width="1.5" stroke-linecap="round" stroke-linejoin="round"/>
<path d="M1396.01 368.746C1396.01 368.285 1395.86 367.837 1395.6 367.457C1395.34 367.078 1394.97 366.785 1394.54 366.616C1394.11 366.446 1393.64 366.407 1393.19 366.504C1392.74 366.601 1392.33 366.829 1392.01 367.16C1391.69 367.49 1391.47 367.909 1391.39 368.362C1391.31 368.816 1391.36 369.283 1391.54 369.706C1391.73 370.129 1392.03 370.489 1392.42 370.739C1392.81 370.989 1393.26 371.118 1393.72 371.111C1394.34 371.102 1394.93 370.847 1395.36 370.404C1395.79 369.96 1396.02 369.364 1396.01 368.746Z" fill="#427ADB"/>
<path d="M1481.21 372.414C1481.21 372.414 1506.78 375.021 1528.97 400.242" stroke="#427ADB" stroke-width="1.1" stroke-miterlimit="10" stroke-dasharray="5.52 5.52"/>
<path d="M1433.56 379.559C1425.21 388.179 1425.3 406.089 1440.49 413.016" stroke="#427ADB" stroke-width="1.1" stroke-miterlimit="10" stroke-dasharray="5.52 5.52"/>
<path d="M1611.91 428.089C1611.91 428.089 1618.85 409.2 1617.25 394.752" stroke="#427ADB" stroke-width="1.1" stroke-miterlimit="10" stroke-dasharray="5.52 5.52"/>
<path d="M1579.05 275.107C1576.97 263.417 1584.46 245.9 1598.62 236.381" stroke="#427ADB" stroke-width="1.1" stroke-miterlimit="10" stroke-dasharray="5.52 5.52"/>
<path d="M1228.7 392.855C1221.28 382.968 1213.73 365.022 1220.83 353.891" stroke="#427ADB" stroke-width="1.1" stroke-miterlimit="10" stroke-dasharray="5.52 5.52"/>
<path d="M1489.79 387.974C1489.78 387.705 1489.7 387.442 1489.55 387.22C1489.39 386.999 1489.18 386.828 1488.93 386.729C1488.67 386.631 1488.4 386.609 1488.14 386.667C1487.87 386.726 1487.63 386.861 1487.45 387.056C1487.26 387.251 1487.13 387.497 1487.09 387.763C1487.04 388.029 1487.08 388.302 1487.19 388.549C1487.3 388.795 1487.48 389.004 1487.71 389.147C1487.93 389.291 1488.2 389.363 1488.47 389.355C1488.83 389.344 1489.17 389.193 1489.41 388.935C1489.66 388.677 1489.79 388.332 1489.79 387.974Z" stroke="#427ADB" stroke-width="0.71" stroke-miterlimit="10"/>
<path d="M1503.71 397.471C1503.69 396.623 1503.43 395.798 1502.95 395.099C1502.46 394.401 1501.79 393.862 1501 393.549C1500.21 393.237 1499.34 393.165 1498.52 393.343C1497.69 393.522 1496.93 393.942 1496.34 394.551C1495.75 395.16 1495.35 395.931 1495.2 396.765C1495.04 397.6 1495.14 398.461 1495.48 399.24C1495.82 400.019 1496.38 400.68 1497.09 401.141C1497.8 401.601 1498.63 401.84 1499.48 401.827C1500.62 401.809 1501.7 401.341 1502.5 400.524C1503.29 399.707 1503.72 398.609 1503.71 397.471Z" stroke="#427ADB" stroke-width="0.71" stroke-miterlimit="10"/>
<path d="M1349.3 374.536C1349.3 374.081 1349.16 373.638 1348.9 373.264C1348.64 372.89 1348.27 372.6 1347.85 372.433C1347.43 372.265 1346.97 372.227 1346.52 372.322C1346.08 372.418 1345.67 372.643 1345.35 372.97C1345.04 373.297 1344.82 373.71 1344.74 374.157C1344.66 374.605 1344.71 375.066 1344.89 375.484C1345.07 375.901 1345.37 376.256 1345.76 376.503C1346.14 376.75 1346.59 376.878 1347.04 376.871C1347.65 376.861 1348.23 376.61 1348.66 376.172C1349.08 375.734 1349.31 375.146 1349.3 374.536Z" stroke="#427ADB" stroke-width="0.71" stroke-miterlimit="10"/>
<path d="M1338.49 354.68C1340.12 354.655 1341.46 355.955 1341.48 357.584C1341.51 359.213 1340.21 360.554 1338.58 360.579C1336.95 360.604 1335.61 359.304 1335.58 357.675C1335.56 356.046 1336.86 354.705 1338.49 354.68Z" stroke="#427ADB" stroke-width="0.71" stroke-miterlimit="10"/>
<path d="M1598.88 356.571C1598.87 356.175 1598.75 355.791 1598.52 355.465C1598.3 355.14 1597.98 354.888 1597.62 354.742C1597.25 354.597 1596.85 354.563 1596.46 354.646C1596.07 354.73 1595.72 354.926 1595.44 355.209C1595.17 355.493 1594.98 355.853 1594.91 356.242C1594.84 356.631 1594.89 357.032 1595.04 357.395C1595.2 357.759 1595.46 358.067 1595.79 358.282C1596.13 358.496 1596.51 358.608 1596.91 358.602C1597.44 358.593 1597.95 358.375 1598.31 357.994C1598.68 357.613 1598.89 357.101 1598.88 356.571Z" stroke="#427ADB" stroke-width="0.71" stroke-miterlimit="10"/>
<path d="M1598.23 399.596C1598.22 398.75 1597.97 397.924 1597.49 397.224C1597.02 396.524 1596.35 395.981 1595.56 395.664C1594.78 395.346 1593.92 395.269 1593.09 395.442C1592.26 395.615 1591.5 396.03 1590.91 396.635C1590.32 397.24 1589.92 398.007 1589.76 398.839C1589.61 399.671 1589.7 400.53 1590.04 401.307C1590.37 402.085 1590.93 402.746 1591.64 403.206C1592.35 403.666 1593.18 403.905 1594.03 403.892C1595.15 403.874 1596.22 403.413 1597.01 402.609C1597.8 401.805 1598.24 400.722 1598.23 399.596Z" stroke="#427ADB" stroke-width="0.71" stroke-miterlimit="10"/>
<path d="M1611.65 269.044C1612.56 269.03 1613.3 269.753 1613.32 270.658C1613.33 271.564 1612.61 272.309 1611.7 272.323C1610.8 272.337 1610.05 271.614 1610.04 270.709C1610.02 269.803 1610.75 269.058 1611.65 269.044Z" stroke="#427ADB" stroke-width="0.71" stroke-miterlimit="10"/>
<path d="M1568.12 256.752C1568.11 255.942 1567.85 255.153 1567.39 254.486C1566.93 253.818 1566.28 253.303 1565.53 253.004C1564.78 252.705 1563.95 252.637 1563.16 252.807C1562.36 252.978 1561.64 253.379 1561.08 253.961C1560.51 254.544 1560.13 255.28 1559.99 256.078C1559.84 256.875 1559.93 257.698 1560.26 258.443C1560.58 259.187 1561.11 259.819 1561.79 260.259C1562.47 260.699 1563.27 260.928 1564.08 260.915C1565.17 260.898 1566.21 260.45 1566.96 259.67C1567.72 258.889 1568.14 257.84 1568.12 256.752Z" stroke="#427ADB" stroke-width="0.71" stroke-miterlimit="10"/>
<path d="M1566.53 238.875C1566.53 238.479 1566.4 238.095 1566.18 237.769C1565.95 237.444 1565.64 237.192 1565.27 237.046C1564.9 236.901 1564.5 236.867 1564.11 236.95C1563.73 237.034 1563.37 237.229 1563.1 237.513C1562.82 237.797 1562.64 238.157 1562.57 238.546C1562.49 238.935 1562.54 239.336 1562.7 239.699C1562.85 240.063 1563.12 240.371 1563.45 240.586C1563.78 240.8 1564.17 240.912 1564.56 240.905C1565.09 240.897 1565.6 240.679 1565.97 240.298C1566.34 239.917 1566.54 239.405 1566.53 238.875Z" stroke="#427ADB" stroke-width="0.71" stroke-miterlimit="10"/>
<path d="M1208.61 405.596C1208.6 405.076 1208.44 404.57 1208.14 404.142C1207.85 403.714 1207.43 403.383 1206.95 403.191C1206.46 403 1205.93 402.956 1205.42 403.065C1204.92 403.175 1204.45 403.432 1204.09 403.806C1203.73 404.179 1203.48 404.651 1203.39 405.163C1203.3 405.675 1203.36 406.203 1203.56 406.68C1203.77 407.158 1204.11 407.563 1204.55 407.845C1204.99 408.128 1205.5 408.274 1206.02 408.266C1206.71 408.255 1207.38 407.968 1207.86 407.467C1208.35 406.967 1208.62 406.293 1208.61 405.596Z" stroke="#427ADB" stroke-width="0.71" stroke-miterlimit="10"/>
<path d="M1176.58 415.28C1183.11 415.179 1188.48 420.389 1188.58 426.917C1188.68 433.444 1183.47 438.817 1176.95 438.917C1170.42 439.018 1165.05 433.808 1164.94 427.281C1164.84 420.753 1170.05 415.38 1176.58 415.28Z" stroke="#427ADB" stroke-width="0.71" stroke-miterlimit="10"/>
<path d="M1191.51 393.387C1192.68 393.369 1193.65 394.308 1193.67 395.484C1193.69 396.661 1192.75 397.629 1191.57 397.647C1190.4 397.665 1189.43 396.726 1189.41 395.55C1189.39 394.374 1190.33 393.406 1191.51 393.387Z" stroke="#427ADB" stroke-width="0.71" stroke-miterlimit="10"/>
<path d="M1080.39 330.411C1084.02 330.355 1087.01 333.251 1087.06 336.879C1087.12 340.507 1084.22 343.494 1080.6 343.549C1076.97 343.605 1073.98 340.709 1073.93 337.081C1073.87 333.453 1076.77 330.467 1080.39 330.411Z" stroke="#427ADB" stroke-width="0.71" stroke-miterlimit="10"/>
<path d="M1086.12 361.186C1086.11 360.862 1086.01 360.547 1085.83 360.28C1085.64 360.013 1085.38 359.807 1085.08 359.687C1084.78 359.568 1084.45 359.54 1084.13 359.608C1083.82 359.676 1083.53 359.837 1083.3 360.07C1083.07 360.303 1082.92 360.597 1082.86 360.917C1082.81 361.236 1082.84 361.565 1082.97 361.863C1083.1 362.16 1083.32 362.413 1083.59 362.589C1083.86 362.765 1084.18 362.856 1084.5 362.851C1084.94 362.845 1085.35 362.666 1085.66 362.353C1085.96 362.041 1086.12 361.621 1086.12 361.186Z" stroke="#427ADB" stroke-width="0.71" stroke-miterlimit="10"/>
<path d="M1098.95 341.946C1098.95 341.622 1098.85 341.307 1098.66 341.04C1098.48 340.773 1098.22 340.567 1097.92 340.447C1097.62 340.328 1097.29 340.3 1096.97 340.368C1096.65 340.436 1096.36 340.597 1096.14 340.83C1095.91 341.063 1095.76 341.357 1095.7 341.677C1095.64 341.996 1095.68 342.325 1095.81 342.623C1095.94 342.92 1096.15 343.173 1096.42 343.349C1096.7 343.525 1097.01 343.616 1097.34 343.611C1097.77 343.605 1098.19 343.426 1098.49 343.113C1098.79 342.801 1098.96 342.381 1098.95 341.946Z" stroke="#427ADB" stroke-width="0.71" stroke-miterlimit="10"/>
<path d="M1204.64 361.001C1204.63 360.35 1204.43 359.717 1204.06 359.181C1203.69 358.646 1203.17 358.232 1202.56 357.993C1201.95 357.753 1201.29 357.699 1200.66 357.836C1200.02 357.974 1199.44 358.297 1198.98 358.765C1198.53 359.234 1198.23 359.825 1198.11 360.466C1198 361.107 1198.07 361.768 1198.33 362.365C1198.59 362.962 1199.02 363.468 1199.57 363.82C1200.12 364.172 1200.76 364.354 1201.41 364.342C1201.84 364.335 1202.27 364.243 1202.66 364.072C1203.06 363.9 1203.42 363.652 1203.72 363.342C1204.02 363.031 1204.25 362.665 1204.41 362.263C1204.57 361.862 1204.65 361.433 1204.64 361.001Z" stroke="#427ADB" stroke-width="0.71" stroke-miterlimit="10"/>
<path d="M1462.58 354.079C1462.58 353.56 1462.41 353.056 1462.12 352.628C1461.83 352.201 1461.41 351.87 1460.93 351.678C1460.45 351.485 1459.92 351.439 1459.41 351.546C1458.9 351.653 1458.44 351.908 1458.08 352.278C1457.71 352.649 1457.47 353.119 1457.37 353.628C1457.27 354.138 1457.33 354.665 1457.53 355.143C1457.73 355.621 1458.07 356.029 1458.51 356.315C1458.94 356.601 1459.45 356.752 1459.96 356.75C1460.31 356.75 1460.66 356.68 1460.98 356.546C1461.3 356.411 1461.59 356.213 1461.84 355.964C1462.08 355.716 1462.27 355.421 1462.4 355.097C1462.53 354.774 1462.59 354.428 1462.58 354.079Z" stroke="#427ADB" stroke-width="0.71" stroke-miterlimit="10"/>
<path d="M1321.7 176.026C1355.2 178.119 1380.72 204.881 1390.5 227.566" stroke="#427ADB" stroke-width="1.1" stroke-miterlimit="10" stroke-dasharray="5.52 5.52"/>
<path d="M1190.54 309.214C1184.87 290.72 1184.86 270.953 1190.51 252.453C1196.3 234.148 1208.23 217.683 1224.32 207.204C1239.84 197.05 1261.47 193.061 1276.71 203.698C1281.21 206.84 1285.08 211.465 1285.71 216.921C1286.6 224.598 1280.17 232.089 1272.52 233.167C1264.87 234.245 1257 229.574 1253.56 222.663C1250.11 215.752 1250.83 207.219 1254.56 200.445C1258.13 193.961 1278.44 180.474 1306.95 176.67" stroke="#427ADB" stroke-width="1.1" stroke-miterlimit="10" stroke-dasharray="5.52 5.52"/>
<path d="M1149.71 313.926C1137.98 305.901 1128.35 295.183 1121.62 282.67C1117.75 275.462 1114.83 267.402 1115.57 259.236C1116.3 251.07 1121.31 242.927 1129.15 240.49C1133.82 239.044 1139.77 240.253 1142 244.6C1144.1 248.676 1142.08 253.925 1138.46 256.805C1134.85 259.685 1130.17 260.65 1125.63 261.278C1109.57 263.364 1093.25 262.023 1077.75 257.345C1062.25 252.667 1047.91 244.758 1035.69 234.138C1028.05 227.417 1020.9 218.473 1021.54 208.356C1021.83 203.109 1024.34 198.157 1027.43 193.915C1041.73 174.349 1095.96 184.42 1101.43 160.898C1105.24 144.471 1085.67 132.144 1072.68 128.795C1037.52 119.719 1000.22 122.691 964 125.202" stroke="#427ADB" stroke-width="1.1" stroke-miterlimit="10" stroke-dasharray="5.52 5.52"/>
<path d="M1673.62 97.3076C1653.92 128.892 1565.45 172.073 1476.56 167.728C1426.24 165.25 1402.93 135.305 1422.2 113.477C1436.57 97.1904 1475.53 93.0038 1471.26 132.202C1466.05 179.885 1418.57 233.477 1387.28 253.777" stroke="#427ADB" stroke-width="1.1" stroke-miterlimit="10" stroke-dasharray="5.52 5.52"/>
<path d="M1164.75 252.102C1164.75 252.102 1174.3 232.889 1175.2 230.836C1176.39 228.157 1173.14 226.345 1171.54 228.872C1170.06 231.242 1162.07 248.058 1161.08 250.52C1160.96 250.763 1160.89 251.03 1160.87 251.303C1160.85 251.576 1160.89 251.849 1160.98 252.106C1161.08 252.364 1161.22 252.599 1161.41 252.799C1161.6 252.998 1161.82 253.157 1162.07 253.265C1162.32 253.373 1162.59 253.429 1162.87 253.429C1163.14 253.428 1163.41 253.372 1163.66 253.263C1163.91 253.154 1164.14 252.995 1164.33 252.795C1164.51 252.595 1164.66 252.359 1164.75 252.102Z" stroke="#427ADB" stroke-width="0.71" stroke-miterlimit="10"/>
<path d="M1171.13 239.618C1171.13 239.618 1180.06 241.257 1181.54 241.623C1183.01 241.989 1182.39 243.114 1181.4 243.27C1177.14 243.96 1168.7 244.243 1168.7 244.243" stroke="#427ADB" stroke-width="0.71" stroke-miterlimit="10"/>
<path d="M1166.89 237.917C1166.89 237.917 1160.06 231.932 1158.85 231.009C1157.64 230.086 1157.16 231.26 1157.65 232.148C1159.76 235.902 1164.78 242.699 1164.78 242.699" stroke="#427ADB" stroke-width="0.71" stroke-miterlimit="10"/>
<path d="M1174.28 232.756L1177.8 232.389C1178.72 232.31 1179.18 231.187 1178 230.837C1176.5 230.405 1175.43 230.113 1175.43 230.113" stroke="#427ADB" stroke-width="0.71" stroke-miterlimit="10"/>
<path d="M1170.38 230.994C1170.38 230.994 1168.84 228.554 1168.47 227.993C1167.96 227.219 1168.55 226.164 1169.56 226.871C1170.83 227.774 1171.73 228.436 1171.73 228.436" stroke="#427ADB" stroke-width="0.71" stroke-miterlimit="10"/>
<path d="M1583 125.133C1583 125.133 1611.97 133.072 1615.05 133.735C1619.02 134.595 1620.67 129.689 1616.76 128.184C1613.09 126.782 1587.83 120.358 1584.21 119.598C1583.84 119.519 1583.47 119.512 1583.1 119.578C1582.74 119.644 1582.39 119.781 1582.07 119.982C1581.76 120.183 1581.49 120.444 1581.28 120.749C1581.07 121.055 1580.92 121.399 1580.84 121.763C1580.76 122.126 1580.75 122.502 1580.82 122.868C1580.88 123.234 1581.02 123.583 1581.22 123.896C1581.42 124.209 1581.68 124.479 1581.99 124.692C1582.29 124.904 1582.64 125.054 1583 125.133Z" stroke="#427ADB" stroke-width="0.99" stroke-miterlimit="10"/>
<path d="M1601.9 130.514C1601.9 130.514 1602.09 143.228 1601.94 145.324C1601.79 147.419 1600.13 146.908 1599.65 145.573C1597.54 139.954 1594.82 128.457 1594.82 128.457" stroke="#427ADB" stroke-width="0.99" stroke-miterlimit="10"/>
<path d="M1603.07 124.249C1603.07 124.249 1609.45 113.226 1610.39 111.319C1611.34 109.411 1609.6 109.052 1608.51 109.975C1603.91 113.896 1595.97 122.616 1595.97 122.616" stroke="#427ADB" stroke-width="0.99" stroke-miterlimit="10"/>
<path d="M1612.17 133.002C1612.17 133.002 1613.35 136.825 1613.64 137.783C1614 139.033 1615.67 139.365 1615.83 137.636C1616.02 135.451 1616.13 133.91 1616.13 133.91" stroke="#427ADB" stroke-width="0.99" stroke-miterlimit="10"/>
<path d="M1613.53 127.158C1613.53 127.158 1616.47 124.376 1617.13 123.722C1618.06 122.814 1619.68 123.343 1619.01 124.911C1618.12 126.893 1617.45 128.313 1617.45 128.313" stroke="#427ADB" stroke-width="0.99" stroke-miterlimit="10"/>
<path d="M1379.33 178.066L1397.26 173.935C1397.26 173.935 1389.59 165.857 1379.33 178.066Z" stroke="#427ADB" stroke-width="0.71" stroke-miterlimit="10"/>
<path d="M1418.12 202.034C1418.12 202.034 1409.16 182.694 1397.25 173.916C1407.54 176.524 1419.18 193.807 1421.51 199.411L1418.12 202.034Z" stroke="#427ADB" stroke-width="0.71" stroke-miterlimit="10"/>
<path d="M1397.25 173.916C1397.25 173.916 1389.41 169.437 1393.33 160.92C1394.96 165.15 1396.26 169.493 1397.25 173.916Z" stroke="#427ADB" stroke-width="0.71" stroke-miterlimit="10"/>
<path d="M1402.69 155.976L1397.29 173.902C1397.29 173.902 1393.34 160.591 1402.69 155.976Z" stroke="#427ADB" stroke-width="0.71" stroke-miterlimit="10"/>
<path d="M1397.25 173.916C1397.25 173.916 1385.57 177.424 1387.2 187.351C1392.7 180.511 1397.25 173.916 1397.25 173.916Z" stroke="#427ADB" stroke-width="0.71" stroke-miterlimit="10"/>
<path d="M1399.47 188.379L1397.25 173.915C1397.25 173.915 1392.09 187.192 1399.47 188.379Z" stroke="#427ADB" stroke-width="0.71" stroke-miterlimit="10"/>
<path d="M1411.21 169.156L1397.25 173.916C1397.25 173.916 1405.21 162.014 1411.21 169.156Z" stroke="#427ADB" stroke-width="0.71" stroke-miterlimit="10"/>
<path d="M1420.57 197.728C1423.27 196.39 1426.27 195.746 1429.29 195.854L1412.48 208.838C1413.13 205.548 1414.76 202.53 1417.15 200.178" stroke="#427ADB" stroke-width="0.71" stroke-miterlimit="10"/>
<path d="M1074.76 230.696C1075.27 237.864 1081.49 243.262 1088.66 242.754C1095.83 242.246 1101.22 236.024 1100.72 228.856C1100.21 221.689 1093.99 216.291 1086.82 216.799C1079.65 217.307 1074.25 223.529 1074.76 230.696Z" stroke="#427ADB" stroke-width="0.71" stroke-linecap="round" stroke-linejoin="round"/>
<path d="M1078.5 227.656C1077.33 232.739 1080.51 237.801 1085.59 238.964C1090.67 240.126 1095.74 236.949 1096.9 231.866C1098.06 226.784 1094.88 221.722 1089.8 220.559C1084.72 219.396 1079.66 222.574 1078.5 227.656Z" stroke="#427ADB" stroke-width="0.71" stroke-linecap="round" stroke-linejoin="round"/>
<path d="M1086.81 230.88C1086.6 230.695 1086.45 230.452 1086.38 230.182C1086.3 229.911 1086.31 229.625 1086.4 229.359C1086.49 229.093 1086.65 228.858 1086.87 228.684C1087.09 228.51 1087.35 228.404 1087.63 228.38C1087.91 228.356 1088.19 228.415 1088.44 228.549C1088.69 228.683 1088.89 228.886 1089.02 229.134C1089.15 229.381 1089.21 229.662 1089.18 229.941C1089.15 230.22 1089.05 230.485 1088.87 230.703C1088.75 230.853 1088.6 230.977 1088.43 231.068C1088.26 231.158 1088.07 231.213 1087.88 231.23C1087.69 231.246 1087.49 231.224 1087.31 231.164C1087.13 231.104 1086.96 231.007 1086.81 230.88Z" stroke="#427ADB" stroke-width="0.71" stroke-linecap="round" stroke-linejoin="round"/>
<path d="M1087.94 231.313L1093.81 235.006L1089.16 229.722" stroke="#427ADB" stroke-width="0.71" stroke-linecap="round" stroke-linejoin="round"/>
<path d="M1086.24 229.85L1081.72 224.722L1087.53 228.375" stroke="#427ADB" stroke-width="0.71" stroke-linecap="round" stroke-linejoin="round"/>
<path d="M1372.26 122.941C1373.08 130.08 1379.54 135.2 1386.68 134.379C1393.81 133.557 1398.93 127.105 1398.11 119.966C1397.29 112.828 1390.84 107.708 1383.7 108.529C1376.56 109.351 1371.44 115.803 1372.26 122.941Z" stroke="#427ADB" stroke-width="0.71" stroke-linecap="round" stroke-linejoin="round"/>
<path d="M1391.51 128.484C1390.12 129.73 1388.39 130.535 1386.54 130.797C1384.69 131.059 1382.8 130.767 1381.12 129.957C1379.44 129.147 1378.03 127.856 1377.08 126.248C1376.13 124.639 1375.68 122.785 1375.79 120.92C1375.89 119.056 1376.55 117.264 1377.67 115.772C1378.79 114.28 1380.33 113.155 1382.1 112.538C1383.86 111.922 1385.77 111.843 1387.58 112.311C1389.38 112.779 1391.01 113.772 1392.26 115.166C1393.92 117.032 1394.78 119.483 1394.64 121.98C1394.5 124.477 1393.37 126.816 1391.51 128.484Z" stroke="#427ADB" stroke-width="0.71" stroke-linecap="round" stroke-linejoin="round"/>
<path d="M1386.15 122.526C1385.94 122.715 1385.68 122.837 1385.4 122.876C1385.12 122.916 1384.83 122.872 1384.58 122.75C1384.32 122.627 1384.11 122.432 1383.96 122.188C1383.82 121.945 1383.75 121.664 1383.77 121.382C1383.78 121.099 1383.88 120.828 1384.05 120.602C1384.22 120.376 1384.45 120.205 1384.72 120.111C1384.99 120.018 1385.28 120.005 1385.55 120.076C1385.82 120.146 1386.07 120.296 1386.26 120.507C1386.51 120.789 1386.64 121.161 1386.62 121.54C1386.6 121.918 1386.43 122.273 1386.15 122.526Z" stroke="#427ADB" stroke-width="0.71" stroke-linecap="round" stroke-linejoin="round"/>
<path d="M1386.74 121.472L1391.2 116.148L1385.33 120.036" stroke="#427ADB" stroke-width="0.71" stroke-linecap="round" stroke-linejoin="round"/>
<path d="M1385.06 122.949L1379.36 126.724L1383.77 121.471" stroke="#427ADB" stroke-width="0.71" stroke-linecap="round" stroke-linejoin="round"/>
<path d="M1312.86 197.949C1311.3 193.473 1315.65 179.872 1315.65 179.872C1315.65 179.872 1327.47 187.835 1329.03 192.311C1329.78 194.463 1329.65 196.824 1328.66 198.875C1327.66 200.926 1325.9 202.5 1323.75 203.25C1321.6 204 1319.24 203.864 1317.18 202.873C1315.13 201.882 1313.56 200.117 1312.81 197.966L1312.86 197.949Z" stroke="#427ADB" stroke-width="1.5" stroke-linecap="round" stroke-linejoin="round"/>
<path d="M1317.49 196.738C1317.24 196.025 1317.21 195.254 1317.4 194.522C1317.59 193.791 1317.99 193.132 1318.55 192.63C1319.12 192.127 1319.82 191.803 1320.57 191.698C1321.31 191.593 1322.08 191.713 1322.76 192.041C1323.44 192.37 1324 192.893 1324.39 193.544C1324.77 194.196 1324.95 194.946 1324.91 195.7C1324.87 196.454 1324.6 197.179 1324.14 197.782C1323.69 198.385 1323.07 198.84 1322.35 199.088C1321.4 199.422 1320.35 199.361 1319.43 198.921C1318.52 198.48 1317.82 197.695 1317.49 196.738Z" stroke="#427ADB" stroke-width="1.5" stroke-linecap="round" stroke-linejoin="round"/>
<path d="M1312.03 176.541C1311.87 176.105 1311.85 175.635 1311.97 175.189C1312.09 174.743 1312.33 174.341 1312.67 174.034C1313.02 173.728 1313.45 173.53 1313.9 173.466C1314.36 173.402 1314.82 173.475 1315.24 173.676C1315.65 173.876 1316 174.195 1316.23 174.592C1316.47 174.99 1316.58 175.447 1316.55 175.907C1316.53 176.367 1316.36 176.809 1316.09 177.177C1315.81 177.545 1315.43 177.822 1314.99 177.974C1314.41 178.177 1313.77 178.141 1313.21 177.872C1312.66 177.603 1312.23 177.124 1312.03 176.541Z" fill="#427ADB"/>
<path d="M1233.28 209.261C1233.28 209.261 1210.16 220.496 1197.98 251.807" stroke="#427ADB" stroke-width="1.1" stroke-miterlimit="10" stroke-dasharray="5.52 5.52"/>
<path d="M1280.48 199.598C1291.28 204.825 1297.35 221.674 1285.47 233.398" stroke="#427ADB" stroke-width="1.1" stroke-miterlimit="10" stroke-dasharray="5.52 5.52"/>
<path d="M1129.66 306.457C1129.66 306.457 1116.66 291.103 1113.2 276.985" stroke="#427ADB" stroke-width="1.1" stroke-miterlimit="10" stroke-dasharray="5.52 5.52"/>
<path d="M1107.95 151.499C1105.89 139.807 1092.84 125.93 1076.27 121.855" stroke="#427ADB" stroke-width="1.1" stroke-miterlimit="10" stroke-dasharray="5.52 5.52"/>
<path d="M1477.43 141.691C1481 129.856 1481.93 110.409 1471.43 102.396" stroke="#427ADB" stroke-width="1.1" stroke-miterlimit="10" stroke-dasharray="5.52 5.52"/>
<path d="M1230.56 226.822C1230.48 226.567 1230.47 226.292 1230.53 226.03C1230.6 225.769 1230.75 225.535 1230.95 225.356C1231.15 225.177 1231.4 225.062 1231.67 225.026C1231.94 224.991 1232.21 225.035 1232.45 225.154C1232.69 225.273 1232.89 225.462 1233.03 225.696C1233.16 225.929 1233.22 226.198 1233.21 226.467C1233.19 226.736 1233.09 226.994 1232.92 227.207C1232.76 227.421 1232.53 227.58 1232.28 227.665C1231.94 227.778 1231.57 227.752 1231.25 227.594C1230.93 227.437 1230.68 227.159 1230.56 226.822Z" stroke="#427ADB" stroke-width="0.71" stroke-miterlimit="10"/>
<path d="M1220.76 240.523C1220.48 239.722 1220.44 238.856 1220.66 238.034C1220.87 237.213 1221.32 236.473 1221.95 235.909C1222.59 235.344 1223.37 234.98 1224.22 234.862C1225.06 234.745 1225.91 234.879 1226.68 235.248C1227.44 235.617 1228.08 236.204 1228.51 236.936C1228.94 237.667 1229.14 238.51 1229.09 239.357C1229.04 240.204 1228.75 241.017 1228.23 241.695C1227.72 242.372 1227.02 242.883 1226.22 243.162C1225.15 243.536 1223.97 243.469 1222.94 242.974C1221.92 242.479 1221.13 241.597 1220.76 240.523Z" stroke="#427ADB" stroke-width="0.71" stroke-miterlimit="10"/>
<path d="M1357.88 165.929C1357.73 165.499 1357.71 165.035 1357.82 164.594C1357.94 164.154 1358.18 163.757 1358.52 163.455C1358.86 163.152 1359.28 162.957 1359.73 162.894C1360.18 162.831 1360.64 162.903 1361.05 163.101C1361.46 163.298 1361.8 163.613 1362.03 164.005C1362.26 164.397 1362.37 164.849 1362.35 165.303C1362.32 165.757 1362.16 166.194 1361.89 166.557C1361.61 166.92 1361.24 167.194 1360.81 167.343C1360.23 167.544 1359.6 167.508 1359.05 167.243C1358.5 166.977 1358.08 166.505 1357.88 165.929Z" stroke="#427ADB" stroke-width="0.71" stroke-miterlimit="10"/>
<path d="M1361.21 143.565C1359.67 144.101 1358.86 145.783 1359.4 147.321C1359.93 148.86 1361.62 149.672 1363.15 149.136C1364.69 148.6 1365.5 146.918 1364.97 145.38C1364.43 143.841 1362.75 143.029 1361.21 143.565Z" stroke="#427ADB" stroke-width="0.71" stroke-miterlimit="10"/>
<path d="M1117.33 234.816C1117.2 234.442 1117.18 234.039 1117.28 233.656C1117.38 233.273 1117.59 232.928 1117.89 232.665C1118.18 232.401 1118.55 232.232 1118.94 232.177C1119.33 232.122 1119.73 232.185 1120.09 232.357C1120.44 232.529 1120.74 232.803 1120.94 233.144C1121.14 233.485 1121.24 233.877 1121.21 234.272C1121.19 234.667 1121.05 235.046 1120.81 235.362C1120.57 235.678 1120.25 235.916 1119.87 236.046C1119.37 236.221 1118.82 236.189 1118.35 235.958C1117.87 235.728 1117.5 235.317 1117.33 234.816Z" stroke="#427ADB" stroke-width="0.71" stroke-miterlimit="10"/>
<path d="M1132.72 274.999C1132.43 274.202 1132.39 273.339 1132.6 272.518C1132.8 271.697 1133.25 270.956 1133.88 270.388C1134.5 269.821 1135.29 269.453 1136.12 269.33C1136.96 269.208 1137.81 269.338 1138.58 269.702C1139.34 270.067 1139.98 270.65 1140.41 271.378C1140.84 272.105 1141.05 272.945 1141 273.79C1140.96 274.635 1140.66 275.447 1140.15 276.123C1139.64 276.799 1138.94 277.309 1138.14 277.588C1137.08 277.958 1135.92 277.894 1134.9 277.409C1133.88 276.924 1133.1 276.058 1132.72 274.999Z" stroke="#427ADB" stroke-width="0.71" stroke-miterlimit="10"/>
<path d="M1075.26 157.008C1074.4 157.306 1073.95 158.241 1074.25 159.096C1074.54 159.951 1075.48 160.403 1076.34 160.105C1077.19 159.807 1077.64 158.872 1077.34 158.017C1077.05 157.161 1076.11 156.71 1075.26 157.008Z" stroke="#427ADB" stroke-width="0.71" stroke-miterlimit="10"/>
<path d="M1111.92 130.506C1111.65 129.74 1111.61 128.912 1111.82 128.127C1112.02 127.342 1112.45 126.635 1113.06 126.096C1113.66 125.556 1114.42 125.208 1115.22 125.096C1116.02 124.983 1116.84 125.112 1117.57 125.464C1118.3 125.817 1118.91 126.379 1119.32 127.078C1119.73 127.776 1119.93 128.582 1119.88 129.391C1119.83 130.201 1119.55 130.978 1119.06 131.626C1118.57 132.273 1117.9 132.761 1117.14 133.028C1116.11 133.386 1114.98 133.321 1114 132.848C1113.02 132.375 1112.27 131.532 1111.92 130.506Z" stroke="#427ADB" stroke-width="0.71" stroke-miterlimit="10"/>
<path d="M1107.26 113.172C1107.13 112.798 1107.11 112.395 1107.21 112.012C1107.31 111.629 1107.52 111.284 1107.82 111.021C1108.11 110.757 1108.48 110.588 1108.87 110.533C1109.26 110.478 1109.66 110.541 1110.02 110.713C1110.38 110.885 1110.67 111.159 1110.87 111.5C1111.07 111.84 1111.17 112.233 1111.15 112.628C1111.12 113.023 1110.98 113.402 1110.75 113.718C1110.51 114.034 1110.18 114.272 1109.81 114.402C1109.31 114.577 1108.76 114.545 1108.28 114.314C1107.8 114.084 1107.44 113.673 1107.26 113.172Z" stroke="#427ADB" stroke-width="0.71" stroke-miterlimit="10"/>
<path d="M1500.68 146.751C1500.51 146.26 1500.49 145.729 1500.62 145.225C1500.75 144.722 1501.03 144.268 1501.41 143.922C1501.8 143.576 1502.29 143.353 1502.8 143.281C1503.32 143.209 1503.84 143.291 1504.31 143.517C1504.78 143.743 1505.17 144.103 1505.43 144.552C1505.7 145 1505.82 145.517 1505.79 146.036C1505.76 146.555 1505.58 147.054 1505.26 147.469C1504.95 147.885 1504.52 148.198 1504.03 148.369C1503.37 148.598 1502.65 148.557 1502.02 148.253C1501.39 147.95 1500.91 147.41 1500.68 146.751Z" stroke="#427ADB" stroke-width="0.71" stroke-miterlimit="10"/>
<path d="M1534.08 144.841C1527.92 146.989 1524.66 153.728 1526.81 159.892C1528.96 166.057 1535.7 169.312 1541.86 167.164C1548.03 165.015 1551.28 158.276 1549.14 152.112C1546.99 145.948 1540.25 142.692 1534.08 144.841Z" stroke="#427ADB" stroke-width="0.71" stroke-miterlimit="10"/>
<path d="M1512.55 129.41C1511.43 129.797 1510.85 131.011 1511.24 132.122C1511.62 133.233 1512.84 133.82 1513.95 133.432C1515.06 133.045 1515.65 131.831 1515.26 130.72C1514.87 129.609 1513.66 129.023 1512.55 129.41Z" stroke="#427ADB" stroke-width="0.71" stroke-miterlimit="10"/>
<path d="M1595.25 32.0876C1591.83 33.2818 1590.02 37.0275 1591.21 40.4539C1592.41 43.8803 1596.15 45.6898 1599.58 44.4956C1603 43.3014 1604.81 39.5556 1603.62 36.1293C1602.42 32.7029 1598.68 30.8934 1595.25 32.0876Z" stroke="#427ADB" stroke-width="0.71" stroke-miterlimit="10"/>
<path d="M1600.45 62.9559C1600.34 62.6496 1600.33 62.3186 1600.41 62.0046C1600.49 61.6906 1600.67 61.4078 1600.91 61.192C1601.15 60.9761 1601.45 60.8369 1601.77 60.792C1602.09 60.747 1602.42 60.7984 1602.71 60.9395C1603 61.0805 1603.25 61.3051 1603.41 61.5847C1603.58 61.8642 1603.66 62.1863 1603.64 62.5101C1603.62 62.834 1603.5 63.145 1603.31 63.4039C1603.11 63.6629 1602.85 63.8581 1602.54 63.9648C1602.13 64.108 1601.68 64.0821 1601.29 63.8929C1600.89 63.7037 1600.59 63.3666 1600.45 62.9559Z" stroke="#427ADB" stroke-width="0.71" stroke-miterlimit="10"/>
<path d="M1581.79 49.2982C1581.68 48.9919 1581.67 48.6608 1581.75 48.3469C1581.83 48.0329 1582 47.7501 1582.24 47.5343C1582.49 47.3184 1582.79 47.1792 1583.11 47.1343C1583.43 47.0893 1583.76 47.1406 1584.05 47.2817C1584.34 47.4228 1584.58 47.6474 1584.75 47.9269C1584.91 48.2065 1584.99 48.5286 1584.97 48.8524C1584.95 49.1763 1584.84 49.4873 1584.64 49.7462C1584.45 50.0052 1584.18 50.2003 1583.88 50.3071C1583.46 50.4502 1583.01 50.4244 1582.62 50.2352C1582.23 50.046 1581.93 49.7089 1581.79 49.2982Z" stroke="#427ADB" stroke-width="0.71" stroke-miterlimit="10"/>
<path d="M1489.08 103.509C1488.87 102.894 1488.84 102.229 1489 101.599C1489.17 100.969 1489.52 100.401 1490 99.9683C1490.49 99.5354 1491.09 99.2565 1491.74 99.167C1492.38 99.0775 1493.04 99.1814 1493.63 99.4655C1494.21 99.7497 1494.7 100.201 1495.03 100.763C1495.36 101.325 1495.51 101.972 1495.47 102.622C1495.43 103.272 1495.2 103.896 1494.81 104.414C1494.42 104.933 1493.88 105.323 1493.26 105.536C1492.86 105.678 1492.42 105.738 1491.99 105.713C1491.56 105.688 1491.14 105.578 1490.75 105.39C1490.36 105.201 1490.02 104.938 1489.73 104.616C1489.44 104.293 1489.22 103.917 1489.08 103.509Z" stroke="#427ADB" stroke-width="0.71" stroke-miterlimit="10"/>
<path d="M1244.47 185.643C1244.3 185.153 1244.27 184.623 1244.4 184.121C1244.53 183.618 1244.81 183.165 1245.2 182.819C1245.58 182.473 1246.06 182.248 1246.58 182.174C1247.09 182.1 1247.61 182.18 1248.08 182.403C1248.55 182.626 1248.94 182.982 1249.21 183.428C1249.47 183.873 1249.6 184.387 1249.58 184.906C1249.55 185.424 1249.37 185.923 1249.07 186.34C1248.76 186.758 1248.33 187.074 1247.84 187.251C1247.52 187.37 1247.17 187.424 1246.82 187.407C1246.47 187.391 1246.13 187.305 1245.82 187.156C1245.5 187.006 1245.22 186.795 1244.99 186.535C1244.76 186.275 1244.58 185.972 1244.47 185.643Z" stroke="#427ADB" stroke-width="0.71" stroke-miterlimit="10"/>
<g clip-path="url(#clip1_5584_84875)">
<path d="M1130.74 26.6957L1070.27 11.3952C1069.95 11.3139 1069.6 11.3612 1069.33 11.555C1068.74 11.9786 1068.75 12.7966 1069.23 13.2348L1081.41 24.3988L1081.41 24.4033L1079.16 47.1283C1079.08 47.9166 1079.89 48.5333 1080.63 48.2458L1096.88 41.943L1096.88 41.9428L1096.89 41.9441L1105.29 49.7831C1105.69 50.1568 1106.33 50.168 1106.74 49.8087L1120.74 37.6504C1120.95 37.4606 1121.08 37.1948 1121.1 36.9104C1121.12 36.626 1121.02 36.346 1120.83 36.1309C1120.65 35.9158 1120.38 35.7829 1120.1 35.761C1119.82 35.739 1119.53 35.8298 1119.32 36.0138L1106.06 47.5293L1106.06 47.5306L1106.05 47.5292L1089.29 31.8961C1089.29 31.893 1089.29 31.8874 1089.3 31.8869L1127.29 29.0718C1127.3 29.0714 1127.3 29.0778 1127.3 29.081L1123.34 32.5221C1122.89 32.9133 1122.79 33.6031 1123.17 34.0632C1123.27 34.1748 1123.38 34.2668 1123.51 34.3339C1123.64 34.4009 1123.78 34.4416 1123.92 34.4536C1124.06 34.4656 1124.21 34.4486 1124.35 34.4037C1124.48 34.3587 1124.61 34.2867 1124.72 34.1918L1131.2 28.5667C1131.24 28.5313 1131.28 28.4916 1131.31 28.4503C1131.83 27.8442 1131.51 26.8894 1130.74 26.6957ZM1095.12 40.2938L1095.12 40.296L1095.12 40.2987L1095.12 40.301L1095.12 40.3026L1082.18 45.3191L1082.18 45.3193L1082.17 45.3178L1082.17 45.3152L1082.17 45.3122L1087.15 32.8696C1087.15 32.8662 1087.15 32.8653 1087.16 32.8677L1095.12 40.2938ZM1116.2 27.7199L1086.65 29.909C1086.24 29.9397 1085.88 30.2075 1085.73 30.5875L1082.08 39.6937C1082.08 39.6993 1082.07 39.6972 1082.07 39.6913L1083.52 25.137L1083.52 25.135L1083.52 25.1334L1083.52 25.1325L1083.52 25.1323L1116.2 27.7093C1116.21 27.7097 1116.21 27.7192 1116.2 27.7199ZM1117.76 25.6575L1083 22.9167L1083 22.9154L1073.88 14.555C1073.87 14.5513 1073.88 14.5446 1073.88 14.5459L1117.76 25.6472C1117.77 25.6488 1117.77 25.6581 1117.76 25.6575Z" fill="#5084DD"/>
</g>
<path d="M1078.52 47.6542C1066.73 53.9332 1043.7 62.5401 1045.9 46.7353C1048.66 26.9792 1077.15 23.3035 1073.47 38.9247C1069.79 54.5458 1021.55 94.5179 1007.77 90.3829" stroke="#5084DD" stroke-width="2" stroke-linecap="round" stroke-dasharray="4 4"/>
<path d="M422.176 559.467C387.993 529.946 355.947 488.991 351.682 444.01C349.322 419.521 364.186 401.572 380.102 406.535C396.018 411.497 402.116 440.592 389.437 459.382C379.192 474.588 365.988 477.338 353.502 475.069C341.016 472.801 329.9 465.204 321.544 455.661C300.542 431.712 285.891 383.225 273.001 358.591C261.448 336.512 230.145 328.028 212.806 345.155C195.466 362.282 199.454 420.562 206.363 450.457" stroke="#245CBC" stroke-width="1.1" stroke-miterlimit="10" stroke-dasharray="5.52 5.52"/>
<path d="M115.195 358.736C119.184 360.037 123.237 361.443 127.39 363.021C186.85 385.639 132.518 443.468 126.091 456.818" stroke="#245CBC" stroke-width="1.1" stroke-miterlimit="10" stroke-dasharray="5.52 5.52"/>
<path d="M-0.385742 187C-6.83757 204.761 -5.62345 276.844 19.7051 305.856C46.1463 336.111 69.4323 344.723 94.6283 352.418" stroke="#245CBC" stroke-width="1.1" stroke-miterlimit="10" stroke-dasharray="5.52 5.52"/>
<path d="M115.812 376.401C115.812 376.401 89.0501 385.194 86.2859 386.28C82.7428 387.666 83.9935 392.347 87.83 391.498C91.4198 390.719 114.512 382.638 117.731 381.376C118.058 381.25 118.357 381.061 118.61 380.819C118.864 380.578 119.067 380.289 119.209 379.969C119.351 379.649 119.429 379.304 119.437 378.954C119.446 378.604 119.385 378.256 119.259 377.929C119.133 377.602 118.944 377.304 118.703 377.05C118.461 376.796 118.172 376.593 117.852 376.451C117.532 376.309 117.187 376.232 116.837 376.223C116.487 376.214 116.139 376.275 115.812 376.401Z" stroke="#245CBC" stroke-width="0.78" stroke-miterlimit="10"/>
<path d="M98.26 381.976C98.26 381.976 91.5786 372.123 90.5208 370.392C89.4629 368.661 91.1198 368.213 92.1953 369.006C96.7726 372.35 104.838 379.966 104.838 379.966" stroke="#245CBC" stroke-width="0.78" stroke-miterlimit="10"/>
<path d="M100.575 387.5C100.575 387.5 101.299 399.41 101.544 401.393C101.789 403.376 103.349 402.745 103.69 401.456C105.26 396.017 106.969 385.054 106.969 385.054" stroke="#245CBC" stroke-width="0.78" stroke-miterlimit="10"/>
<path d="M88.9259 385.358C88.9259 385.358 85.9893 382.96 85.3268 382.397C84.3905 381.608 82.918 382.211 83.707 383.654C84.6744 385.444 85.3998 386.73 85.3998 386.73" stroke="#245CBC" stroke-width="0.78" stroke-miterlimit="10"/>
<path d="M90.8866 390.644C90.8866 390.644 90.0276 394.332 89.852 395.181C89.591 396.385 88.0759 396.806 87.7919 395.197C87.4605 393.188 87.2518 391.709 87.2518 391.709" stroke="#245CBC" stroke-width="0.78" stroke-miterlimit="10"/>
<path d="M260.247 376.534C260.247 376.534 245.439 361.026 243.802 359.484C241.679 357.497 238.871 359.89 240.712 362.257C242.427 364.462 255.533 377.684 257.474 379.485C257.865 379.853 258.387 380.05 258.923 380.033C259.46 380.017 259.968 379.788 260.336 379.396C260.704 379.005 260.901 378.483 260.884 377.947C260.868 377.41 260.639 376.902 260.247 376.534Z" stroke="#245CBC" stroke-width="0.71" stroke-miterlimit="10"/>
<path d="M250.649 366.333C250.649 366.333 255.224 358.498 256.081 357.221C256.938 355.945 257.765 356.915 257.6 357.866C256.789 362.106 254.194 370.141 254.194 370.141" stroke="#245CBC" stroke-width="0.71" stroke-miterlimit="10"/>
<path d="M247.609 369.736C247.609 369.736 239.661 374.129 238.381 374.944C237.101 375.759 238.037 376.623 239.04 376.462C243.293 375.758 251.388 373.349 251.388 373.349" stroke="#245CBC" stroke-width="0.71" stroke-miterlimit="10"/>
<path d="M245.264 361.027C245.264 361.027 245.954 358.224 246.12 357.578C246.36 356.68 245.467 355.866 244.727 356.867C243.815 358.12 243.174 359.043 243.174 359.043" stroke="#245CBC" stroke-width="0.71" stroke-miterlimit="10"/>
<path d="M242.274 364.104C242.274 364.104 239.459 364.723 238.819 364.875C237.913 365.088 237.125 364.156 238.123 363.494C239.399 362.612 240.328 361.985 240.328 361.985" stroke="#245CBC" stroke-width="0.71" stroke-miterlimit="10"/>
<path d="M519.604 449.012C510.324 449.224 505.121 475.456 505.121 475.456L535.258 474.787C535.258 474.787 528.88 448.81 519.604 449.012Z" stroke="#245CBC" stroke-width="0.71" stroke-miterlimit="10"/>
<path d="M535.257 474.787L556.096 474.321C556.096 474.321 549.427 435.642 540.151 435.844C535.153 435.949 531.404 447.34 529.026 457.781" stroke="#245CBC" stroke-width="0.71" stroke-miterlimit="10"/>
<path d="M515.85 460.032C517.478 460.777 519.404 459.976 520.851 458.896C522.298 457.815 523.605 456.425 525.152 455.442C525.759 455.047 526.416 454.737 527.107 454.522C524.932 451.252 522.408 448.932 519.611 448.994C516.582 449.067 514.03 451.905 511.881 455.664L511.927 455.684C513.465 456.923 514.036 459.262 515.85 460.032Z" stroke="#245CBC" stroke-width="0.71" stroke-miterlimit="10"/>
<path d="M532.599 447.293C533.216 448.065 533.588 449.005 534.175 449.798C534.436 450.219 534.803 450.564 535.239 450.798C535.675 451.033 536.165 451.149 536.66 451.135C537.129 451.015 537.563 450.786 537.927 450.466C538.291 450.147 538.575 449.747 538.755 449.297C539.106 448.396 539.579 447.548 540.161 446.776C540.467 446.402 540.897 446.151 541.373 446.07C541.849 445.988 542.338 446.082 542.751 446.333C543.128 446.745 543.409 447.235 543.575 447.769C543.677 448.068 543.842 448.342 544.06 448.571C544.278 448.801 544.543 448.98 544.836 449.097C546.065 449.478 547.101 448.19 547.849 447.117C548.083 446.771 548.326 446.429 548.597 446.098C546.196 440.212 543.342 435.775 540.183 435.846C537.024 435.918 534.289 440.623 532.144 446.752C532.31 446.92 532.462 447.1 532.599 447.293Z" stroke="#245CBC" stroke-width="0.71" stroke-miterlimit="10"/>
<path d="M252.281 423.048C245.438 416.776 223.511 432.119 223.511 432.119L245.747 452.496C245.747 452.496 259.127 429.289 252.281 423.048Z" stroke="#245CBC" stroke-width="0.71" stroke-miterlimit="10"/>
<path d="M245.747 452.496L261.092 466.613C261.092 466.613 283.049 434.075 276.205 427.803C272.522 424.426 261.948 430.041 252.987 435.95" stroke="#245CBC" stroke-width="0.71" stroke-miterlimit="10"/>
<path d="M241.942 428.416C242.593 430.082 244.544 430.834 246.328 431.059C248.112 431.284 250.014 431.179 251.829 431.536C252.536 431.679 253.222 431.915 253.867 432.238C254.562 428.373 254.344 424.945 252.281 423.048C250.048 421.014 246.228 421.261 242.086 422.523C242.377 424.526 241.186 426.563 241.942 428.416Z" stroke="#245CBC" stroke-width="0.71" stroke-miterlimit="10"/>
<path d="M262.86 430.809C262.76 431.787 262.384 432.725 262.261 433.705C262.148 434.187 262.164 434.69 262.309 435.163C262.453 435.637 262.72 436.064 263.084 436.4C263.508 436.637 263.982 436.77 264.468 436.787C264.954 436.804 265.437 436.706 265.877 436.499C266.751 436.084 267.681 435.798 268.638 435.651C269.116 435.594 269.598 435.712 269.996 435.983C270.394 436.254 270.681 436.659 270.804 437.124C270.795 437.685 270.654 438.235 270.394 438.731C270.266 439.021 270.2 439.334 270.201 439.65C270.201 439.967 270.268 440.279 270.396 440.568C271.008 441.686 272.662 441.476 273.908 441.201C274.319 441.104 274.74 441.032 275.158 440.971C277.51 435.071 278.513 429.891 276.184 427.751C273.855 425.611 268.617 427.125 262.832 430.058C262.86 430.307 262.869 430.558 262.86 430.809Z" stroke="#245CBC" stroke-width="0.71" stroke-miterlimit="10"/>
<path d="M221.947 430.684L263.223 468.527" stroke="#245CBC" stroke-width="0.71" stroke-miterlimit="10"/>
<path d="M16.9333 368.495C24.3079 364.746 27.2463 355.727 23.4965 348.353C19.7466 340.978 10.7285 338.04 3.35389 341.79C-4.02072 345.539 -6.95918 354.558 -3.20933 361.932C0.540521 369.307 9.55868 372.245 16.9333 368.495Z" stroke="#245CBC" stroke-width="0.82" stroke-linecap="round" stroke-linejoin="round"/>
<path d="M19.8114 360.094C22.5553 354.754 20.4511 348.201 15.1115 345.457C9.77189 342.713 3.21895 344.818 0.475073 350.157C-2.26881 355.497 -0.164581 362.05 5.175 364.794C10.5146 367.538 17.0675 365.433 19.8114 360.094Z" stroke="#245CBC" stroke-width="0.82" stroke-linecap="round" stroke-linejoin="round"/>
<path d="M9.74131 353.547C10.0581 353.468 10.391 353.486 10.6979 353.597C11.0048 353.708 11.2719 353.907 11.4655 354.17C11.659 354.433 11.7703 354.747 11.7852 355.073C11.8001 355.399 11.718 355.722 11.5493 356.001C11.3806 356.281 11.1329 356.504 10.8374 356.642C10.542 356.781 10.212 356.829 9.8894 356.78C9.56675 356.731 9.26587 356.587 9.0248 356.367C8.78372 356.147 8.61328 355.861 8.53504 355.544C8.43012 355.119 8.49827 354.67 8.72449 354.295C8.95071 353.921 9.31647 353.651 9.74131 353.547Z" stroke="#245CBC" stroke-width="0.82" stroke-linecap="round" stroke-linejoin="round"/>
<path d="M8.5652 354.297L1.15684 357.29L9.21903 356.519" stroke="#245CBC" stroke-width="0.82" stroke-linecap="round" stroke-linejoin="round"/>
<path d="M11.0769 353.701L18.912 352.953L11.5862 355.905" stroke="#245CBC" stroke-width="0.82" stroke-linecap="round" stroke-linejoin="round"/>
<path d="M121.523 339.271C119.667 343.644 107.306 350.782 107.306 350.782C107.306 350.782 103.853 336.932 105.708 332.559C106.149 331.521 106.79 330.579 107.595 329.789C108.399 328.998 109.352 328.373 110.397 327.951C111.443 327.528 112.562 327.316 113.69 327.325C114.818 327.335 115.933 327.567 116.972 328.008C118.01 328.449 118.952 329.09 119.742 329.894C120.533 330.699 121.157 331.651 121.58 332.697C122.003 333.743 122.215 334.862 122.205 335.99C122.196 337.118 121.964 338.233 121.523 339.271Z" stroke="#245CBC" stroke-width="1.5" stroke-linecap="round" stroke-linejoin="round"/>
<path d="M112.267 339.091C114.209 339.915 116.451 339.009 117.276 337.067C118.1 335.125 117.194 332.882 115.252 332.058C113.31 331.234 111.067 332.14 110.243 334.082C109.419 336.024 110.325 338.266 112.267 339.091Z" stroke="#245CBC" stroke-width="1.5" stroke-linecap="round" stroke-linejoin="round"/>
<path d="M104.696 356.93C105.881 357.433 107.249 356.88 107.751 355.695C108.254 354.511 107.701 353.143 106.517 352.64C105.332 352.138 103.965 352.69 103.462 353.875C102.959 355.059 103.512 356.427 104.696 356.93Z" fill="#245CBC"/>
<path d="M195.14 360.85C197.638 350.46 207.402 330.271 225.607 325.591" stroke="#245CBC" stroke-width="1.1" stroke-miterlimit="10" stroke-dasharray="5.52 5.52"/>
<path d="M237.704 324.707C237.704 324.707 253.942 326.352 263.392 332.753" stroke="#245CBC" stroke-width="1.1" stroke-miterlimit="10" stroke-dasharray="5.52 5.52"/>
<path d="M363.344 426.95C365.78 418.652 374.793 411.288 383.54 422.725" stroke="#245CBC" stroke-width="1.1" stroke-miterlimit="10" stroke-dasharray="5.52 5.52"/>
<path d="M18.6299 284.944C18.6299 284.944 30.1707 309.711 52.2878 322.357" stroke="#245CBC" stroke-width="1.1" stroke-miterlimit="10" stroke-dasharray="5.52 5.52"/>
<path d="M470.889 456.647C470.57 457.392 470.038 458.027 469.359 458.47C468.681 458.913 467.886 459.144 467.075 459.136C466.265 459.127 465.475 458.879 464.806 458.422C464.137 457.965 463.618 457.319 463.315 456.568C463.013 455.816 462.939 454.991 463.105 454.198C463.271 453.404 463.668 452.678 464.247 452.11C464.825 451.542 465.559 451.159 466.355 451.008C467.151 450.857 467.974 450.945 468.72 451.262C469.217 451.473 469.667 451.779 470.045 452.164C470.422 452.549 470.72 453.004 470.922 453.505C471.123 454.005 471.224 454.54 471.218 455.079C471.213 455.618 471.101 456.151 470.889 456.647Z" stroke="#245CBC" stroke-width="0.71" stroke-miterlimit="10"/>
<path d="M334.243 448.395C335.077 448.749 336.039 448.36 336.393 447.526C336.747 446.692 336.358 445.729 335.524 445.375C334.691 445.021 333.728 445.411 333.374 446.244C333.02 447.078 333.409 448.041 334.243 448.395Z" stroke="#245CBC" stroke-width="0.71" stroke-miterlimit="10"/>
<path d="M322.34 434.435C324.679 435.428 327.379 434.337 328.372 431.998C329.364 429.659 328.273 426.959 325.935 425.966C323.596 424.974 320.896 426.065 319.903 428.404C318.91 430.742 320.002 433.443 322.34 434.435Z" stroke="#245CBC" stroke-width="0.71" stroke-miterlimit="10"/>
<path d="M407.855 409.384C407.7 409.748 407.441 410.058 407.11 410.275C406.78 410.492 406.392 410.606 405.996 410.602C405.601 410.599 405.215 410.478 404.888 410.256C404.561 410.033 404.308 409.718 404.159 409.352C404.011 408.985 403.975 408.582 404.056 408.195C404.136 407.808 404.33 407.453 404.612 407.176C404.894 406.899 405.252 406.711 405.641 406.638C406.029 406.564 406.431 406.607 406.795 406.761C407.283 406.969 407.669 407.361 407.868 407.853C408.067 408.345 408.062 408.896 407.855 409.384Z" stroke="#245CBC" stroke-width="0.71" stroke-miterlimit="10"/>
<path d="M288.896 342.665C288.657 343.234 288.254 343.719 287.738 344.059C287.223 344.399 286.618 344.579 286.001 344.575C285.383 344.571 284.781 344.384 284.27 344.038C283.758 343.691 283.362 343.201 283.129 342.629C282.897 342.056 282.84 341.428 282.965 340.823C283.09 340.219 283.391 339.665 283.832 339.232C284.272 338.798 284.83 338.505 285.437 338.39C286.044 338.275 286.671 338.342 287.239 338.583C287.999 338.906 288.601 339.516 288.911 340.281C289.222 341.047 289.216 341.904 288.896 342.665Z" stroke="#245CBC" stroke-width="0.71" stroke-miterlimit="10"/>
<path d="M285.97 321.814C285.83 322.144 285.595 322.425 285.295 322.621C284.995 322.818 284.644 322.92 284.285 322.917C283.927 322.913 283.578 322.803 283.282 322.601C282.986 322.399 282.757 322.113 282.624 321.78C282.49 321.448 282.459 321.083 282.533 320.732C282.607 320.382 282.784 320.061 283.04 319.811C283.297 319.561 283.622 319.392 283.975 319.327C284.327 319.262 284.691 319.303 285.02 319.445C285.238 319.537 285.436 319.672 285.602 319.842C285.768 320.011 285.899 320.212 285.988 320.432C286.076 320.652 286.12 320.888 286.117 321.125C286.114 321.362 286.064 321.596 285.97 321.814Z" stroke="#245CBC" stroke-width="0.71" stroke-miterlimit="10"/>
<path d="M176.542 356.14C179.043 357.202 181.932 356.035 182.993 353.534C184.055 351.032 182.888 348.144 180.386 347.082C177.885 346.021 174.997 347.188 173.935 349.689C172.874 352.19 174.041 355.079 176.542 356.14Z" stroke="#245CBC" stroke-width="0.71" stroke-miterlimit="10"/>
<path d="M183.548 332.9C183.384 333.288 183.108 333.619 182.755 333.85C182.403 334.081 181.99 334.202 181.569 334.198C181.148 334.195 180.737 334.066 180.389 333.829C180.041 333.592 179.77 333.257 179.613 332.866C179.455 332.476 179.416 332.047 179.502 331.635C179.588 331.222 179.794 330.844 180.095 330.549C180.395 330.254 180.776 330.054 181.19 329.976C181.604 329.897 182.032 329.943 182.42 330.108C182.94 330.328 183.351 330.746 183.562 331.27C183.774 331.794 183.769 332.38 183.548 332.9Z" stroke="#245CBC" stroke-width="0.71" stroke-miterlimit="10"/>
<path d="M221.812 401.567C221.597 402.075 221.235 402.507 220.774 402.81C220.312 403.113 219.771 403.272 219.22 403.267C218.668 403.262 218.13 403.094 217.674 402.783C217.218 402.473 216.864 402.034 216.657 401.522C216.45 401.011 216.4 400.449 216.512 399.909C216.625 399.369 216.895 398.874 217.288 398.487C217.682 398.1 218.181 397.839 218.723 397.736C219.265 397.633 219.826 397.693 220.334 397.909C221.015 398.198 221.553 398.746 221.831 399.432C222.108 400.118 222.101 400.886 221.812 401.567Z" stroke="#245CBC" stroke-width="0.71" stroke-miterlimit="10"/>
<path d="M191.254 396.267C191.076 396.686 190.778 397.043 190.398 397.292C190.017 397.541 189.571 397.672 189.117 397.668C188.662 397.665 188.218 397.526 187.842 397.27C187.466 397.014 187.175 396.652 187.004 396.23C186.834 395.808 186.792 395.346 186.885 394.9C186.977 394.455 187.2 394.047 187.524 393.728C187.849 393.409 188.261 393.194 188.707 393.109C189.154 393.024 189.616 393.074 190.035 393.251C190.597 393.49 191.041 393.941 191.269 394.507C191.498 395.072 191.492 395.706 191.254 396.267Z" stroke="#245CBC" stroke-width="0.71" stroke-miterlimit="10"/>
<path d="M137.024 409.89C136.605 410.876 135.903 411.717 135.007 412.305C134.11 412.892 133.06 413.201 131.988 413.192C130.916 413.183 129.871 412.856 128.985 412.252C128.098 411.649 127.411 410.797 127.01 409.803C126.608 408.809 126.51 407.718 126.728 406.669C126.947 405.619 127.471 404.658 128.236 403.906C129 403.155 129.97 402.647 131.024 402.447C132.077 402.247 133.166 402.364 134.152 402.783C135.476 403.344 136.521 404.409 137.06 405.741C137.599 407.074 137.586 408.566 137.024 409.89Z" stroke="#245CBC" stroke-width="0.71" stroke-miterlimit="10"/>
<path d="M-14.7001 310.995C-8.69094 313.546 -1.752 310.742 0.798438 304.733C3.34887 298.724 0.545011 291.785 -5.46416 289.234C-11.4733 286.684 -18.4123 289.488 -20.9627 295.497C-23.5131 301.506 -20.7093 308.445 -14.7001 310.995Z" stroke="#245CBC" stroke-width="0.71" stroke-miterlimit="10"/>
<path d="M11.7408 313.513C11.5252 314.021 11.1639 314.454 10.7024 314.756C10.2409 315.059 9.70013 315.218 9.14834 315.213C8.59655 315.208 8.05857 315.04 7.60243 314.729C7.1463 314.419 6.7925 313.98 6.58577 313.468C6.37903 312.957 6.32866 312.395 6.44101 311.855C6.55336 311.315 6.82338 310.82 7.21694 310.433C7.6105 310.046 8.10993 309.785 8.65205 309.682C9.19417 309.579 9.75464 309.639 10.2626 309.855C10.9437 310.144 11.4821 310.692 11.7594 311.378C12.0366 312.064 12.0299 312.832 11.7408 313.513Z" stroke="#245CBC" stroke-width="0.71" stroke-miterlimit="10"/>
<path d="M32.6997 252.657C33.9503 253.188 35.3945 252.605 35.9253 251.354C36.4561 250.103 35.8725 248.659 34.6219 248.128C33.3713 247.598 31.9271 248.181 31.3963 249.432C30.8655 250.682 31.4491 252.127 32.6997 252.657Z" stroke="#245CBC" stroke-width="0.71" stroke-miterlimit="10"/>
<path d="M18.7292 231.389C25.0688 234.079 32.3893 231.121 35.08 224.782C37.7707 218.442 34.8127 211.121 28.473 208.431C22.1334 205.74 14.8129 208.698 12.1222 215.038C9.43153 221.377 12.3896 228.698 18.7292 231.389Z" stroke="#245CBC" stroke-width="0.71" stroke-miterlimit="10"/>
<path d="M88.6324 319.187C90.0508 319.789 91.6886 319.128 92.2906 317.709C92.8926 316.291 92.2308 314.653 90.8124 314.051C89.394 313.449 87.7561 314.111 87.1541 315.529C86.5521 316.948 87.2139 318.585 88.6324 319.187Z" stroke="#245CBC" stroke-width="0.71" stroke-miterlimit="10"/>
</g>
<defs>
<clipPath id="clip0_5584_84875">
<rect width="1920" height="450" fill="white"/>
</clipPath>
<clipPath id="clip1_5584_84875">
<rect width="73.8465" height="73.8465" fill="white" transform="translate(1060.8 9) rotate(14.198)"/>
</clipPath>
</defs>
</svg>
