<svg width="22" height="22" viewBox="0 0 22 22" fill="none" xmlns="http://www.w3.org/2000/svg">
    <mask id="path-1-inside-1_6015_94410" fill="white">
        <path fill-rule="evenodd" clip-rule="evenodd"
            d="M7 2C4.23858 2 2 4.23857 2 7V14.6171C2 17.3785 4.23857 19.6171 7 19.6171H11.7764C10.6344 18.4979 9.92578 16.9381 9.92578 15.2128C9.92578 11.8075 12.6864 9.04688 16.0918 9.04688C17.4026 9.04688 18.618 9.45594 19.6171 10.1534V7C19.6171 4.23858 17.3785 2 14.6171 2H7Z" />
    </mask>
    <path
        d="M11.7764 19.6171V21.1171H15.4502L12.8263 18.5457L11.7764 19.6171ZM19.6171 10.1534L18.7584 11.3833L21.1171 13.0298V10.1534H19.6171ZM3.5 7C3.5 5.067 5.067 3.5 7 3.5V0.5C3.41015 0.5 0.5 3.41015 0.5 7H3.5ZM3.5 14.6171V7H0.5V14.6171H3.5ZM7 18.1171C5.067 18.1171 3.5 16.5501 3.5 14.6171H0.5C0.5 18.2069 3.41015 21.1171 7 21.1171V18.1171ZM11.7764 18.1171H7V21.1171H11.7764V18.1171ZM12.8263 18.5457C11.9603 17.6971 11.4258 16.5187 11.4258 15.2128H8.42578C8.42578 17.3575 9.30847 19.2988 10.7266 20.6884L12.8263 18.5457ZM11.4258 15.2128C11.4258 12.6359 13.5148 10.5469 16.0918 10.5469V7.54688C11.858 7.54688 8.42578 10.979 8.42578 15.2128H11.4258ZM16.0918 10.5469C17.0857 10.5469 18.003 10.856 18.7584 11.3833L20.4757 8.92344C19.2329 8.0559 17.7195 7.54688 16.0918 7.54688V10.5469ZM18.1171 7V10.1534H21.1171V7H18.1171ZM14.6171 3.5C16.5501 3.5 18.1171 5.067 18.1171 7H21.1171C21.1171 3.41015 18.2069 0.5 14.6171 0.5V3.5ZM7 3.5H14.6171V0.5H7V3.5Z"
        fill="currentColor" mask="url(#path-1-inside-1_6015_94410)" />
    <path
        d="M12.3538 18.9499C11.8631 18.4591 11.4738 17.8765 11.2082 17.2353C10.9426 16.594 10.8059 15.9068 10.8059 15.2127C10.8059 14.5187 10.9426 13.8314 11.2082 13.1902C11.4738 12.549 11.8631 11.9664 12.3538 11.4756C12.8446 10.9848 13.4272 10.5955 14.0685 10.3299C14.7097 10.0643 15.3969 9.92761 16.091 9.92761C16.785 9.92761 17.4723 10.0643 18.1135 10.3299C18.7547 10.5955 19.3374 10.9848 19.8281 11.4756L16.091 15.2127L12.3538 18.9499Z"
        fill="currentColor" />
</svg>