<svg width="178" height="178" viewBox="0 0 178 178" fill="none" xmlns="http://www.w3.org/2000/svg">
<path d="M133.327 11.8223L26.397 17.9134L-0.382812 102.98L46.5122 155.138L156.407 143.903L174.728 73.6041L133.327 11.8223Z" fill="#E0F2FE"/>
<path d="M170.1 61.2617H145.392C144.376 61.2617 143.553 62.0853 143.553 63.1013C143.553 64.1173 144.376 64.941 145.392 64.941H170.1C171.116 64.941 171.939 64.1173 171.939 63.1013C171.939 62.0853 171.116 61.2617 170.1 61.2617Z" fill="#C8E9FF" stroke="#C8E9FF" stroke-width="1.375" stroke-miterlimit="10"/>
<path d="M24.9705 34.5762H1.61697C0.600975 34.5762 -0.222656 35.3998 -0.222656 36.4158C-0.222656 37.4318 0.600975 38.2554 1.61697 38.2554H24.9705C25.9865 38.2554 26.8102 37.4318 26.8102 36.4158C26.8102 35.3998 25.9865 34.5762 24.9705 34.5762Z" fill="#C8E9FF" stroke="#C8E9FF" stroke-width="1.375" stroke-miterlimit="10"/>
<path d="M10.2554 125.564C11.9336 125.564 13.2941 124.203 13.2941 122.525C13.2941 120.847 11.9336 119.486 10.2554 119.486C8.57724 119.486 7.2168 120.847 7.2168 122.525C7.2168 124.203 8.57724 125.564 10.2554 125.564Z" fill="#C8E9FF" stroke="#C8E9FF" stroke-width="1.375" stroke-miterlimit="10"/>
<path d="M-0.382812 75.4499C-0.382812 75.4499 0.43824 66.2528 6.14504 66.2528C11.4749 66.2528 12.8715 75.4499 10.6293 75.4499C8.38718 75.4499 9.07264 70.168 12.327 70.168C15.5813 70.168 15.9571 75.4499 15.9571 75.4499H39.08M177.197 37.6932C177.197 37.6932 176.349 28.7321 170.878 28.7321C165.407 28.7321 162.2 37.6932 166.916 37.6932C171.631 37.6932 169.982 28.4961 164.275 28.4961C158.945 28.4961 157.554 37.6932 159.791 37.6932C162.028 37.6932 161.348 32.4113 158.093 32.4113C154.839 32.4113 154.463 37.6932 154.463 37.6932H131.337" stroke="#C8E9FF" stroke-width="2.475" stroke-linecap="round" stroke-linejoin="round"/>
<path d="M113.098 103.506C113.485 103.506 113.799 103.192 113.799 102.805C113.799 102.418 113.485 102.104 113.098 102.104C112.711 102.104 112.396 102.418 112.396 102.805C112.396 103.192 112.711 103.506 113.098 103.506Z" fill="#C8E9FF" stroke="#C8E9FF" stroke-width="1.375" stroke-miterlimit="10"/>
<path d="M105.178 139.321C105.565 139.321 105.88 139.007 105.88 138.619C105.88 138.232 105.565 137.918 105.178 137.918C104.791 137.918 104.477 138.232 104.477 138.619C104.477 139.007 104.791 139.321 105.178 139.321Z" fill="#C8E9FF" stroke="#C8E9FF" stroke-width="1.375" stroke-miterlimit="10"/>
<path d="M22.8089 18.6139C23.1963 18.6139 23.5104 18.2998 23.5104 17.9124C23.5104 17.525 23.1963 17.2109 22.8089 17.2109C22.4215 17.2109 22.1074 17.525 22.1074 17.9124C22.1074 18.2998 22.4215 18.6139 22.8089 18.6139Z" fill="#C8E9FF" stroke="#C8E9FF" stroke-width="1.375" stroke-miterlimit="10"/>
<path d="M146.475 92.108C146.862 92.108 147.176 91.794 147.176 91.4065C147.176 91.0191 146.862 90.7051 146.475 90.7051C146.087 90.7051 145.773 91.0191 145.773 91.4065C145.773 91.794 146.087 92.108 146.475 92.108Z" fill="#C8E9FF" stroke="#C8E9FF" stroke-width="1.375" stroke-miterlimit="10"/>
<path d="M113.068 136.599C114.515 136.599 115.687 135.427 115.687 133.98C115.687 132.534 114.515 131.361 113.068 131.361C111.622 131.361 110.449 132.534 110.449 133.98C110.449 135.427 111.622 136.599 113.068 136.599Z" fill="#C8E9FF" stroke="#C8E9FF" stroke-width="1.375" stroke-miterlimit="10"/>
<path d="M34.3761 63.3909C35.5525 63.3909 36.5062 62.4373 36.5062 61.2609C36.5062 60.0845 35.5525 59.1309 34.3761 59.1309C33.1997 59.1309 32.2461 60.0845 32.2461 61.2609C32.2461 62.4373 33.1997 63.3909 34.3761 63.3909Z" fill="#C8E9FF" stroke="#C8E9FF" stroke-width="1.375" stroke-miterlimit="10"/>
<path d="M174.728 102.778C175.904 102.778 176.858 101.824 176.858 100.648C176.858 99.4712 175.904 98.5176 174.728 98.5176C173.551 98.5176 172.598 99.4712 172.598 100.648C172.598 101.824 173.551 102.778 174.728 102.778Z" fill="#C8E9FF" stroke="#C8E9FF" stroke-width="1.375" stroke-miterlimit="10"/>
<path d="M64.6313 65.8737C64.9847 62.4571 71.2233 61.7535 74.1658 61.9884C77.1084 62.2233 111.363 69.4035 111.363 69.4035L122.663 71.6456L121.062 62.8169H133.427C134.595 65.7434 135.679 68.6241 136.322 70.2331C137.735 73.765 140.265 91.069 141.855 94.9533C143.445 98.8375 177.196 129.554 177.196 129.554L153.305 157.808C153.305 157.808 118.428 119.318 115.722 118.494C113.017 117.669 76.5222 71.4086 72.0539 71.289C67.5856 71.1694 64.2779 69.2871 64.6313 65.8737Z" fill="#FED1C3"/>
<path d="M73.1169 71.7447C72.6642 71.4543 72.3023 71.2952 72.0492 71.2878C71.2565 71.2707 70.4665 71.1878 69.6875 71.04L71.9649 61.9818C72.6995 61.9337 73.4364 61.9359 74.1707 61.9882C74.5103 62.0159 75.2662 62.1355 76.3371 62.3256L73.1169 71.7447Z" fill="#FFBEAA"/>
<path d="M56.8973 123.837H106.946C112.442 123.837 116.924 119.411 117.025 113.886L118.59 28.3234C118.604 27.7128 118.496 27.1056 118.271 26.5375C118.047 25.9694 117.712 25.4516 117.286 25.0146C116.859 24.5777 116.349 24.2302 115.787 23.9926C115.224 23.755 114.62 23.632 114.009 23.6309H49.8345C49.2238 23.632 48.6194 23.755 48.0568 23.9926C47.4942 24.2302 46.9847 24.5777 46.558 25.0146C46.1314 25.4516 45.7962 25.9694 45.5721 26.5375C45.348 27.1056 45.2396 27.7128 45.2531 28.3234L46.8183 113.886C46.9187 119.411 51.4019 123.837 56.8973 123.837Z" fill="#595BD4"/>
<path d="M115.183 111.822L116.585 24.4263C115.827 23.907 114.929 23.6296 114.01 23.6309H49.8359C48.9267 23.6299 48.0381 23.9018 47.2852 24.4113L48.6635 111.822C48.7596 117.317 53.0069 121.718 58.213 121.718H105.632C110.839 121.721 115.087 117.317 115.183 111.822Z" fill="#2E90FA"/>
<path d="M52.5054 59.591H111.166C111.741 59.591 112.294 59.3665 112.705 58.9655C113.117 58.5645 113.357 58.0186 113.372 57.4439L114.16 30.4068C114.169 30.1116 114.118 29.8177 114.011 29.5425C113.904 29.2672 113.743 29.0163 113.538 28.8044C113.332 28.5925 113.086 28.4241 112.814 28.3091C112.542 28.1941 112.25 28.1348 111.954 28.1348H51.8755C51.5812 28.1347 51.2899 28.1935 51.0187 28.3076C50.7475 28.4218 50.5018 28.589 50.2962 28.7995C50.0906 29.01 49.9291 29.2596 49.8213 29.5334C49.7135 29.8072 49.6616 30.0998 49.6686 30.394L50.2996 57.4311C50.3116 58.0081 50.5493 58.5575 50.9617 58.9613C51.3741 59.3651 51.9283 59.5911 52.5054 59.591Z" fill="white"/>
<path d="M108.672 40.9395H55.2962C54.5167 40.9395 53.8848 41.5714 53.8848 42.3509V54.8877C53.8848 55.6673 54.5167 56.2992 55.2962 56.2992H108.672C109.452 56.2992 110.084 55.6673 110.084 54.8877V42.3509C110.084 41.5714 109.452 40.9395 108.672 40.9395Z" fill="#DDEDFF"/>
<path d="M93.1905 30.6992H70.7787C69.9991 30.6992 69.3672 31.3312 69.3672 32.1107V35.7216C69.3672 36.5012 69.9991 37.1331 70.7787 37.1331H93.1905C93.9701 37.1331 94.602 36.5012 94.602 35.7216V32.1107C94.602 31.3312 93.9701 30.6992 93.1905 30.6992Z" fill="#E8F3FE" stroke="#DBECFF" stroke-miterlimit="10"/>
<path d="M53.6571 75.1963H60.5416C60.758 75.1961 60.9658 75.1115 61.1209 74.9606C61.2759 74.8097 61.3661 74.6043 61.3722 74.388L61.6007 66.1764C61.6037 66.0654 61.5844 65.9549 61.544 65.8515C61.5037 65.748 61.443 65.6537 61.3656 65.5741C61.2881 65.4945 61.1956 65.4312 61.0933 65.388C60.991 65.3447 60.8811 65.3224 60.7701 65.3223H53.4286C53.3176 65.3224 53.2077 65.3447 53.1054 65.388C53.0031 65.4312 52.9105 65.4945 52.8331 65.5741C52.7557 65.6537 52.695 65.748 52.6546 65.8515C52.6142 65.9549 52.595 66.0654 52.598 66.1764L52.8264 74.388C52.8326 74.6043 52.9227 74.8097 53.0778 74.9606C53.2329 75.1115 53.4407 75.1961 53.6571 75.1963ZM66.0658 75.1963H72.9502C73.1666 75.1961 73.3744 75.1115 73.5295 74.9606C73.6846 74.8097 73.7748 74.6043 73.7809 74.388L74.0094 66.1764C74.0124 66.0654 73.9931 65.9549 73.9527 65.8515C73.9123 65.748 73.8517 65.6537 73.7742 65.5741C73.6968 65.4945 73.6042 65.4312 73.502 65.388C73.3997 65.3447 73.2898 65.3224 73.1787 65.3223H65.8373C65.7262 65.3222 65.6161 65.3445 65.5137 65.3876C65.4113 65.4308 65.3186 65.4941 65.2411 65.5737C65.1636 65.6534 65.1028 65.7477 65.0623 65.8512C65.0219 65.9547 65.0026 66.0653 65.0056 66.1764L65.2394 74.388C65.2455 74.6036 65.3351 74.8084 65.4892 74.9591C65.6434 75.1099 65.8501 75.195 66.0658 75.1963ZM78.4787 75.1963H85.3632C85.5796 75.1961 85.7874 75.1115 85.9425 74.9606C86.0976 74.8097 86.1878 74.6043 86.1939 74.388L86.4223 66.1764C86.4255 66.0654 86.4063 65.9548 86.366 65.8513C86.3257 65.7478 86.265 65.6534 86.1875 65.5738C86.1101 65.4942 86.0174 65.4309 85.9151 65.3877C85.8127 65.3445 85.7028 65.3222 85.5917 65.3223H78.2449C78.1338 65.3222 78.0238 65.3445 77.9214 65.3876C77.819 65.4308 77.7263 65.4941 77.6487 65.5737C77.5712 65.6534 77.5104 65.7477 77.4699 65.8512C77.4295 65.9547 77.4102 66.0653 77.4132 66.1764L77.6417 74.388C77.6478 74.6054 77.7389 74.8118 77.8953 74.9629C78.0518 75.114 78.2612 75.1977 78.4787 75.1963ZM90.881 75.1963H97.7655C97.982 75.1963 98.1899 75.1119 98.3451 74.9609C98.5002 74.81 98.5903 74.6044 98.5961 74.388L98.8257 66.1764C98.8287 66.0653 98.8094 65.9547 98.7689 65.8512C98.7285 65.7477 98.6677 65.6534 98.5902 65.5737C98.5126 65.4941 98.4199 65.4308 98.3175 65.3876C98.2151 65.3445 98.1051 65.3222 97.994 65.3223H90.6504C90.5393 65.3222 90.4292 65.3445 90.3268 65.3876C90.2244 65.4308 90.1317 65.4941 90.0542 65.5737C89.9767 65.6534 89.9159 65.7477 89.8754 65.8512C89.835 65.9547 89.8157 66.0653 89.8187 66.1764L90.0482 74.388C90.0541 74.6048 90.1445 74.8107 90.3001 74.9617C90.4557 75.1127 90.6642 75.1969 90.881 75.1963ZM103.289 75.1963H110.173C110.39 75.1963 110.598 75.1119 110.753 74.961C110.908 74.8101 110.999 74.6045 111.005 74.388L111.233 66.1764C111.236 66.0653 111.217 65.9547 111.177 65.8512C111.136 65.7477 111.075 65.6534 110.998 65.5737C110.92 65.4941 110.828 65.4308 110.725 65.3876C110.623 65.3445 110.513 65.3222 110.402 65.3223H103.06C102.949 65.3222 102.839 65.3445 102.737 65.3877C102.634 65.4309 102.542 65.4942 102.464 65.5738C102.387 65.6534 102.326 65.7478 102.286 65.8513C102.246 65.9548 102.226 66.0654 102.229 66.1764L102.458 74.388C102.464 74.6043 102.554 74.8097 102.709 74.9606C102.864 75.1115 103.072 75.1961 103.289 75.1963Z" fill="#DFE6FF"/>
<path d="M53.6571 88.5752H60.5416C60.758 88.575 60.9658 88.4904 61.1209 88.3395C61.2759 88.1886 61.3661 87.9832 61.3722 87.7669L61.6007 79.5553C61.6037 79.4443 61.5844 79.3338 61.544 79.2304C61.5037 79.1269 61.443 79.0326 61.3656 78.953C61.2881 78.8734 61.1956 78.8101 61.0933 78.7669C60.991 78.7236 60.8811 78.7013 60.7701 78.7012H53.4286C53.3176 78.7013 53.2077 78.7236 53.1054 78.7669C53.0031 78.8101 52.9105 78.8734 52.8331 78.953C52.7557 79.0326 52.695 79.1269 52.6546 79.2304C52.6142 79.3338 52.595 79.4443 52.598 79.5553L52.8264 87.7669C52.8326 87.9832 52.9227 88.1886 53.0778 88.3395C53.2329 88.4904 53.4407 88.575 53.6571 88.5752ZM66.0658 88.5752H72.9502C73.1666 88.575 73.3744 88.4904 73.5295 88.3395C73.6846 88.1886 73.7748 87.9832 73.7809 87.7669L74.0094 79.5553C74.0124 79.4443 73.9931 79.3338 73.9527 79.2304C73.9123 79.1269 73.8517 79.0326 73.7742 78.953C73.6968 78.8734 73.6042 78.8101 73.502 78.7669C73.3997 78.7236 73.2898 78.7013 73.1787 78.7012H65.8373C65.7262 78.7011 65.6161 78.7234 65.5137 78.7666C65.4113 78.8097 65.3186 78.873 65.2411 78.9526C65.1636 79.0323 65.1028 79.1266 65.0623 79.2301C65.0219 79.3337 65.0026 79.4442 65.0056 79.5553L65.2394 87.7669C65.2455 87.9825 65.3351 88.1873 65.4892 88.3381C65.6434 88.4888 65.8501 88.5739 66.0658 88.5752ZM78.4787 88.5752H85.3632C85.5797 88.5752 85.7876 88.4908 85.9428 88.3398C86.0979 88.1889 86.188 87.9833 86.1939 87.7669L86.4223 79.5553C86.4255 79.4443 86.4063 79.3337 86.366 79.2302C86.3257 79.1267 86.265 79.0323 86.1875 78.9527C86.1101 78.8731 86.0174 78.8098 85.9151 78.7666C85.8127 78.7234 85.7028 78.7011 85.5917 78.7012H78.2449C78.1338 78.7011 78.0238 78.7234 77.9214 78.7666C77.819 78.8097 77.7263 78.873 77.6487 78.9526C77.5712 79.0323 77.5104 79.1266 77.4699 79.2301C77.4295 79.3337 77.4102 79.4442 77.4132 79.5553L77.6417 87.7669C77.6478 87.9843 77.7389 88.1907 77.8953 88.3418C78.0518 88.4929 78.2612 88.5766 78.4787 88.5752ZM90.881 88.5752H97.7655C97.982 88.5755 98.1901 88.4912 98.3454 88.3401C98.5006 88.1891 98.5906 87.9834 98.5961 87.7669L98.8257 79.5553C98.8287 79.4442 98.8094 79.3337 98.7689 79.2301C98.7285 79.1266 98.6677 79.0323 98.5902 78.9526C98.5126 78.873 98.4199 78.8097 98.3175 78.7666C98.2151 78.7234 98.1051 78.7011 97.994 78.7012H90.6504C90.5393 78.7011 90.4292 78.7234 90.3268 78.7666C90.2244 78.8097 90.1317 78.873 90.0542 78.9526C89.9767 79.0323 89.9159 79.1266 89.8754 79.2301C89.835 79.3337 89.8157 79.4442 89.8187 79.5553L90.0482 87.7669C90.0538 87.9838 90.1441 88.1898 90.2998 88.3409C90.4554 88.492 90.6641 88.5761 90.881 88.5752ZM103.289 88.5752H110.173C110.39 88.5752 110.598 88.4908 110.753 88.3399C110.908 88.189 110.999 87.9834 111.005 87.7669L111.233 79.5553C111.236 79.4442 111.217 79.3337 111.177 79.2301C111.136 79.1266 111.075 79.0323 110.998 78.9526C110.92 78.873 110.828 78.8097 110.725 78.7666C110.623 78.7234 110.513 78.7011 110.402 78.7012H103.06C102.949 78.7011 102.839 78.7234 102.737 78.7666C102.634 78.8098 102.542 78.8731 102.464 78.9527C102.387 79.0323 102.326 79.1267 102.286 79.2302C102.246 79.3337 102.226 79.4443 102.229 79.5553L102.458 87.7669C102.464 87.9832 102.554 88.1886 102.709 88.3395C102.864 88.4904 103.072 88.575 103.289 88.5752ZM53.6571 101.955H60.5416C60.758 101.955 60.9658 101.871 61.1209 101.72C61.2759 101.569 61.3661 101.363 61.3722 101.147L61.6007 92.9356C61.6037 92.8246 61.5844 92.7141 61.544 92.6107C61.5037 92.5072 61.443 92.4129 61.3656 92.3333C61.2881 92.2537 61.1956 92.1904 61.0933 92.1471C60.991 92.1039 60.8811 92.0816 60.7701 92.0815H53.4286C53.3176 92.0816 53.2077 92.1039 53.1054 92.1471C53.0031 92.1904 52.9105 92.2537 52.8331 92.3333C52.7557 92.4129 52.695 92.5072 52.6546 92.6107C52.6142 92.7141 52.595 92.8246 52.598 92.9356L52.8264 101.147C52.8326 101.363 52.9227 101.569 53.0778 101.72C53.2329 101.871 53.4407 101.955 53.6571 101.955ZM66.0658 101.955H72.9502C73.1666 101.955 73.3744 101.871 73.5295 101.72C73.6846 101.569 73.7748 101.363 73.7809 101.147L74.0094 92.9356C74.0124 92.8246 73.9931 92.7141 73.9527 92.6107C73.9123 92.5072 73.8517 92.4129 73.7742 92.3333C73.6968 92.2537 73.6042 92.1904 73.502 92.1471C73.3997 92.1039 73.2898 92.0816 73.1787 92.0815H65.8373C65.7262 92.0814 65.6161 92.1036 65.5137 92.1468C65.4113 92.19 65.3186 92.2533 65.2411 92.3329C65.1636 92.4126 65.1028 92.5069 65.0623 92.6104C65.0219 92.7139 65.0026 92.8245 65.0056 92.9356L65.2341 101.147C65.2402 101.364 65.3305 101.569 65.4858 101.72C65.6411 101.871 65.8492 101.956 66.0658 101.955ZM78.4787 101.955H85.3632C85.5797 101.956 85.7876 101.871 85.9428 101.72C86.0979 101.569 86.188 101.364 86.1939 101.147L86.4223 92.9356C86.4255 92.8246 86.4063 92.714 86.366 92.6105C86.3257 92.507 86.265 92.4126 86.1875 92.333C86.1101 92.2534 86.0174 92.1901 85.9151 92.1469C85.8127 92.1036 85.7028 92.0814 85.5917 92.0815H78.2449C78.1338 92.0814 78.0238 92.1036 77.9214 92.1468C77.819 92.19 77.7263 92.2533 77.6487 92.3329C77.5712 92.4126 77.5104 92.5069 77.4699 92.6104C77.4295 92.7139 77.4102 92.8245 77.4132 92.9356L77.6417 101.147C77.6478 101.365 77.7389 101.571 77.8953 101.722C78.0518 101.873 78.2612 101.957 78.4787 101.955ZM90.881 101.955H97.7655C97.982 101.956 98.1901 101.871 98.3454 101.72C98.5006 101.569 98.5906 101.364 98.5961 101.147L98.8257 92.9356C98.8287 92.8245 98.8094 92.7139 98.7689 92.6104C98.7285 92.5069 98.6677 92.4126 98.5902 92.3329C98.5126 92.2533 98.4199 92.19 98.3175 92.1468C98.2151 92.1036 98.1051 92.0814 97.994 92.0815H90.6504C90.5393 92.0814 90.4292 92.1036 90.3268 92.1468C90.2244 92.19 90.1317 92.2533 90.0542 92.3329C89.9767 92.4126 89.9159 92.5069 89.8754 92.6104C89.835 92.7139 89.8157 92.8245 89.8187 92.9356L90.0482 101.147C90.0538 101.364 90.1441 101.57 90.2998 101.721C90.4554 101.872 90.6641 101.956 90.881 101.955ZM53.6571 115.336H60.5416C60.758 115.336 60.9658 115.251 61.1209 115.1C61.2759 114.949 61.3661 114.744 61.3722 114.527L61.6007 106.316C61.6037 106.205 61.5844 106.094 61.544 105.991C61.5037 105.887 61.443 105.793 61.3656 105.714C61.2881 105.634 61.1956 105.571 61.0933 105.527C60.991 105.484 60.8811 105.462 60.7701 105.462H53.4286C53.3176 105.462 53.2077 105.484 53.1054 105.527C53.0031 105.571 52.9105 105.634 52.8331 105.714C52.7557 105.793 52.695 105.887 52.6546 105.991C52.6142 106.094 52.595 106.205 52.598 106.316L52.8264 114.527C52.8326 114.744 52.9227 114.949 53.0778 115.1C53.2329 115.251 53.4407 115.336 53.6571 115.336ZM66.0658 115.336H72.9502C73.1666 115.336 73.3744 115.251 73.5295 115.1C73.6846 114.949 73.7748 114.744 73.7809 114.527L74.0094 106.316C74.0124 106.205 73.9931 106.094 73.9527 105.991C73.9123 105.887 73.8517 105.793 73.7742 105.714C73.6968 105.634 73.6042 105.571 73.502 105.527C73.3997 105.484 73.2898 105.462 73.1787 105.462H65.8373C65.7262 105.462 65.6161 105.484 65.5137 105.527C65.4113 105.57 65.3186 105.634 65.2411 105.713C65.1636 105.793 65.1028 105.887 65.0623 105.991C65.0219 106.094 65.0026 106.205 65.0056 106.316L65.2341 114.527C65.2402 114.744 65.3305 114.95 65.4858 115.1C65.6411 115.251 65.8492 115.336 66.0658 115.336ZM78.4787 115.336H85.3632C85.5796 115.336 85.7874 115.251 85.9425 115.1C86.0976 114.949 86.1878 114.744 86.1939 114.527L86.4223 106.316C86.4255 106.205 86.4063 106.094 86.366 105.991C86.3257 105.887 86.265 105.793 86.1875 105.713C86.1101 105.634 86.0174 105.57 85.9151 105.527C85.8127 105.484 85.7028 105.462 85.5917 105.462H78.2449C78.1338 105.462 78.0238 105.484 77.9214 105.527C77.819 105.57 77.7263 105.634 77.6487 105.713C77.5712 105.793 77.5104 105.887 77.4699 105.991C77.4295 106.094 77.4102 106.205 77.4132 106.316L77.6417 114.527C77.6478 114.745 77.7389 114.951 77.8953 115.102C78.0518 115.253 78.2612 115.337 78.4787 115.336ZM90.881 115.336H97.7655C97.982 115.336 98.1899 115.251 98.3451 115.1C98.5002 114.949 98.5903 114.744 98.5961 114.527L98.8257 106.316C98.8287 106.205 98.8094 106.094 98.7689 105.991C98.7285 105.887 98.6677 105.793 98.5902 105.713C98.5126 105.634 98.4199 105.57 98.3175 105.527C98.2151 105.484 98.1051 105.462 97.994 105.462H90.6504C90.5393 105.462 90.4292 105.484 90.3268 105.527C90.2244 105.57 90.1317 105.634 90.0542 105.713C89.9767 105.793 89.9159 105.887 89.8754 105.991C89.835 106.094 89.8157 106.205 89.8187 106.316L90.0482 114.527C90.0541 114.744 90.1445 114.95 90.3001 115.101C90.4557 115.252 90.6642 115.336 90.881 115.336Z" fill="#C2D8FF"/>
<path d="M103.301 115.336H110.159C110.378 115.336 110.588 115.25 110.744 115.096C110.9 114.942 110.989 114.733 110.991 114.514L111.246 92.9234C111.248 92.8133 111.227 92.7041 111.186 92.6021C111.145 92.5001 111.083 92.4073 111.006 92.329C110.929 92.2508 110.837 92.1886 110.735 92.1462C110.634 92.1038 110.525 92.082 110.415 92.082H103.048C102.938 92.0822 102.829 92.1041 102.727 92.1466C102.626 92.189 102.534 92.2512 102.457 92.3294C102.379 92.4076 102.318 92.5004 102.277 92.6024C102.236 92.7043 102.216 92.8134 102.217 92.9234L102.472 114.514C102.474 114.733 102.562 114.941 102.718 115.095C102.873 115.249 103.082 115.336 103.301 115.336Z" fill="#E8F2FF"/>
<path d="M119.956 78.3499C119.956 78.3499 113.835 84.9418 114.659 94.2414C115.439 103.037 119.073 106.602 119.073 106.602M58.1681 167.23C59.1525 164.267 64.7482 156.347 67.315 151.519C69.8817 146.691 80.9483 116.089 81.6487 112.228C82.3491 108.366 81.749 99.7549 81.6764 96.4259C81.6038 93.0968 75.5575 93.9125 73.9421 99.1026C72.3267 104.293 71.6199 110.81 70.4305 113.551C69.2411 116.291 68.4638 116.901 68.4638 116.901C68.4638 116.901 70.4411 100.672 71.2846 95.9849C72.1281 91.2978 75.6621 76.3149 75.187 72.3239C74.7119 68.3328 72.9064 67.2363 71.0807 67.2662C69.2549 67.2961 66.748 68.8528 64.8454 75.7479C62.9428 82.6431 58.2257 100.26 58.2257 100.26C58.2257 100.26 57.2819 97.2138 55.7519 95.3251C54.2219 93.4363 48.3955 94.1506 46.7545 97.4113C46.7545 97.4113 43.8984 96.4312 41.9114 97.7423C39.9245 99.0534 38.0411 102.944 38.0411 102.944C38.0411 102.944 35.4786 102.731 33.3656 104.355C31.2527 105.978 29.6074 111.975 27.4827 119.049C25.358 126.124 24.5305 138.003 25.1081 142.111C25.6858 146.22 22.8457 157.47 22.8457 157.47L58.1681 167.23Z" fill="#FED1C3"/>
<path d="M22.8438 157.472C22.8438 157.472 29.7837 164.905 39.4068 167.587C49.0299 170.269 58.1981 167.254 58.1981 167.254C58.1981 167.254 52.013 159.622 42.3899 156.944C32.7669 154.266 22.8438 157.472 22.8438 157.472Z" fill="#FFBEAA"/>
<path d="M68.1628 118.928L67.9941 122.892" stroke="#FDC6B4" stroke-width="2.475" stroke-linecap="round" stroke-linejoin="round"/>
<path d="M57.7128 101.795L56.1465 105.806" stroke="#FDC6B4" stroke-width="2.475" stroke-linecap="round" stroke-linejoin="round"/>
<path d="M46.486 98.6895C45.9778 99.9023 44.9144 104.096 44.7275 105.323ZM37.5729 104.149C37.0829 105.605 36.612 107.16 36.4668 107.83Z" fill="#FCC0AD"/>
<path d="M46.486 98.6895C45.9778 99.9023 44.9144 104.096 44.7275 105.323M37.5729 104.149C37.0829 105.605 36.612 107.16 36.4668 107.83" stroke="#FDC6B4" stroke-width="2.475" stroke-linecap="round" stroke-linejoin="round"/>
<path d="M69.5091 68.7623C69.5091 68.7623 70.6046 68.7431 71.447 68.9214C72.1581 69.072 73.2087 69.4222 73.2087 69.4222C73.5963 69.5887 73.7959 69.8492 73.7265 70.24L73.0453 74.0623C73.0209 74.2421 72.9263 74.4048 72.7823 74.515C72.6383 74.6253 72.4564 74.674 72.2766 74.6506C72.2766 74.6506 70.9516 74.294 70.422 74.231C69.9629 74.1776 68.577 73.9908 68.577 73.9908C68.4002 73.9505 68.2465 73.8419 68.1495 73.6887C68.0524 73.5354 68.02 73.35 68.0592 73.1729L68.7415 69.3506C68.8066 68.9609 69.1173 68.7677 69.5091 68.7623ZM79.8753 103.55C79.4226 103.539 79.0671 103.103 79.0799 102.577L79.208 97.4009C79.2219 96.8746 79.571 96.5575 80.0504 96.4689C80.5862 96.3756 81.1271 96.3139 81.6701 96.2841C81.6701 96.3311 81.6765 96.3792 81.6776 96.4272C81.7128 98.0213 81.8676 100.824 81.9445 103.737C81.0829 103.693 79.8753 103.55 79.8753 103.55Z" fill="white"/>
<path d="M120.782 61.2809C120.782 61.2809 118.192 57.985 115.837 51.6279C113.483 45.2709 117.721 41.6216 119.723 43.6203C121.725 45.619 127.61 51.3888 129.493 54.2149C130.518 55.7524 132.031 59.3132 133.425 62.8077H121.061L120.782 61.2809Z" fill="#FED1C3"/>
<path d="M118.762 43.7531C118.762 43.7531 118.901 43.5257 119.121 43.2129C119.347 43.3093 119.552 43.4489 119.725 43.6239C120.608 44.5069 122.246 46.1234 123.964 47.8947L123.58 48.3389C123.286 48.6464 122.759 48.6197 122.406 48.2791L118.882 44.9255C118.518 44.5859 118.518 44.1428 118.762 43.7531Z" fill="white"/>
<path d="M56.9375 47.6269C57.8284 46.89 58.6291 46.0503 59.3227 45.1253C59.3014 47.9099 59.2797 50.6944 59.2576 53.4789M61.9738 47.0642C62.3016 46.3596 62.7212 45.657 63.397 45.2673C64.0729 44.8776 65.0413 44.915 65.511 45.5332C65.8207 45.9389 65.8516 46.5048 65.716 46.997C65.5804 47.4892 65.2996 47.9259 65.022 48.3551L61.7592 53.3924C63.2115 53.2187 64.6757 53.1662 66.1367 53.2355M68.476 45.6389C68.9821 45.4713 69.4957 45.3036 70.0284 45.2801C70.5612 45.2566 71.1228 45.3987 71.4997 45.7755C72.1094 46.3841 72.0336 47.4657 71.489 48.133C70.9445 48.8003 70.0487 49.0939 69.1871 49.1302C69.785 48.748 70.6317 48.8943 71.1484 49.3822C71.6652 49.8701 71.8659 50.6303 71.7784 51.335C71.6716 52.1678 71.1623 52.9622 70.4 53.3124C69.6377 53.6626 68.6447 53.5045 68.0948 52.8703" stroke="#194185" stroke-width="2.475" stroke-linecap="round" stroke-linejoin="round"/>
<path d="M153.305 157.807C153.305 157.807 164.333 152.915 170.31 145.675C176.287 138.435 177.197 129.414 177.197 129.414C177.197 129.414 168.288 131.813 162.31 139.053C156.332 146.293 153.305 157.807 153.305 157.807Z" fill="#FFBEAA"/>
</svg>
