<svg width="25" height="25" viewBox="0 0 25 25" fill="none" xmlns="http://www.w3.org/2000/svg"><g id="Frame"><g id="Group"><path id="Vector" d="M20.7161 19.3594C20.2328 17.9209 18.3063 17.0204 16.9328 16.4168C16.3947 16.1811 14.905 15.7813 14.726 15.1038C14.6619 14.8597 14.6705 14.6295 14.7231 14.409C14.6395 14.4254 14.5546 14.4338 14.4694 14.4342H13.5744C13.231 14.4338 12.9018 14.2972 12.659 14.0544C12.4163 13.8115 12.2797 13.4823 12.2794 13.1389C12.2794 12.4254 12.8602 11.8453 13.5744 11.8453H14.4694C14.7651 11.8453 15.0454 11.9454 15.2715 12.1239C15.5932 12.0815 15.9107 12.012 16.2207 11.9161C16.6121 11.096 16.9174 10.1154 16.9858 9.27129C17.2779 5.65977 15.0639 3.54681 11.8894 3.91209C9.58132 4.17777 8.20252 5.89881 8.05348 8.11449C7.90276 10.3729 8.74012 12.0409 9.62956 13.2644C10.0191 13.7994 10.4283 14.1433 10.3654 14.7879C10.2924 15.5502 9.4774 15.7626 8.89444 15.9968C8.20372 16.2742 7.45972 16.6952 7.10836 16.8898C5.89804 17.5582 4.56964 18.3632 4.27108 19.4643C3.60988 21.9046 5.84284 22.6438 7.68628 22.9851C9.26836 23.277 11.0523 23.3 12.5196 23.3C15.1738 23.3 19.9464 23.1937 20.7161 21.1986C20.935 20.6324 20.8412 19.7302 20.7161 19.3594Z" fill="#2F3268"></path><path id="Vector_2" d="M15.0358 12.7743C14.9745 12.68 14.8907 12.6024 14.7919 12.5487C14.693 12.4949 14.5824 12.4666 14.4699 12.4664H13.5749C13.4849 12.464 13.3953 12.4797 13.3114 12.5125C13.2275 12.5453 13.151 12.5945 13.0865 12.6574C13.0219 12.7202 12.9706 12.7954 12.9356 12.8783C12.9006 12.9613 12.8825 13.0505 12.8825 13.1406C12.8825 13.2306 12.9006 13.3198 12.9356 13.4028C12.9706 13.4858 13.0219 13.5609 13.0865 13.6238C13.151 13.6866 13.2275 13.7359 13.3114 13.7687C13.3953 13.8015 13.4849 13.8171 13.5749 13.8147H14.4699C14.593 13.8146 14.7137 13.7805 14.8187 13.7162C14.9237 13.6519 15.0088 13.5598 15.0648 13.4502C16.3126 13.352 17.3979 12.9709 18.1596 12.4081C18.3346 12.5209 18.5415 12.5869 18.7647 12.5869H18.8208C18.9687 12.5869 19.1151 12.5578 19.2517 12.5012C19.3883 12.4446 19.5124 12.3616 19.6169 12.257C19.7214 12.1524 19.8043 12.0282 19.8607 11.8915C19.9172 11.7549 19.9461 11.6084 19.946 11.4606V9.21225C19.946 8.9999 19.8858 8.79189 19.7722 8.61243C19.6587 8.43297 19.4966 8.28942 19.3047 8.19849C19.1396 4.58817 16.1508 1.70001 12.5 1.70001C8.84907 1.70001 5.85987 4.58817 5.69547 8.19849C5.50343 8.28928 5.34114 8.43278 5.22752 8.61227C5.1139 8.79175 5.05362 8.99983 5.05371 9.21225V11.4606C5.05352 11.6084 5.08245 11.7547 5.13886 11.8913C5.19526 12.0279 5.27802 12.1521 5.38242 12.2567C5.48681 12.3613 5.6108 12.4443 5.74729 12.5009C5.88377 12.5576 6.03009 12.5868 6.17787 12.5869H6.23475C6.38259 12.5869 6.52896 12.5577 6.66552 12.5011C6.80208 12.4444 6.92613 12.3614 7.0306 12.2568C7.13507 12.1522 7.2179 12.0281 7.27435 11.8914C7.33081 11.7548 7.35979 11.6084 7.35963 11.4606V9.21225C7.35952 9.00286 7.30085 8.79768 7.19024 8.61989C7.07963 8.44211 6.9215 8.2988 6.73371 8.20617C6.89427 5.16417 9.41859 2.73945 12.5 2.73945C15.5801 2.73945 18.1056 5.16417 18.2655 8.20617C18.0779 8.29897 17.9199 8.44233 17.8095 8.6201C17.699 8.79786 17.6404 9.00296 17.6403 9.21225V11.4606C17.6403 11.6099 17.6693 11.7488 17.7204 11.8787C17.0648 12.3479 16.1103 12.6822 15.0358 12.7743Z" fill="#2F3268"></path></g></g></svg>