<svg width="374" height="334" viewBox="0 0 374 334" fill="none" xmlns="http://www.w3.org/2000/svg">
<path d="M155.395 81.467C162.274 77.5057 165.852 64.0647 159.033 54.2172C155.18 48.6555 148.149 44.7715 140.544 44.7715C125.293 44.8792 113.744 61.1361 121.611 74.2384C128.145 85.1289 143.376 88.3813 155.395 81.467ZM158.048 54.9009C164.525 64.2538 160.954 76.8831 154.798 80.4275C153.413 81.2245 151.959 81.8729 150.469 82.4003C131.043 77.2863 124.343 61.8091 129.661 50.9718C129.806 50.6771 130.553 49.7131 130.285 49.4269C130.12 49.2503 129.885 49.2818 129.672 49.2689C139.867 42.8127 152.293 46.5933 158.048 54.9009Z" fill="#B9E6FE"/>
<path d="M37.8108 109.311C36.5374 111.611 35.2284 114.046 35.2543 116.674C35.2891 120.201 37.7086 123.235 40.2774 125.651C49.289 134.127 61.2512 138.614 72.9611 142.605C78.9383 144.642 82.174 144.631 85.671 139.385C89.14 134.18 90.9888 127.911 90.9 121.657C90.8709 119.611 89.9754 119.52 87.1925 119.184C89.3153 113.939 91.9579 109.871 98.1587 107.782C101.143 106.778 107.257 104.133 110.107 101.063C115.945 106.328 123.452 108.924 130.72 111.426C131.61 111.789 138.338 113.584 148.087 119.618C140.015 132.297 135.411 147.123 134.792 161.682C134.782 161.93 134.86 162.01 135.377 162.708C133.962 202.762 160.284 238.193 199.226 250.695C198.148 252.463 197.713 254.934 197.102 256.838C196.397 258.997 195.808 261.18 195.324 263.397C186.972 262.52 180.555 266.572 176.554 273.913C175.257 276.343 175.245 276.842 172.101 285.819C167.464 285.5 164.442 285.196 159.502 286.514C151.143 288.703 143.603 294.282 139.056 301.328C138.591 302.068 138.034 303.161 138.569 304.134C139.15 305.114 140.57 305.335 142.216 305.591C143.828 305.853 166.085 309.474 165.671 309.406C241.833 321.906 237.783 321.303 238.749 320.811C239.811 320.291 239.811 319.419 239.556 317.992C238.036 306.387 230.378 296.604 216.289 292.139C216.39 290.969 216.448 279.621 214.207 273.51C212.697 269.374 208.854 267.555 204.701 265.921C204.904 265.564 205.09 265.201 205.283 264.841C259.555 277.792 312.926 247.639 332.083 200.373C343.604 172.093 339.699 142.77 324.114 115.518C314.781 99.3579 299.051 86.206 276.015 75.3098C270.216 72.6202 264.148 70.437 257.909 68.7843C257.906 68.5657 257.922 68.3476 257.899 68.1286C257.532 64.7024 251.924 58.5922 248.936 63.2463C247.805 65.0079 247.372 67.5515 246.741 69.4999C245.625 72.941 244.771 76.4694 244.318 79.1024C222.893 75.3085 201.995 78.7508 184.413 87.7139C187.342 81.6385 187.965 78.5264 188.476 76.9148C193.458 57.2448 181.536 35.1797 160.744 25.5888C138.057 15.1547 110.318 22.8824 98.6378 44.5802C87.8468 41.7963 74.6977 46.072 66.7181 55.675C58.5629 69.427 53.5821 86.4581 46.0448 102.471C45.2469 102.006 44.4623 101.517 43.6428 101.094C43.349 100.942 42.9861 101.058 42.8351 101.352C42.7489 101.519 42.7666 101.696 42.8361 101.856C41.2401 102.506 40.2192 104.961 37.8108 109.311ZM149.094 120.271C154.458 123.696 159.191 127.395 163.786 132.211C160.42 134.86 157.572 137.908 156.633 141.114C153.66 151.111 170.682 146.508 174.422 143.703C177.803 141.162 180.44 137.805 182.861 134.353C184.352 132.156 185.82 129.805 185.211 127.161C183.293 128.36 181.447 129.63 179.649 130.973C179.553 131.069 179.433 131.093 179.289 131.093C178.727 131.093 178.461 130.383 178.953 130.014C180.823 128.623 182.789 127.281 184.803 126.01C184.224 124.705 182.351 123.486 179.912 123.661C178.234 123.757 176.652 124.452 175.141 125.195C173.653 125.929 171.83 126.887 169.943 128.03C170.713 114.538 173.55 107.736 177.762 100.051C180.605 104.183 182.713 104.712 187.243 104.043C206.025 101.18 214.127 94.8315 221.94 93.2976C226.457 92.374 230.658 93.0764 233.465 95.2233C234.761 96.2207 235.515 97.4311 235.534 98.5713C235.66 100.663 233.553 102.406 231.968 104.057C228.072 107.953 225.858 112.996 225.535 118.942C225.47 121.073 225.906 122.685 226.866 123.868C231.563 129.689 248.9 123.648 258.664 130.731C262.244 133.449 264.498 138.059 265.557 144.821C266.086 148.375 266.437 153.496 263.396 156.927C260.991 159.694 258.041 160.162 250.847 163.865C245.774 166.475 241.358 168.705 235.713 167.803C224.889 166.264 218.553 155.882 209.652 150.175C203.605 146.307 196.939 145.277 191.812 147.418C184.575 150.445 181.937 158.515 180.164 166.787C178.581 174.319 175.999 182.37 168.869 184.976C164.86 186.456 159.867 185.838 155.511 183.313C147.613 178.886 140.979 168.184 136 161.52C136.646 147.203 141.202 132.658 149.094 120.271ZM233.327 185.131C233.351 184.795 233.639 184.555 233.974 184.579C235.326 184.683 233.545 187.023 234.526 196.95C234.588 197.822 233.44 197.89 233.327 197.214C233.185 194.357 232.743 191.122 233.327 185.131ZM201.503 196.325C207.053 201.717 200.221 212.582 205.712 218.945C207.977 221.536 211.573 222.442 214.542 223.998C218.92 226.283 222.816 231.404 221.41 236.393C219.948 241.527 211.562 247.308 203.805 246.722C199.324 246.429 195.352 244.029 193.684 240.606C192.043 237.277 191.886 232.375 187.883 230.91C182.116 228.821 177.775 236.806 170.197 227.149C154.859 207.457 191.947 187.004 201.503 196.325ZM236.784 169.144C237.29 169.196 237.524 169.158 238.042 169.162C236.26 174.158 236.843 173.983 235.892 173.983C235.581 173.887 235.389 173.551 235.461 173.239C235.839 171.853 236.296 170.493 236.784 169.144ZM236.372 208.242C236.684 208.122 237.043 208.266 237.163 208.554C238.677 212.245 240.852 215.418 243.972 217.88C244.236 218.072 244.284 218.455 244.092 218.719C243.869 218.986 243.427 218.99 243.252 218.815C240.035 216.402 237.616 212.832 236.06 209.009C235.916 208.722 236.084 208.362 236.372 208.242ZM248.958 207.954C252.363 205.005 257.086 204.886 262.096 204.742C266.244 204.646 270.535 204.526 274.179 202.704C282.738 198.461 283.482 187.864 283.506 178.274C283.53 165.112 285.16 155.546 288.804 147.251C294.639 133.763 296.642 132.961 312.754 127.473C312.778 127.544 312.826 127.592 312.874 127.664C324.876 151.984 325.336 175.181 316.83 195.943C307.792 218.263 289.475 236.796 266.604 246.793C262.428 248.677 257.553 250.357 254.233 251.204C248.719 242.235 246.336 232.278 245.314 221.86C244.619 215.195 245.818 210.64 248.958 207.954ZM245.578 118.314C245.794 118.074 246.177 118.051 246.417 118.242C249.102 120.548 250.85 123.293 251.864 126.534C250.867 126.299 250.996 126.365 250.484 126.282C248.282 119.91 244.655 119.442 245.578 118.314ZM228.063 112.332C230.621 112.392 233.132 112.649 235.389 113.136C235.725 113.208 235.916 113.519 235.868 113.855C235.771 114.243 235.358 114.415 235.149 114.311C232.84 113.822 230.292 113.565 227.664 113.526C227.961 112.522 227.97 112.572 228.063 112.332ZM238.431 318.525C238.634 319.652 238.456 319.505 238.207 319.742C237.745 319.977 237.084 319.847 236.444 319.723C236.204 319.684 140.918 304.174 142.4 304.407C139.768 303.998 138.887 303.85 140.067 301.972C144.393 295.272 151.635 289.813 159.808 287.673C164.435 286.439 167.413 286.719 170.476 286.913C204.8 289.092 216.003 293.221 215.484 293.133C237.579 299.928 238.183 317.941 238.431 318.525ZM215.132 290.175C215.147 290.728 215.163 291.258 215.134 291.774C203.829 288.401 185.088 286.731 173.324 285.904C175.629 279.758 175.866 277.749 177.61 274.482C181.371 267.579 187.266 263.813 195.124 264.579C199.277 264.994 202.517 266.443 204.195 267.01C213.199 270.546 214.597 272.639 215.132 290.175ZM257.832 70.004C263.924 71.6307 269.847 73.7696 275.507 76.395C298.308 87.1823 313.868 100.176 323.074 116.115C338.276 142.719 342.486 171.663 330.973 199.923C312.248 246.116 260.042 276.477 205.885 263.724C206.413 262.667 206.903 261.595 207.339 260.506C208.449 257.486 208.786 255.447 207.287 252.899C223.6 256.609 240.536 255.765 253.346 252.067C253.394 252.115 253.418 252.163 253.442 252.211C253.538 252.403 253.729 252.499 253.945 252.499C254.962 252.499 262.556 249.961 267.083 247.896C290.938 237.474 309.042 218.345 317.933 196.375C327.346 173.387 325.106 149.707 313.905 127.089C313.785 126.897 313.689 126.681 313.617 126.513C313.521 126.226 313.186 126.058 312.874 126.154L312.778 126.178C304.994 111.337 293.484 98.5346 268.234 86.5963C263.273 84.2904 258.108 82.4338 252.823 81.0042C254.635 78.5332 257.374 73.2584 257.832 70.004ZM160.243 26.6775C180.518 36.0308 192.156 57.5011 187.315 76.6198C184.913 86.0041 179.902 93.4364 174.776 103.055C166.63 118.811 169.546 134.899 168.072 134.938C167.316 134.973 167.442 133.922 161.765 128.519C152.742 120.114 141.919 114.013 131.872 110.555C124.423 107.991 116.755 105.447 110.881 100.163C112.714 97.5259 111.511 95.2701 108.792 93.6348C111.903 92.5722 114.657 90.561 114.43 87.2947C114.128 82.9452 108.642 78.6613 104.045 77.2624C108.429 75.6935 113.705 71.7529 113.405 67.2671C113.279 65.3825 112.085 63.0572 107.853 61.2401C109.606 59.7872 110.513 58.9504 111.374 57.2719C112.617 54.8538 112.414 52.9337 110.318 50.941C107.347 48.1513 103.872 46.0489 99.8117 44.8818C111.123 24.2122 137.955 16.4241 160.243 26.6775ZM67.6933 56.3645C77.8089 44.2568 97.1814 40.2528 109.494 51.8119C113.894 55.9959 106.822 60.3204 106.568 60.7485C98.2293 57.8345 88.8653 58.5887 82.0404 62.7666C81.7583 62.9399 81.6693 63.3086 81.8414 63.5907C81.955 63.7757 82.1516 63.8775 82.353 63.8775C82.4607 63.8775 82.5684 63.8494 82.6655 63.7897C89.2661 59.7479 98.3765 59.0516 106.457 61.9641C106.468 61.9691 106.474 61.9804 106.485 61.9846C109.318 63.0396 112.443 64.9246 112.205 67.9491C112.187 68.178 112.097 68.4122 112.041 68.6445C111.11 72.5323 105.919 75.8103 101.541 76.7228C95.9329 75.3849 90.1302 76.2083 85.1894 79.0511C84.9026 79.2162 84.8031 79.5826 84.9682 79.8694C85.0794 80.0626 85.2807 80.1703 85.4879 80.1703C85.5898 80.1703 85.6928 80.1445 85.7864 80.0907C93.83 75.4575 101.663 77.9256 101.423 77.9129C101.442 77.917 101.453 77.9357 101.473 77.9379C109.541 78.8633 120.084 89.4656 107.164 92.8693C101.528 92.2438 94.2971 93.2812 89.118 95.468C88.3889 95.7752 88.849 96.8783 89.5839 96.573C94.5949 94.4563 101.599 93.4513 107.047 94.0626C108.616 94.8212 110.674 96.0968 110.55 97.8373C110.289 101.509 101.305 105.459 97.7771 106.646C91.0043 108.926 88.1685 113.502 85.9529 119.058C79.8217 118.485 76.3712 118.89 70.6419 116.601C72.3121 117.089 77.2458 118.362 78.2897 118.362C79.0223 118.362 79.1088 117.285 78.3822 117.17C71.1782 116.032 64.3207 113.609 57.997 109.968C54.5367 107.976 51.4886 105.74 47.0872 103.069C54.5321 87.2795 59.6778 69.906 67.6933 56.3645Z" fill="#B9E6FE"/>
<path d="M277.278 223.856C280.38 218.262 277.926 214.76 274.077 215.047C268.691 215.447 257.689 225.702 259.051 231.734C261.325 241.803 275.293 227.435 277.278 223.856ZM175.679 26.1692C177.015 26.1692 175.572 23.5205 178.647 14.7358C178.757 14.4232 178.592 14.0814 178.279 13.9725C177.966 13.8637 177.626 14.0264 177.516 14.3401C176.253 17.9468 175.433 21.7068 175.081 25.5149C175.05 25.8438 175.293 26.1365 175.623 26.1669C175.642 26.1681 175.66 26.1692 175.679 26.1692ZM201.457 13.1367C194.296 19.1069 187.314 25.4517 180.707 31.9943C180.142 32.5532 180.987 33.4034 181.55 32.8465C188.133 26.3273 195.089 20.0059 202.225 14.0568C202.835 13.5484 202.063 12.6258 201.457 13.1367ZM185.539 36.0282C184.738 36.1338 184.938 37.3475 185.698 37.2152L200.811 35.1807C201.613 35.0752 201.415 33.8633 200.652 33.9937L185.539 36.0282ZM136.411 279.552C137.214 279.46 137.042 278.259 136.275 278.36C104.543 281.994 76.6905 256.129 79.0477 232.031C88.0307 231.008 93.6544 222.852 92.9816 214.968C92.957 214.685 92.7369 214.457 92.4536 214.424C87.379 213.841 83.0945 218.027 80.985 221.797C79.3579 224.706 78.3909 227.784 77.9707 230.923C55.1566 232.066 53.9714 189.611 79.1554 166.879C79.7472 166.347 78.9354 165.457 78.3523 165.99C66.9083 176.319 59.8108 191.686 59.3672 207.096C58.8609 224.734 68.297 232.544 77.8372 232.124C75.5797 257.304 104.41 283.193 136.411 279.552ZM91.8215 215.575C92.1566 222.552 87.2552 229.732 79.1952 230.809C80.2546 223.497 85.0829 215.294 91.8215 215.575ZM191.129 123.27L197.007 120.143C197.717 119.766 197.125 118.705 196.445 119.085L190.567 122.212C190.274 122.368 190.163 122.73 190.319 123.022C190.477 123.318 190.844 123.424 191.129 123.27ZM209.242 115.739C211.569 115.364 213.872 114.766 216.084 113.964C216.833 113.693 216.417 112.563 215.677 112.837C209.967 114.905 208.368 114.109 208.555 115.244C208.602 115.538 208.929 115.795 209.242 115.739ZM256.253 227.551C257.015 227.774 257.354 226.631 256.595 226.402C253.359 225.434 250.358 223.494 248.146 220.94C247.628 220.34 246.721 221.124 247.24 221.724C249.599 224.448 252.8 226.518 256.253 227.551Z" fill="#B9E6FE"/>
</svg>
