<svg width="32" height="32" viewBox="0 0 32 32" fill="none" xmlns="http://www.w3.org/2000/svg">
<path fill-rule="evenodd" clip-rule="evenodd" d="M7 7.09889C7 6.27787 7.68102 5.6123 8.52109 5.6123H24.4469C25.287 5.6123 25.968 6.27787 25.968 7.09889V28.5131C25.968 29.3342 25.287 29.9997 24.4469 29.9997H8.52109C7.68102 29.9997 7 29.3342 7 28.5131V7.09889ZM18.2861 10.4374C18.2457 10.1476 18.1629 9.88181 18.0377 9.64015C17.918 9.3916 17.758 9.18224 17.5578 9.01208C17.3575 8.84192 17.1149 8.72045 16.8301 8.64765C16.5509 8.56796 16.2347 8.55163 15.8816 8.59864C15.1946 8.69011 14.6778 8.94652 14.3311 9.36788C13.9908 9.78838 13.8132 10.3441 13.7983 11.0349L18.2861 10.4374ZM13.9383 12.391C14.0433 12.8629 14.1909 13.2646 14.381 13.596C14.5702 13.9214 14.7964 14.1835 15.0595 14.3822C15.3218 14.5749 15.6182 14.7076 15.9488 14.7805C16.2849 14.8464 16.6456 14.8537 17.0309 14.8025C17.4161 14.7512 17.7408 14.6649 18.0051 14.5436C18.2758 14.4214 18.5067 14.2953 18.6979 14.1653C18.8954 14.0345 19.0654 13.9165 19.2077 13.8114C19.3564 13.7055 19.5046 13.6427 19.6523 13.6231C19.8513 13.5966 20.0086 13.6464 20.1243 13.7724L20.9217 14.4966C20.6989 14.8215 20.4376 15.1054 20.138 15.3483C19.8375 15.5851 19.5159 15.7879 19.1732 15.9565C18.8361 16.1183 18.4847 16.2481 18.119 16.346C17.7598 16.443 17.4068 16.5146 17.0601 16.5608C16.3732 16.6522 15.7196 16.6316 15.0995 16.4989C14.4785 16.3601 13.9207 16.1115 13.426 15.7529C12.9305 15.3884 12.5147 14.9148 12.1784 14.3322C11.8413 13.7435 11.6159 13.0416 11.5023 12.2263C11.4139 11.5923 11.4402 10.9829 11.581 10.3983C11.721 9.80765 11.9646 9.28008 12.3119 8.81559C12.6647 8.34421 13.1164 7.94886 13.667 7.62952C14.224 7.30933 14.8716 7.10008 15.61 7.00178C16.2327 6.91886 16.8204 6.93596 17.373 7.05306C17.9255 7.17017 18.4165 7.38466 18.8458 7.69655C19.2742 8.0024 19.631 8.4039 19.9161 8.90106C20.2068 9.39133 20.3989 9.97161 20.4923 10.6419C20.5394 10.9801 20.5329 11.2147 20.4727 11.3457C20.4116 11.4707 20.272 11.5477 20.0537 11.5768L13.9383 12.391ZM15.1615 22.5413V18.9801H14.2578V22.5413H15.1615ZM15.238 18.1505C15.2696 18.0857 15.2854 18.0163 15.2854 17.9422C15.2854 17.8659 15.2696 17.7941 15.238 17.727C15.2064 17.6599 15.1639 17.6021 15.1105 17.5535C15.0595 17.5049 14.9987 17.4667 14.9283 17.4389C14.8578 17.4088 14.7825 17.3938 14.7024 17.3938C14.6246 17.3938 14.5505 17.4088 14.4801 17.4389C14.412 17.4667 14.3525 17.5049 14.3015 17.5535C14.2505 17.6021 14.2092 17.6599 14.1776 17.727C14.1485 17.7941 14.1339 17.8659 14.1339 17.9422C14.1339 18.0163 14.1485 18.0857 14.1776 18.1505C14.2092 18.2153 14.2505 18.272 14.3015 18.3206C14.3525 18.3692 14.412 18.4085 14.4801 18.4386C14.5505 18.4663 14.6246 18.4802 14.7024 18.4802C14.7825 18.4802 14.8578 18.4663 14.9283 18.4386C14.9987 18.4085 15.0595 18.3692 15.1105 18.3206C15.1639 18.272 15.2064 18.2153 15.238 18.1505ZM12.2658 22.5413L13.7489 18.9801H13.0383C12.9776 18.9801 12.9254 18.9951 12.8816 19.0252C12.8379 19.0553 12.8076 19.0934 12.7905 19.1397L12.0545 21.0418C12.0132 21.1529 11.9779 21.2617 11.9488 21.3681C11.9196 21.4746 11.8929 21.581 11.8686 21.6874C11.8467 21.581 11.8212 21.4746 11.7921 21.3681C11.7629 21.2617 11.7289 21.1529 11.6901 21.0418L10.9685 19.1397C10.954 19.0934 10.9236 19.0553 10.8774 19.0252C10.8337 18.9951 10.7778 18.9801 10.7098 18.9801H9.96642L11.4495 22.5413H12.2658ZM18.3603 19.6743C18.336 19.7113 18.3105 19.7379 18.2838 19.7541C18.257 19.768 18.223 19.7749 18.1817 19.7749C18.138 19.7749 18.0906 19.7633 18.0396 19.7402C17.991 19.7171 17.9339 19.6916 17.8683 19.6638C17.8027 19.6338 17.7274 19.6072 17.6424 19.584C17.5598 19.5609 17.4614 19.5493 17.3472 19.5493C17.1699 19.5493 17.0302 19.5852 16.9282 19.6569C16.8286 19.7286 16.7788 19.8224 16.7788 19.9381C16.7788 20.0144 16.8043 20.0792 16.8553 20.1324C16.9087 20.1833 16.978 20.2285 17.063 20.2678C17.1505 20.3071 17.2488 20.343 17.3582 20.3754C17.4675 20.4055 17.578 20.439 17.6898 20.4761C17.804 20.5131 17.9157 20.5559 18.025 20.6045C18.1343 20.6508 18.2315 20.7109 18.3165 20.785C18.404 20.8567 18.4732 20.9435 18.5243 21.0453C18.5777 21.1471 18.6044 21.2698 18.6044 21.4132C18.6044 21.5845 18.5716 21.743 18.506 21.8888C18.4429 22.0322 18.3481 22.1572 18.2218 22.2636C18.0955 22.3678 17.9388 22.4499 17.7517 22.5101C17.5671 22.5679 17.3533 22.5968 17.1104 22.5968C16.9816 22.5968 16.8553 22.5853 16.7314 22.5621C16.6099 22.5413 16.4921 22.5112 16.3779 22.4719C16.2662 22.4326 16.1617 22.3863 16.0645 22.3331C15.9698 22.2798 15.886 22.222 15.8131 22.1595L16.0208 21.8332C16.0475 21.7939 16.0791 21.7638 16.1156 21.743C16.152 21.7222 16.1982 21.7117 16.254 21.7117C16.3099 21.7117 16.3621 21.7268 16.4107 21.7569C16.4617 21.7869 16.52 21.8193 16.5856 21.8541C16.6512 21.8888 16.7278 21.9212 16.8152 21.9512C16.9051 21.9813 17.0181 21.9964 17.1541 21.9964C17.261 21.9964 17.3521 21.9848 17.4274 21.9617C17.5051 21.9362 17.5683 21.9038 17.6169 21.8645C17.6679 21.8251 17.7044 21.78 17.7262 21.7291C17.7505 21.6759 17.7627 21.6215 17.7627 21.566C17.7627 21.4827 17.7359 21.4144 17.6825 21.3612C17.6315 21.3079 17.5622 21.2617 17.4748 21.2223C17.3898 21.183 17.2914 21.1483 17.1796 21.1182C17.0703 21.0858 16.9573 21.0511 16.8407 21.0141C16.7265 20.977 16.6136 20.9342 16.5018 20.8856C16.3925 20.8347 16.2941 20.7711 16.2067 20.6947C16.1216 20.6184 16.0524 20.5247 15.9989 20.4136C15.9479 20.3025 15.9224 20.1683 15.9224 20.0109C15.9224 19.8652 15.9528 19.7263 16.0135 19.5944C16.0743 19.4625 16.1629 19.348 16.2795 19.2508C16.3986 19.1513 16.5456 19.0726 16.7205 19.0148C16.8978 18.9546 17.1019 18.9245 17.3327 18.9245C17.5902 18.9245 17.8246 18.965 18.036 19.046C18.2473 19.127 18.4234 19.2334 18.5643 19.3653L18.3603 19.6743ZM20.601 21.087C20.7784 21.0546 20.997 21.0326 21.2569 21.021V21.6215C21.1282 21.7511 20.9958 21.8483 20.8597 21.9131C20.7261 21.9755 20.567 22.0068 20.3824 22.0068C20.2318 22.0068 20.1091 21.9744 20.0143 21.9096C19.922 21.8448 19.8759 21.7372 19.8759 21.5868C19.8759 21.5104 19.8989 21.4398 19.9451 21.3751C19.9912 21.3103 20.0678 21.2536 20.1747 21.205C20.2816 21.1564 20.4237 21.117 20.601 21.087ZM20.7468 18.9141C20.1419 18.9141 19.6244 19.1015 19.1944 19.4764L19.3548 19.7506C19.3815 19.7923 19.4167 19.8293 19.4604 19.8617C19.5042 19.8918 19.5576 19.9068 19.6208 19.9068C19.6937 19.9068 19.7592 19.8906 19.8175 19.8582C19.8783 19.8258 19.9451 19.79 20.018 19.7506C20.0909 19.709 20.1747 19.6719 20.2694 19.6395C20.3666 19.6072 20.488 19.591 20.6338 19.591C20.8354 19.591 20.9897 19.6488 21.0966 19.7645C21.2035 19.8779 21.2569 20.0538 21.2569 20.2921V20.5004C20.9727 20.5073 20.7201 20.5281 20.499 20.5628C20.2779 20.5952 20.0836 20.638 19.9159 20.6913C19.7507 20.7445 19.6111 20.807 19.4969 20.8787C19.3827 20.9504 19.2892 21.0268 19.2163 21.1078C19.1458 21.1888 19.0948 21.2744 19.0632 21.3646C19.0317 21.4526 19.0159 21.5417 19.0159 21.6319C19.0159 21.7916 19.0426 21.9316 19.096 22.0519C19.1495 22.1722 19.2248 22.2729 19.322 22.3539C19.4191 22.4349 19.5345 22.4962 19.6681 22.5378C19.8018 22.5772 19.9475 22.5968 20.1054 22.5968C20.239 22.5968 20.3605 22.5853 20.4698 22.5621C20.5816 22.5413 20.686 22.5101 20.7832 22.4684C20.8804 22.4268 20.9739 22.3759 21.0638 22.3157C21.1537 22.2532 21.246 22.1815 21.3408 22.1005L21.4209 22.3573C21.4476 22.4314 21.4841 22.4811 21.5302 22.5066C21.5764 22.5297 21.642 22.5413 21.727 22.5413H22.1351V20.2921C22.1351 20.0908 22.1036 19.9057 22.0404 19.7367C21.9797 19.5678 21.8898 19.4232 21.7707 19.3029C21.6517 19.1802 21.5059 19.0853 21.3335 19.0182C21.161 18.9488 20.9654 18.9141 20.7468 18.9141Z" fill="#BFBFD0"/>
<path d="M22.2489 4.70971H10.6147C12.9916 4.02513 18.2708 2.53861 20.3725 2.06919C22.4741 1.59976 22.4991 3.63394 22.2489 4.70971Z" fill="#BFBFD0"/>
</svg>
