<svg width="24" height="24" viewBox="0 0 24 24" fill="none" xmlns="http://www.w3.org/2000/svg">
<g clip-path="url(#clip0_945_96778)">
<path d="M11.7415 3.29329C11.8271 3.28938 11.9132 3.2875 11.9996 3.2875C12.086 3.2875 12.1719 3.28938 12.2577 3.29329V2.48376H14.4238V0.469021H12.2577V0.265301C12.2577 0.12624 12.1508 0.00670832 12.0119 0.000295345C11.977 -0.00137539 11.9422 0.00405519 11.9094 0.0162581C11.8767 0.028461 11.8468 0.0471822 11.8215 0.0712876C11.7962 0.095393 11.7761 0.124381 11.7623 0.156495C11.7486 0.188609 11.7415 0.223181 11.7415 0.258116V3.29329ZM17.0988 8.9028C17.0988 6.09122 14.8115 3.80357 11.9996 3.80357C9.18772 3.80357 6.90036 6.09108 6.90036 8.9028V8.92841H17.0988V8.9028ZM6.02506 9.44453C5.80991 9.44453 5.63488 9.61971 5.63488 9.83486C5.63488 10.05 5.80986 10.225 6.02506 10.225H17.9741C18.1893 10.225 18.3643 10.0501 18.3643 9.83486C18.3643 9.61971 18.1893 9.44453 17.9741 9.44453H6.02506ZM1.7168 24H6.02337V13.08H1.7168V24ZM3.23301 14.5963H4.5074V15.8705H3.23301V14.5963ZM3.23301 17.903H4.5074V19.1772H3.23301V17.903ZM3.23301 21.2095H4.5074V22.4837H3.23301V21.2095ZM6.53959 24H9.97145V20.2328C9.97143 20.1989 9.9781 20.1653 9.99106 20.134C10.004 20.1027 10.023 20.0742 10.047 20.0502C10.071 20.0263 10.0994 20.0073 10.1308 19.9943C10.1621 19.9813 10.1957 19.9747 10.2296 19.9747H11.7414V24H12.2575V19.9747H13.7694C13.8033 19.9747 13.8369 19.9813 13.8682 19.9943C13.8995 20.0073 13.928 20.0263 13.9519 20.0502C13.9759 20.0742 13.9949 20.1027 14.0079 20.134C14.0208 20.1653 14.0275 20.1989 14.0275 20.2328V24H17.4593V10.7411H6.53959V24ZM14.6691 13.0419H15.9433V14.3163H14.6691V13.0419ZM14.6691 16.3486H15.9433V17.623H14.6691V16.3486ZM11.3626 13.0419H12.6368V14.3163H11.3626V13.0419ZM11.3626 16.3486H12.6368V17.623H11.3626V16.3486ZM8.05585 13.0419H9.33006V14.3163H8.05585V13.0419ZM8.05585 16.3486H9.33006V17.623H8.05585V16.3486ZM17.9757 13.08V24.0001H22.2823V13.08H17.9757ZM20.7662 22.4837H19.4918V21.2095H20.7662V22.4837ZM20.7662 19.177H19.4918V17.9028H20.7662V19.177ZM20.7662 15.8705H19.4918V14.5963H20.7662V15.8705Z" fill="#0BA5EC"/>
</g>
<defs>
<clipPath id="clip0_945_96778">
<rect width="24" height="24" fill="white"/>
</clipPath>
</defs>
</svg>
