<svg width="32" height="32" viewBox="0 0 32 32" fill="none" xmlns="http://www.w3.org/2000/svg">
<path d="M21.3333 1.66699H10.6667C9.74619 1.66699 9 2.41318 9 3.33366V4.66699C9 5.58747 9.74619 6.33366 10.6667 6.33366H21.3333C22.2538 6.33366 23 5.58747 23 4.66699V3.33366C23 2.41318 22.2538 1.66699 21.3333 1.66699Z" fill="#BFBFD0"/>
<path fill-rule="evenodd" clip-rule="evenodd" d="M25.3335 3H24.3335V5C24.3335 5.70724 24.0525 6.38552 23.5524 6.88562C23.0524 7.38572 22.3741 7.66667 21.6668 7.66667H10.3335C9.62625 7.66667 8.94798 7.38572 8.44788 6.88562C7.94778 6.38552 7.66683 5.70724 7.66683 5V3H6.66683C6.04907 3.0035 5.45761 3.25046 5.02078 3.68729C4.58395 4.12411 4.337 4.71557 4.3335 5.33333V28C4.337 28.6178 4.58395 29.2092 5.02078 29.646C5.45761 30.0829 6.04907 30.3298 6.66683 30.3333H25.3335C25.9513 30.3298 26.5427 30.0829 26.9795 29.646C27.4164 29.2092 27.6633 28.6178 27.6668 28V5.33333C27.6633 4.71557 27.4164 4.12411 26.9795 3.68729C26.5427 3.25046 25.9513 3.0035 25.3335 3ZM20.7335 16.3333L15.7335 21.6667C15.5393 21.862 15.2756 21.9722 15.0002 21.9733C14.7539 21.9763 14.5157 21.8857 14.3335 21.72L11.3335 19.0533C11.2342 18.9681 11.1531 18.8636 11.095 18.7463C11.037 18.6289 11.0032 18.5011 10.9958 18.3703C10.9883 18.2396 11.0073 18.1088 11.0516 17.9856C11.0958 17.8624 11.1645 17.7494 11.2535 17.6533C11.417 17.4423 11.6572 17.3044 11.9218 17.2694C12.1864 17.2345 12.4542 17.3054 12.6668 17.4667L14.9335 19.4933L19.2668 14.8933C19.4543 14.7061 19.7085 14.6009 19.9735 14.6009C20.2385 14.6009 20.4927 14.7061 20.6802 14.8933C20.8629 15.0721 20.9702 15.314 20.9801 15.5694C20.9901 15.8248 20.9018 16.0743 20.7335 16.2667V16.3333ZM20.1453 26.4496L20.8558 25.0477H21.6331L20.503 27.1267V28.4524H19.7877V27.1506L18.6576 25.0477H19.4396L20.1453 26.4496ZM18.3202 28.0327C18.4187 27.8833 18.468 27.7084 18.468 27.5082C18.468 27.3302 18.4346 27.1807 18.3679 27.0599C18.3011 26.9391 18.2057 26.8342 18.0818 26.7452C17.961 26.6562 17.8131 26.5704 17.6383 26.4877C17.4952 26.4178 17.376 26.3574 17.2807 26.3065C17.1853 26.2557 17.1138 26.2032 17.0661 26.1492C17.0184 26.092 16.9946 26.0236 16.9946 25.9441C16.9946 25.8742 17.0105 25.8138 17.0422 25.7629C17.0772 25.7121 17.1265 25.6723 17.1901 25.6437C17.2536 25.6151 17.3299 25.6008 17.4189 25.6008C17.5493 25.6008 17.6764 25.6183 17.8004 25.6533C17.9244 25.6882 18.0643 25.7375 18.22 25.8011L18.4537 25.2384C18.2788 25.1621 18.1104 25.1033 17.9482 25.062C17.7893 25.0207 17.6208 25 17.4428 25C17.2076 25 17.0025 25.0381 16.8277 25.1144C16.656 25.1907 16.5225 25.302 16.4271 25.4482C16.3349 25.5913 16.2888 25.7645 16.2888 25.968C16.2888 26.1238 16.3159 26.2573 16.3699 26.3685C16.4239 26.4798 16.4923 26.5752 16.5749 26.6546C16.6608 26.7309 16.7498 26.7961 16.842 26.8501C16.9342 26.901 17.02 26.9455 17.0995 26.9837C17.2266 27.0441 17.3395 27.1013 17.438 27.1553C17.5366 27.2062 17.6145 27.2618 17.6717 27.3222C17.7321 27.3826 17.7623 27.4557 17.7623 27.5416C17.7623 27.6115 17.7448 27.6735 17.7098 27.7275C17.678 27.7816 17.6256 27.8245 17.5525 27.8563C17.4825 27.8881 17.3887 27.904 17.2711 27.904C17.0995 27.904 16.9262 27.8753 16.7514 27.8181C16.5797 27.7577 16.4128 27.6926 16.2507 27.6226V28.295C16.3429 28.3395 16.4398 28.3776 16.5416 28.4094C16.6465 28.438 16.7546 28.4603 16.8658 28.4762C16.9803 28.4921 17.0963 28.5 17.2139 28.5C17.4809 28.5 17.7066 28.4603 17.891 28.3808C18.0786 28.2981 18.2216 28.1821 18.3202 28.0327ZM15.2522 28.4521L15.0042 27.6415H13.7645L13.5165 28.4521H12.7393L13.9409 25.0332H14.823L16.0294 28.4521H15.2522ZM14.5846 26.2444C14.5687 26.1903 14.5481 26.122 14.5226 26.0393C14.4972 25.9567 14.4718 25.8724 14.4463 25.7866C14.4209 25.7008 14.4002 25.6261 14.3844 25.5625C14.3685 25.6261 14.3462 25.7055 14.3176 25.8009C14.2922 25.8931 14.2667 25.9821 14.2413 26.0679C14.219 26.1506 14.2016 26.2094 14.1888 26.2444L13.9457 27.0359H14.8326L14.5846 26.2444ZM10.5 28.4524H12.4598V27.8563H11.22V26.9789H12.374V26.3876H11.22V25.639H12.4598V25.0477H10.5V28.4524Z" fill="#BFBFD0"/>
</svg>
