<svg width="18" height="18" viewBox="0 0 18 18" fill="none" xmlns="http://www.w3.org/2000/svg"><g id="money/ticket-2"><path id="Vector" opacity="0.4" d="M15.6298 9.87595C15.9223 9.87595 16.1548 9.63595 16.1548 9.33595V8.67595C16.1548 5.72847 15.2548 4.83597 12.3148 4.83597H7.58984V6.65847C7.88234 6.65847 8.12234 6.89847 8.12234 7.19097V9.20095C8.12234 9.49345 7.88234 9.73345 7.58984 9.73345V11.616C7.88234 11.616 8.12234 11.856 8.12234 12.1485V14.1585C8.12234 14.451 7.88234 14.691 7.58984 14.691V16.4985H12.3148C15.2548 16.4985 16.1548 15.5985 16.1548 12.6585C16.1548 12.366 15.9223 12.126 15.6298 12.126C14.9998 12.126 14.4973 11.6235 14.4973 11.001C14.4973 10.3785 14.9998 9.87595 15.6298 9.87595Z" fill="#2F3268"></path><path id="Vector_2" d="M5.67656 4.84503C5.68406 4.84503 5.68406 4.84503 5.67656 4.84503H5.68406H12.3066C12.3591 4.84503 12.4116 4.84503 12.4566 4.84503C12.4491 4.83003 12.4491 4.82253 12.4491 4.80753C12.4266 4.54503 12.5315 4.29003 12.7266 4.09503C12.8241 3.99753 12.8841 3.86253 12.8841 3.72003C12.8841 3.57753 12.8241 3.44253 12.7266 3.34503L12.3141 2.92503C11.5791 2.18253 10.7691 1.50003 9.8241 1.50003C8.8866 1.50003 8.06903 2.18253 7.33406 2.92503L5.41406 4.84503C5.49656 4.84503 5.58656 4.84503 5.67656 4.84503Z" fill="#2F3268"></path><path id="Vector_3" d="M7.0582 7.19128V9.20125C7.0582 9.49375 7.2982 9.73375 7.59067 9.73375V11.6163C7.2982 11.6163 7.0582 11.8562 7.0582 12.1487V14.1587C7.0582 14.4513 7.2982 14.6913 7.59067 14.6913V16.4988H5.6857C2.7457 16.4988 1.8457 15.5988 1.8457 12.6588V12.3362C1.8457 12.0362 2.0782 11.8038 2.3707 11.8038C3.0007 11.8038 3.5032 11.2937 3.5032 10.6712C3.5032 10.0487 3.0007 9.53875 2.3707 9.53875C2.0782 9.53875 1.8457 9.30625 1.8457 9.00625V8.68375C1.8457 5.73628 2.7457 4.84378 5.6857 4.84378H7.58317V6.66628C7.2982 6.66628 7.0582 6.90628 7.0582 7.19128Z" fill="#2F3268"></path></g></svg>