<svg width="32" height="32" viewBox="0 0 32 32" fill="none" xmlns="http://www.w3.org/2000/svg">
<rect x="0.25" y="0.25" width="31.5" height="31.5" rx="4.75" stroke="#F0F0F4" stroke-width="0.5"/>
<path d="M15.8271 7.79486C17.4273 7.79486 18.7246 6.49764 18.7246 4.89743C18.7246 3.29722 17.4273 2 15.8271 2C14.2269 2 12.9297 3.29722 12.9297 4.89743C12.9297 6.49764 14.2269 7.79486 15.8271 7.79486Z" fill="#BFBFD0"/>
<path d="M16.5483 7.96294L15.8267 8.68938C15.8267 8.68938 15.1169 7.9572 15.1195 7.95605C15.1163 7.9572 9.37483 9.91417 10.4126 16.7166C10.4705 17.2965 10.9026 17.8731 11.4732 17.8731C11.6305 17.8733 11.7861 17.8405 11.9299 17.7769C12.0737 17.7132 12.2026 17.6201 12.3082 17.5035C12.4139 17.387 12.4939 17.2496 12.5431 17.1002C12.5924 16.9509 12.6098 16.7928 12.5942 16.6363C12.424 14.935 12.5465 13.744 12.8613 12.8621V16.8767C12.8613 17.8703 13.067 17.9707 13.067 17.9707L13.0676 28.6704C13.0676 29.0231 13.2076 29.3612 13.457 29.6105C13.7063 29.8599 14.0445 30 14.3971 30C14.7497 30 15.0878 29.8599 15.3372 29.6105C15.5865 29.3612 15.7266 29.0231 15.7266 28.6704L15.726 19.4264C15.7788 19.429 15.8313 19.433 15.8844 19.433C15.8947 19.433 15.9047 19.4316 15.9151 19.4316L15.9148 28.6704C15.9148 28.845 15.9492 29.0179 16.016 29.1792C16.0828 29.3405 16.1807 29.487 16.3042 29.6104C16.4277 29.7339 16.5742 29.8318 16.7355 29.8986C16.8968 29.9653 17.0697 29.9997 17.2443 29.9997C17.4189 29.9997 17.5918 29.9654 17.7531 29.8986C17.9144 29.8319 18.061 29.734 18.1845 29.6105C18.3079 29.4871 18.4059 29.3405 18.4727 29.1792C18.5395 29.0179 18.5738 28.845 18.5738 28.6704L18.5741 17.9655C18.5741 17.9655 18.793 17.672 18.793 16.8767V15.524C19.7458 15.3409 21.3413 14.8282 21.6855 13.4161C22.0594 11.8815 18.5391 8.53474 16.5483 7.96294ZM18.7924 11.9876C19.3289 12.4914 19.4575 12.7829 19.487 12.8799C19.3854 12.9852 19.1186 13.1103 18.7924 13.2101V11.9876ZM17.5516 16.5798H14.103C14.0226 16.5798 13.9454 16.5478 13.8886 16.491C13.8317 16.4341 13.7997 16.357 13.7997 16.2765V11.161C13.7997 10.9938 13.9357 10.8581 14.103 10.8581H14.8705V10.7255C14.8705 10.5583 15.0062 10.4223 15.1734 10.4223H16.4814C16.6487 10.4223 16.7847 10.558 16.7847 10.7255V10.8581H17.5521C17.7194 10.8581 17.8554 10.9938 17.8554 11.161V13.398C17.588 13.4623 17.3507 13.4936 17.2276 13.5025C16.9301 13.5239 16.6532 13.6626 16.458 13.8882C16.2627 14.1137 16.1651 14.4076 16.1865 14.7052C16.2079 15.0027 16.3466 15.2796 16.5722 15.4748C16.7977 15.6701 17.0916 15.7677 17.3892 15.7463C17.5451 15.734 17.7004 15.7153 17.8548 15.6901V16.2768C17.8547 16.3572 17.8228 16.4343 17.7659 16.4911C17.709 16.5479 17.6319 16.5798 17.5516 16.5798Z" fill="#BFBFD0"/>
</svg>
