<svg width="26" height="26" viewBox="0 0 26 26" fill="#2f3268" xmlns="http://www.w3.org/2000/svg"><path d="M6.93288 15.1665C7.8523 15.1665 8.73406 14.8013 9.38418 14.1511C10.0343 13.501 10.3995 12.6193 10.3995 11.6998C10.3995 10.7804 10.0343 9.89866 9.38418 9.24853C8.73406 8.59841 7.8523 8.23317 6.93288 8.23317C6.01346 8.23317 5.1317 8.59841 4.48157 9.24853C3.83145 9.89866 3.46621 10.7804 3.46621 11.6998C3.46621 12.6193 3.83145 13.501 4.48157 14.1511C5.1317 14.8013 6.01346 15.1665 6.93288 15.1665ZM12.9995 24.2665V22.0998C12.9995 18.6332 9.56538 16.4665 6.93288 16.4665C4.30038 16.4665 0.866211 18.6332 0.866211 22.0998V24.2665H12.9995ZM22.9662 2.1665H12.1329C11.6732 2.1665 11.2323 2.34912 10.9072 2.67419C10.5822 2.99925 10.3995 3.44013 10.3995 3.89984V7.8319C11.4608 8.7835 12.1329 10.1615 12.1329 11.6998C12.1329 12.4486 11.9712 13.158 11.687 13.8015C11.83 13.8396 11.9782 13.8665 12.1329 13.8665H15.5995V15.368C15.5995 15.4884 15.6322 15.6066 15.6941 15.7099C15.756 15.8132 15.8448 15.8978 15.9509 15.9546C16.0571 16.0114 16.1767 16.0383 16.297 16.0325C16.4173 16.0266 16.5337 15.9882 16.6339 15.9214L19.7162 13.8665H22.9662C23.4259 13.8665 23.8668 13.6839 24.1919 13.3588C24.5169 13.0338 24.6995 12.5929 24.6995 12.1332V3.89984C24.6995 3.44013 24.5169 2.99925 24.1919 2.67419C23.8668 2.34912 23.4259 2.1665 22.9662 2.1665Z"></path></svg>