<svg width="2183" height="1290" viewBox="0 0 2183 1290" fill="none" xmlns="http://www.w3.org/2000/svg">
<path opacity="0.37" d="M1 280.076C24.6863 279.349 48.2414 283.855 69.9869 293.272C91.7325 302.689 111.133 316.785 126.807 334.556C142.213 352.562 153.46 373.742 159.748 396.588C166.036 419.435 167.212 443.386 163.19 466.738C155.236 510.895 129.236 549.297 106.302 587.873C66.7088 654.701 34.2304 727.169 23.3271 804.118C12.4239 881.067 24.5129 963.164 67.6343 1027.79C110.756 1092.43 187.397 1136.61 264.877 1130.42C328.792 1125.3 385.68 1088.41 435.135 1047.63C484.59 1006.86 530.546 960.504 587.289 930.429C629.159 908.113 675.489 895.438 722.889 893.332C770.289 891.226 817.56 899.741 861.244 918.256C904.929 936.77 943.921 964.815 975.369 1000.34C1006.82 1035.86 1029.92 1077.97 1043 1123.57" stroke="#439CED" stroke-miterlimit="10" stroke-linecap="round" stroke-dasharray="4 4"/>
<path opacity="0.37" d="M930.835 935.696L928.495 934.006L906.172 941.319C893.173 932.556 891.006 934.106 891.006 934.106C891.006 934.106 890.329 936.729 902.806 946.267L903.754 970.311L906.114 972L908.861 950.619C913.523 953.5 921.937 957.713 921.937 957.713C921.937 957.713 921.763 966.178 924.123 969.437L925.458 970.39L925.98 959.978L929.21 961.548L926.657 958.984L936 954.891L934.665 953.937C930.797 952.785 923.214 955.924 923.214 955.924C923.214 955.924 916.463 949.248 912.227 945.73L930.835 935.696Z" fill="#439CED"/>
<path d="M1633.83 266.499C1632.5 266.606 1631.21 266.802 1629.88 266.891V268.192C1632.19 268.031 1634.42 267.728 1636.7 267.514C1629.91 270.116 1626.01 279.667 1630.39 279.988C1634.78 280.309 1640.03 272.468 1638.43 267.39C1644.7 266.748 1650.9 265.893 1656.85 264.77C1653.66 271.72 1658.87 281.894 1662.02 278.509C1665.18 275.123 1662.54 266.98 1657.96 264.574C1666.62 262.879 1675.18 260.684 1683.58 257.999C1680.25 265.537 1685.85 276.424 1689.25 272.771C1692.65 269.118 1689.78 260.191 1684.78 257.625C1693.96 254.653 1702.95 251.124 1711.7 247.058C1706.52 257.001 1714.2 272.308 1718.83 267.354C1723.46 262.4 1719.22 249.535 1712.06 246.916C1722.24 242.148 1732.1 236.725 1741.58 230.682C1736.65 241.16 1744.52 256.645 1749.28 251.531C1754.04 246.417 1749.8 233.195 1742.4 230.148C1750.93 224.681 1759.18 218.781 1767.1 212.471C1762.24 222.931 1770.08 238.309 1774.82 233.213C1779.56 228.116 1775.33 214.841 1767.94 211.83C1776.53 204.969 1784.53 197.895 1791.82 190.803C1786.65 201.281 1794.61 217.033 1799.41 211.883C1804.2 206.734 1799.82 193.191 1792.28 190.376C1798.8 184.014 1804.84 177.688 1810.29 171.559C1811.45 170.258 1812.54 168.957 1813.66 167.656C1808.82 178.116 1816.66 193.476 1821.4 188.38C1826.14 183.284 1821.84 169.741 1814.27 166.89C1821.25 158.782 1827.58 150.853 1833.28 143.048C1829.9 153.383 1837.18 166.961 1841.67 162.132C1846.41 157.018 1842.23 143.939 1834.92 140.75C1841.3 131.983 1846.84 123.679 1851.51 116.23C1848.41 126.53 1855.57 139.752 1860.03 134.958C1864.79 129.826 1860.53 116.622 1853.15 113.575C1859.45 103.554 1865.19 93.1977 1870.36 82.5524L1869.19 82C1863.75 93.2022 1857.68 104.084 1850.99 114.591C1846.68 108.069 1833.73 105.682 1829.34 110.92C1824.96 116.159 1839.77 121.612 1849.62 116.801C1845.17 123.839 1839.93 131.626 1833.98 139.823C1829.7 133.283 1816.87 130.789 1812.42 135.921C1807.96 141.052 1822.25 146.612 1832.18 142.264C1826.53 149.909 1820.24 157.874 1813.32 165.91C1809.49 158.961 1796.15 156.003 1791.51 161.188C1786.88 166.373 1802.01 172.45 1812.02 167.514C1811.11 168.547 1810.24 169.581 1809.33 170.614C1803.86 176.78 1797.77 183.088 1791.19 189.52C1787.4 182.589 1774.16 179.542 1769.47 184.656C1764.78 189.77 1779.18 195.704 1789.21 191.445C1782.41 197.967 1775.28 204.399 1767.4 210.672C1767.17 202.778 1756.89 194.011 1750.4 196.416C1743.92 198.822 1754.82 211.776 1766.25 211.58C1758.36 217.833 1750.16 223.673 1741.67 229.079C1741.26 221.238 1731.11 212.667 1724.69 215.019C1718.28 217.372 1728.7 229.952 1739.91 230.219C1730.82 235.939 1721.38 241.093 1711.65 245.65C1711.27 238.202 1701.62 230.041 1695.5 232.268C1689.39 234.496 1698.93 245.918 1709.35 246.666C1700.96 250.473 1692.36 253.793 1683.58 256.609C1683.03 251.032 1675.9 245.098 1671.34 246.773C1667.1 248.323 1673.12 256.199 1680.5 257.465C1672.79 259.826 1664.97 261.777 1657.05 263.309C1656.84 258.07 1650.05 252.297 1645.75 253.883C1641.85 255.308 1647.39 262.525 1654.11 263.79C1648.62 264.77 1643.01 265.572 1637.31 266.089C1636.92 260.743 1629.38 255.397 1625.14 257.375C1621.48 259.175 1627.24 265.519 1633.83 266.499Z" fill="#DFEAFD"/>
<path d="M1383.45 308.522C1383.24 305.77 1382.25 303.135 1380.59 300.926C1378.94 298.718 1376.69 297.028 1374.1 296.056C1371.52 295.085 1368.71 294.872 1366.01 295.442C1363.31 296.012 1360.83 297.341 1358.86 299.274C1357.24 296.823 1355.08 294.782 1352.54 293.314C1350 291.846 1347.15 290.991 1344.22 290.818C1341.29 290.645 1338.36 291.158 1335.67 292.317C1332.97 293.476 1330.58 295.248 1328.69 297.492C1326.33 295.922 1323.56 295.085 1320.72 295.087C1317.07 295.094 1313.56 296.477 1310.88 298.96C1308.2 301.444 1306.56 304.845 1306.27 308.487L1383.45 308.522Z" fill="#E3F2FF"/>
<path d="M894.44 417.522C894.232 414.77 893.241 412.135 891.586 409.926C889.93 407.718 887.678 406.028 885.094 405.056C882.511 404.085 879.703 403.872 877.003 404.442C874.302 405.012 871.82 406.341 869.85 408.274C868.237 405.823 866.073 403.782 863.532 402.314C860.991 400.846 858.142 399.991 855.213 399.818C852.283 399.645 849.354 400.158 846.657 401.317C843.961 402.476 841.573 404.248 839.682 406.492C837.322 404.922 834.551 404.085 831.717 404.087C828.064 404.094 824.549 405.477 821.87 407.96C819.192 410.444 817.548 413.845 817.266 417.487L894.44 417.522Z" fill="#E3F2FF"/>
<path d="M1284.64 250.877C1284.6 247.758 1283.33 244.78 1281.11 242.589C1278.89 240.398 1275.9 239.17 1272.78 239.17C1271.45 239.179 1270.13 239.414 1268.87 239.865C1267.16 237.687 1264.97 235.934 1262.46 234.744C1259.96 233.554 1257.21 232.958 1254.44 233.002C1251.67 233.047 1248.95 233.732 1246.48 235.002C1244.02 236.273 1241.88 238.096 1240.24 240.328C1237.64 239.084 1234.68 238.834 1231.91 239.625C1229.14 240.416 1226.75 242.194 1225.2 244.623C1224.24 244.16 1223.2 243.916 1222.14 243.91C1220.27 243.91 1218.48 244.638 1217.15 245.941C1215.82 247.243 1215.05 249.015 1215.01 250.877H1284.64Z" fill="#E3F2FF"/>
<path d="M795.637 359.877C795.595 356.758 794.326 353.78 792.105 351.589C789.884 349.398 786.889 348.17 783.77 348.17C782.439 348.179 781.119 348.414 779.867 348.865C778.153 346.687 775.958 344.934 773.454 343.744C770.951 342.554 768.206 341.958 765.435 342.002C762.663 342.047 759.939 342.732 757.476 344.002C755.012 345.273 752.875 347.096 751.232 349.328C748.633 348.084 745.669 347.834 742.898 348.625C740.128 349.416 737.742 351.194 736.193 353.623C735.237 353.16 734.19 352.916 733.128 352.91C731.265 352.91 729.476 353.638 728.144 354.941C726.811 356.243 726.042 358.015 726 359.877H795.637Z" fill="#E3F2FF"/>
<path d="M466.537 987.803C467.499 987.803 468.444 987.66 469.406 987.624V986.698C467.731 986.698 466.127 986.894 464.488 987.001C469.424 985.308 472.507 978.554 469.353 978.252C466.199 977.949 462.225 983.383 463.223 987.072C458.715 987.357 454.313 987.803 449.93 988.462C452.407 983.544 448.95 976.095 446.598 978.448C444.245 980.8 445.903 986.698 449.128 988.551C442.865 989.536 436.665 990.887 430.56 992.596C433.162 987.25 429.438 979.285 426.997 981.815C424.555 984.346 426.248 990.832 429.776 992.828C423.107 994.701 416.561 996.986 410.175 999.67C414.185 992.667 409.088 981.477 405.649 984.898C402.21 988.319 404.865 997.639 409.944 999.759C402.502 1002.91 395.271 1006.53 388.294 1010.61C392.142 1003.22 386.904 991.883 383.34 995.429C379.776 998.975 382.485 1008.58 387.688 1010.97C381.418 1014.65 375.345 1018.66 369.494 1022.98C373.254 1015.6 368.051 1004.34 364.505 1007.87C360.959 1011.39 363.632 1021.05 368.871 1023.41C362.509 1028.11 356.576 1032.97 351.141 1037.86C355.15 1030.48 349.858 1018.95 346.276 1022.51C342.694 1026.08 345.456 1035.93 350.802 1038.16C345.955 1042.54 341.429 1046.93 337.349 1051.17C336.476 1052.08 335.674 1052.95 334.818 1053.88C338.578 1046.5 333.375 1035.25 329.829 1038.78C326.283 1042.31 329.009 1052.15 334.337 1054.41C329.099 1060.04 324.323 1065.64 320.082 1071.02C322.808 1063.68 317.944 1053.73 314.576 1057.08C311.208 1060.43 313.685 1070.13 318.853 1072.57C314.024 1078.7 309.818 1084.49 306.254 1089.71C308.767 1082.4 303.991 1072.71 300.659 1076.02C297.327 1079.34 299.804 1089.18 305.007 1091.56C300.155 1098.59 295.688 1105.87 291.625 1113.37L292.462 1113.78C296.682 1105.9 301.34 1098.25 306.415 1090.89C309.319 1095.7 318.567 1097.75 321.864 1094.11C325.161 1090.48 314.736 1086.11 307.448 1089.35C310.852 1084.42 314.825 1078.96 319.316 1073.32C322.203 1078.13 331.362 1080.27 334.694 1076.7C338.026 1073.14 327.922 1068.74 320.688 1071.61C324.947 1066.26 329.597 1060.74 334.943 1055.14C337.491 1060.24 346.989 1062.73 350.464 1059.13C353.938 1055.53 343.336 1050.79 335.977 1054.02L337.99 1051.86C342.089 1047.6 346.633 1043.18 351.533 1038.78C354.063 1043.88 363.489 1046.43 366.982 1042.88C370.474 1039.34 360.318 1034.68 353.012 1037.54C358.019 1033.08 363.4 1028.63 369.191 1024.39C369.191 1030.05 376.319 1036.63 381.006 1035.08C385.692 1033.53 378.261 1023.92 370.047 1023.74C375.88 1019.47 381.928 1015.51 388.169 1011.86C388.169 1017.49 395.296 1023.92 399.983 1022.41C404.669 1020.89 397.488 1011.59 389.47 1011.09C396.124 1007.19 403.015 1003.7 410.104 1000.65C410.104 1006 416.875 1012.14 421.33 1010.7C425.785 1009.26 419.245 1000.77 411.815 1000.01C417.933 997.487 424.192 995.322 430.56 993.522C430.792 997.55 435.746 1002 439.078 1000.94C442.41 999.866 438.009 994.111 432.806 992.934C438.4 991.451 444.068 990.261 449.787 989.371C449.787 993.148 454.527 997.461 457.645 996.498C460.496 995.59 456.701 990.262 451.908 989.157C455.875 988.61 459.92 988.212 464.042 987.963C464.185 991.794 469.388 995.875 472.542 994.556C475.215 993.398 471.241 988.676 466.537 987.803Z" fill="#DFEAFD"/>
<path d="M547.86 1072.71C548.858 1073.24 549.874 1073.69 550.872 1074.24L551.406 1073.28C549.624 1072.34 547.967 1071.5 546.239 1070.64C552.262 1071.89 559.425 1066.87 556.396 1064.67C553.366 1062.48 546.096 1065.64 544.92 1070.02C540.163 1067.61 535.387 1065.4 530.665 1063.48C536.011 1059.92 537.044 1050.35 533.249 1051.33C529.453 1052.31 527.618 1059.29 529.774 1063.11C522.833 1060.35 515.734 1058.01 508.516 1056.1C514.325 1052.24 515.323 1041.85 511.224 1042.97C507.126 1044.09 505.095 1051.68 507.482 1055.8C499.578 1053.74 491.557 1052.15 483.462 1051.04C491.712 1046.32 493.227 1031.9 487.685 1033.33C482.144 1034.76 479.293 1045.8 483.177 1051.01C473.726 1049.75 464.202 1049.1 454.667 1049.08C462.988 1043.88 464.449 1029.23 458.712 1030.71C452.974 1032.19 449.98 1043.54 453.847 1049.08C445.277 1049.08 436.712 1049.52 428.187 1050.4C436.42 1045.16 437.845 1030.62 432.143 1032.08C426.441 1033.54 423.394 1044.95 427.296 1050.47C418.013 1051.43 409.085 1052.84 400.568 1054.55C409.032 1049.46 410.564 1034.58 404.791 1036.07C399.018 1037.57 395.881 1049.21 400.051 1054.66C392.496 1056.21 385.279 1057.96 378.668 1059.84C377.26 1060.24 375.888 1060.66 374.481 1061.09C382.713 1055.84 384.156 1041.3 378.437 1042.77C372.717 1044.25 369.67 1055.89 373.643 1061.23C364.965 1063.84 356.769 1066.58 349.195 1069.56C356.323 1063.73 357.339 1050.72 351.922 1052.11C346.202 1053.59 343.226 1064.83 347.004 1070.39C338.451 1073.73 330.699 1077.11 323.981 1080.28C330.895 1074.37 331.822 1061.66 326.476 1063.05C320.721 1064.53 317.727 1075.88 321.611 1081.42C312.542 1085.69 303.714 1090.45 295.168 1095.68L295.756 1096.61C304.748 1091.1 314.047 1086.12 323.607 1081.67C323.696 1088.3 331.857 1095.93 337.364 1094.15C342.87 1092.36 334.851 1081.67 325.585 1080.71C331.982 1077.72 339.27 1074.56 347.271 1071.43C347.271 1078.04 355.325 1085.68 360.849 1084.06C366.373 1082.44 358.729 1071.93 349.659 1070.52C357.178 1067.65 365.304 1064.85 373.91 1062.27C373.447 1068.97 381.626 1077.18 387.293 1075.6C392.959 1074.01 384.994 1062.86 375.639 1061.75L378.971 1060.77C385.689 1058.88 392.941 1057.12 400.532 1055.57C400.069 1062.25 408.123 1070.48 413.79 1068.95C419.456 1067.42 411.919 1056.66 402.831 1055.11C410.582 1053.59 418.672 1052.31 427.118 1051.42C423.679 1057.14 427.011 1068.1 432.731 1069.36C438.451 1070.63 436.598 1056.39 428.366 1051.29C436.839 1050.45 445.349 1050.03 453.865 1050.04C450.586 1055.84 453.865 1066.58 459.567 1067.86C465.269 1069.15 463.505 1055.39 455.647 1050.04C464.741 1050.12 473.822 1050.76 482.839 1051.95C479.702 1057.44 482.839 1067.67 488.184 1068.86C493.53 1070.06 491.998 1057.55 484.923 1052.29C492.635 1053.4 500.274 1054.96 507.803 1056.96C505.647 1061.18 508.017 1068.67 512.026 1069.56C515.768 1070.38 515.038 1062 510.44 1057.69C517.009 1059.53 523.475 1061.72 529.81 1064.25C527.564 1068.08 529.81 1075.29 533.569 1076.13C537.009 1076.9 536.349 1069.22 532.144 1065.24C536.492 1067.06 540.834 1069.08 545.17 1071.28C543.014 1075.24 545.936 1082.53 549.856 1083.05C553.295 1083.58 552.101 1076.4 547.86 1072.71Z" fill="#DFEAFD"/>
<path opacity="0.37" d="M602.546 83C589.663 118.46 576.584 155.239 579.382 192.855C582.179 230.471 605.29 269.37 641.944 278.065C670.134 284.748 699.482 272.613 723.663 256.683C747.843 240.752 769.547 220.67 795.812 208.429C822.077 196.187 855.577 193.371 878.261 211.404C900.945 229.437 905.702 261.921 907.93 291.002C910.157 320.083 913.079 352.193 934.213 372.311C951.141 388.437 976.123 392.838 999.502 392.553C1022.88 392.268 1046.24 388.045 1069.53 390.094C1092.82 392.143 1117.21 402.015 1128.6 422.436" stroke="#439CED" stroke-miterlimit="10" stroke-linecap="round" stroke-dasharray="4 4"/>
<path opacity="0.37" d="M794.615 232.679L797.003 231.557L801.635 210.494C814.43 204.08 814.216 201.585 814.216 201.585C814.216 201.585 812.434 199.803 799.337 205.523L780.253 195.455L777.865 196.578L793.189 208.392C788.824 210.922 781.696 215.733 781.696 215.733C781.696 215.733 775.228 211.777 771.592 212.169L770.238 212.811L778.079 217.925L775.352 219.707L778.542 218.834L777.384 228.117L778.738 227.476C781.393 224.981 782.551 217.479 782.551 217.479C782.551 217.479 790.837 215.11 795.524 213.31L794.615 232.679Z" fill="#439CED"/>
<path opacity="0.37" d="M1348.29 1130.58C1300.65 1093.85 1261.44 1042.3 1252.73 982.794C1244.02 923.287 1271.9 856.536 1326.9 831.994C1369.94 812.76 1420.91 821.588 1463.7 841.385C1506.49 861.182 1543.79 890.985 1583.91 915.61C1624.03 940.236 1669.67 960.356 1716.7 957.164C1761.7 954.093 1803.12 929.738 1835.31 898.132C1867.51 866.526 1891.71 827.904 1915.62 789.66C1940.41 750.012 1965.49 709.704 1977.97 664.643C1990.46 619.581 1988.83 568.397 1962.67 529.631C1940.1 496.199 1902.61 476.075 1875.59 446.034C1826 390.845 1819.63 301.463 1860.84 239.776C1902.05 178.088 1987.12 149.791 2057.07 174.556" stroke="#439CED" stroke-miterlimit="10" stroke-linecap="round" stroke-dasharray="4 4"/>
<path opacity="0.37" d="M1397.69 854.48L1401.64 855.522L1427.89 835.079C1449.44 840.075 1451.6 836.985 1451.6 836.985C1451.6 836.985 1451.25 833.242 1430.04 826.98L1417.31 796.203L1413.37 795.161L1419.89 824.298C1412.29 822.833 1399.03 821.472 1399.03 821.472C1399.03 821.472 1395.25 810.408 1390.46 807.274L1388.24 806.699L1392.51 820.505L1387.42 820.026L1392.04 822.168L1381.41 832.003L1383.63 832.578C1389.28 832.168 1398 824.48 1398 824.48C1398 824.48 1410.19 829.835 1417.52 832.329L1397.69 854.48Z" fill="#439CED"/>
</svg>
