<svg width="18" height="19" viewBox="0 0 18 19" fill="none" xmlns="http://www.w3.org/2000/svg"><path d="M16.5 5.00009V6.81509C16.5 8.00011 15.75 8.75011 14.565 8.75011H12V3.50759C12 2.67509 12.6825 1.99259 13.515 2.00009C14.3325 2.00759 15.0825 2.33759 15.6225 2.87759C16.1625 3.42509 16.5 4.17509 16.5 5.00009Z" fill="#2F3268"></path><path opacity="0.4" d="M1.5 5.75003V16.25C1.5 16.8725 2.205 17.225 2.7 16.85L3.9825 15.89C4.2825 15.665 4.7025 15.695 4.9725 15.965L6.2175 17.2175C6.51 17.51 6.99 17.51 7.2825 17.2175L8.5425 15.9575C8.805 15.695 9.225 15.665 9.5175 15.89L10.8 16.85C11.295 17.2175 12 16.865 12 16.25V3.50003C12 2.67503 12.675 2.00003 13.5 2.00003H5.25H4.5C2.25 2.00003 1.5 3.34253 1.5 5.00003V5.75003Z" fill="#2F3268"></path><path d="M9 9.69534H6.75C6.4425 9.69534 6.1875 9.95034 6.1875 10.2578C6.1875 10.5653 6.4425 10.8203 6.75 10.8203H9C9.3075 10.8203 9.5625 10.5653 9.5625 10.2578C9.5625 9.95034 9.3075 9.69534 9 9.69534Z" fill="#2F3268"></path><path d="M6.75 7.82034H9C9.3075 7.82034 9.5625 7.56534 9.5625 7.25784C9.5625 6.95034 9.3075 6.69534 9 6.69534H6.75C6.4425 6.69534 6.1875 6.95034 6.1875 7.25784C6.1875 7.56534 6.4425 7.82034 6.75 7.82034Z" fill="#2F3268"></path><path d="M4.47656 6.50784C4.05656 6.50784 3.72656 6.84534 3.72656 7.25784C3.72656 7.67034 4.06406 8.00783 4.47656 8.00783C4.88906 8.00783 5.22656 7.67034 5.22656 7.25784C5.22656 6.84534 4.88906 6.50784 4.47656 6.50784Z" fill="#2F3268"></path><path d="M4.47656 9.50784C4.05656 9.50784 3.72656 9.84534 3.72656 10.2578C3.72656 10.6703 4.06406 11.0078 4.47656 11.0078C4.88906 11.0078 5.22656 10.6703 5.22656 10.2578C5.22656 9.84534 4.88906 9.50784 4.47656 9.50784Z" fill="#2F3268"></path></svg>