<svg width="18" height="19" viewBox="0 0 18 19" fill="none" xmlns="http://www.w3.org/2000/svg"><g id="vuesax/bulk/warning-2"><g id="vuesax/bulk/warning-2_2"><g id="warning-2"><path id="Vector" opacity="0.4" d="M15.8092 6.93509V12.0651C15.8092 12.9051 15.3592 13.6851 14.6317 14.1126L10.1767 16.6851C9.44917 17.1051 8.54915 17.1051 7.81415 16.6851L3.35915 14.1126C2.63165 13.6926 2.18164 12.9126 2.18164 12.0651V6.93509C2.18164 6.09509 2.63165 5.31506 3.35915 4.88756L7.81415 2.31506C8.54165 1.89506 9.44167 1.89506 10.1767 2.31506L14.6317 4.88756C15.3592 5.31506 15.8092 6.08759 15.8092 6.93509Z" fill="#2F3268"></path><g id="Group"><path id="Vector_2" d="M9 10.8126C8.6925 10.8126 8.4375 10.5576 8.4375 10.2501V6.31256C8.4375 6.00506 8.6925 5.75006 9 5.75006C9.3075 5.75006 9.5625 6.00506 9.5625 6.31256V10.2501C9.5625 10.5576 9.3075 10.8126 9 10.8126Z" fill="#2F3268"></path></g><g id="Group_2"><path id="Vector_3" d="M9 13.4367C8.9025 13.4367 8.805 13.4142 8.715 13.3767C8.6175 13.3392 8.54248 13.2867 8.46748 13.2192C8.39998 13.1442 8.34751 13.0617 8.30251 12.9717C8.26501 12.8817 8.25 12.7842 8.25 12.6867C8.25 12.4917 8.32498 12.2967 8.46748 12.1542C8.54248 12.0867 8.6175 12.0342 8.715 11.9967C8.9925 11.8767 9.32252 11.9442 9.53252 12.1542C9.60002 12.2292 9.65249 12.3042 9.68999 12.4017C9.72749 12.4917 9.75 12.5892 9.75 12.6867C9.75 12.7842 9.72749 12.8817 9.68999 12.9717C9.65249 13.0617 9.60002 13.1442 9.53252 13.2192C9.39002 13.3617 9.2025 13.4367 9 13.4367Z" fill="#2F3268"></path></g></g></g></g></svg>