<svg width="137" height="137" viewBox="0 0 137 137" fill="none" xmlns="http://www.w3.org/2000/svg">
<g clip-path="url(#clip0_7049_47946)">
<path d="M87.727 32.3629C82.5121 33.8709 77.5395 36.1349 72.3212 37.6307C62.1012 40.5604 51.2929 40.4577 40.7524 41.8474C30.212 43.2371 19.2535 46.5173 12.2433 54.5104C3.13389 64.8969 3.22858 81.3285 10.2053 93.2527C17.182 105.177 29.8094 112.946 43.0418 116.916C53.9804 120.198 65.7149 121.177 76.8961 118.852C88.0772 116.527 98.6622 110.78 106.047 102.068C111.207 95.9808 114.693 88.6573 117.581 81.218C121.266 71.7246 124.101 61.4476 122.268 51.4304C119.093 34.0792 103.55 27.7875 87.727 32.3629Z" fill="#A6F4C5"/>
<path d="M11.0612 27.6791C12.3604 27.6791 13.4135 26.626 13.4135 25.3269C13.4135 24.0278 12.3604 22.9746 11.0612 22.9746C9.76213 22.9746 8.70898 24.0278 8.70898 25.3269C8.70898 26.626 9.76213 27.6791 11.0612 27.6791Z" fill="#02BEFF"/>
<path d="M127.127 98.1179C127.127 96.818 128.179 95.7656 129.479 95.7656C130.779 95.7656 131.831 96.818 131.831 98.1179C131.831 99.4177 130.779 100.47 129.479 100.47C128.179 100.47 127.127 99.4177 127.127 98.1179Z" fill="#06D506"/>
<path d="M112.313 9.05146C112.313 7.75159 113.366 6.69922 114.666 6.69922C115.965 6.69922 117.018 7.75159 117.018 9.05146C117.018 10.3513 115.965 11.4037 114.666 11.4037C113.366 11.4037 112.313 10.3513 112.313 9.05146ZM87.6697 63.8775C86.8839 65.2349 85.455 65.9849 83.9905 65.9849C83.2762 65.9849 82.5439 65.8064 81.8831 65.4134L75.4715 61.7165V69.1104C75.4715 71.45 73.5784 73.3609 71.2388 73.3609C70.06 73.3609 69.0064 72.8787 68.2384 72.1108C67.4704 71.3428 66.9882 70.2713 66.9882 69.1104V61.7165L60.5945 65.4134C58.5585 66.5922 55.9689 65.8957 54.808 63.8775C54.415 63.1989 54.2365 62.4667 54.2365 61.7522C54.2365 60.2877 55.0044 58.8589 56.3618 58.0731L62.7734 54.3762L56.3618 50.6792C54.3257 49.5184 53.6292 46.9288 54.808 44.8927C55.5938 43.5354 57.0047 42.7674 58.4692 42.7674C59.1836 42.7674 59.9158 42.9638 60.5945 43.3389L66.9882 47.0359V39.642C66.9882 37.3024 68.8992 35.4093 71.2388 35.4093C72.4175 35.4093 73.4713 35.8737 74.2392 36.6416C74.9893 37.4096 75.4715 38.4812 75.4715 39.642V47.0359L81.8831 43.339C83.9012 42.1781 86.4909 42.8567 87.6697 44.8928C88.0447 45.5714 88.2411 46.3036 88.2411 47.0181C88.2411 48.4826 87.4732 49.8934 86.1158 50.6793L79.7043 54.3762L86.1158 58.0732C88.1518 59.2519 88.8305 61.8415 87.6697 63.8775Z" fill="#12B76A"/>
<path d="M95.8745 10.1777H54.5189C52.6934 10.1777 50.8871 10.4147 49.1838 10.8732C45.6203 11.7243 42.2926 13.5222 39.5586 16.0742L26.0204 28.7793C23.3211 31.3505 21.3101 34.6195 20.2017 38.2333C19.5804 40.2766 19.2656 42.4169 19.2656 44.5954V108.408C19.2656 120.48 29.0859 130.3 41.1578 130.3H95.8745C107.946 130.3 117.767 120.48 117.767 108.408V32.0687C117.767 19.9981 107.946 10.1777 95.8745 10.1777ZM27.7046 30.5605L41.2344 17.865C43.2565 15.977 45.6557 14.5886 48.2429 13.7273V30.6466C48.2429 34.3502 45.2288 37.3643 41.5253 37.3643H23.1448C24.1829 34.7901 25.7199 32.4516 27.7046 30.5605ZM115.315 108.408C115.315 119.127 106.594 127.849 95.8745 127.849H41.1578C30.4385 127.849 21.7171 119.127 21.7171 108.408V44.5955C21.7171 42.9611 21.9598 41.3658 22.3527 39.8158H41.5253C46.5814 39.8158 50.6944 35.7029 50.6944 30.6467V13.0688C51.9453 12.8008 53.2216 12.6292 54.5188 12.6292H95.8744C106.594 12.6292 115.315 21.3494 115.315 32.0687L115.315 108.408Z" fill="#20421D"/>
<path d="M99.7085 82.5521H37.3249C36.3099 82.5521 35.4863 83.3756 35.4863 84.3907C35.4863 85.4058 36.3099 86.2293 37.3249 86.2293H99.7085C100.724 86.2293 101.547 85.4058 101.547 84.3907C101.547 83.3756 100.724 82.5521 99.7085 82.5521ZM99.7085 96.2794H37.3249C36.3099 96.2794 35.4863 97.103 35.4863 98.118C35.4863 99.1331 36.3099 99.9566 37.3249 99.9566H99.7085C100.724 99.9566 101.547 99.1331 101.547 98.118C101.547 97.103 100.724 96.2794 99.7085 96.2794ZM99.7085 110.008H37.3249C36.3099 110.008 35.4863 110.832 35.4863 111.847C35.4863 112.862 36.3099 113.685 37.3249 113.685H99.7085C100.724 113.685 101.547 112.862 101.547 111.847C101.547 110.832 100.724 110.008 99.7085 110.008ZM52.3977 61.7516C52.3977 62.8193 52.6802 63.8727 53.2141 64.7944C54.0197 66.1961 55.3256 67.1992 56.8913 67.6182C58.4642 68.0419 60.1065 67.8216 61.5154 67.0053L65.1495 64.9033V69.1108C65.1495 70.7064 65.8007 72.2745 66.9378 73.4105C68.0918 74.5644 69.6191 75.2 71.2387 75.2C74.5867 75.2 77.3099 72.4685 77.3099 69.1108V64.8997L80.9429 66.9933C81.8562 67.5368 82.9096 67.8228 83.9905 67.8228C86.1607 67.8228 88.18 66.6641 89.2609 64.7992C89.2609 64.7992 89.2657 64.792 89.2681 64.7872C90.9248 61.8797 89.9229 58.1534 87.0333 56.4799L83.3848 54.3756L87.0369 52.2701C88.9138 51.1832 90.0797 49.1698 90.0797 47.0176C90.0797 45.9941 89.8032 44.9527 89.2609 43.9712C87.5863 41.0768 83.8636 40.0809 80.9644 41.7459L77.3099 43.8527V39.6416C77.3099 38.0603 76.6708 36.4994 75.5396 35.3419C74.3976 34.1999 72.8702 33.5703 71.2387 33.5703C67.8811 33.5703 65.1495 36.2935 65.1495 39.6416V43.8491L61.4854 41.7303C58.5492 40.1084 54.8241 41.2001 53.2153 43.9724C52.3977 45.386 52.181 47.0295 52.606 48.6C53.0297 50.1657 54.04 51.4717 55.4441 52.2724L59.0926 54.3756L55.4417 56.4811C53.5636 57.568 52.3977 59.5874 52.3977 61.7516ZM57.2804 59.6664L63.6916 55.9688C64.2613 55.6396 64.6121 55.0328 64.6121 54.3756C64.6121 53.7184 64.2614 53.1116 63.6916 52.7824L57.2732 49.0824C56.719 48.7664 56.3216 48.254 56.1564 47.64C55.9888 47.0223 56.075 46.3735 56.3982 45.8145C57.0434 44.7013 58.5037 44.286 59.6744 44.9312L66.0677 48.6275C66.6374 48.9555 67.3377 48.9555 67.9075 48.6275C68.476 48.2996 68.8268 47.6927 68.8268 47.0355V39.6416C68.8268 38.3213 69.9088 37.2475 71.2387 37.2475C71.8875 37.2475 72.492 37.4941 72.9241 37.9262C73.3742 38.3871 73.6327 39.0131 73.6327 39.6416V47.0355C73.6327 47.6927 73.9835 48.2995 74.552 48.6275C75.1194 48.9555 75.8221 48.9567 76.3894 48.6287L82.7994 44.9323C83.945 44.2728 85.4173 44.6702 86.0601 45.781C86.2839 46.1868 86.4024 46.6141 86.4024 47.0175C86.4024 47.8758 85.95 48.6502 85.197 49.086L78.7858 52.7823C78.2161 53.1115 77.8653 53.7184 77.8653 54.3756C77.8653 55.0327 78.216 55.6396 78.7858 55.9688L85.1934 59.664C86.3366 60.3259 86.7316 61.803 86.0756 62.9606C85.4424 64.0487 83.9174 64.4832 82.8006 63.82L76.3894 60.1237C75.822 59.7957 75.1194 59.7969 74.552 60.1248C73.9834 60.4528 73.6327 61.0597 73.6327 61.7169V69.1108C73.6327 70.4407 72.559 71.5228 71.2387 71.5228C70.6019 71.5228 69.9974 71.2702 69.5377 70.8106C69.0865 70.3581 68.8267 69.7392 68.8267 69.1108V61.7169C68.8267 61.0597 68.476 60.4528 67.9074 60.1248C67.6225 59.9609 67.3053 59.8783 66.9881 59.8783C66.6709 59.8783 66.3525 59.9609 66.0676 60.1248L59.6732 63.8224C59.113 64.1456 58.463 64.2306 57.8429 64.0666C57.2289 63.9026 56.7165 63.5088 56.3993 62.957C56.1839 62.5859 56.0749 62.1801 56.0749 61.7516C56.075 60.8957 56.5382 60.0961 57.2804 59.6664Z" fill="#20421D"/>
</g>
<defs>
<clipPath id="clip0_7049_47946">
<rect width="137" height="137" fill="white"/>
</clipPath>
</defs>
</svg>
