<svg width="19" height="19" viewBox="0 0 19 19" fill="none" xmlns="http://www.w3.org/2000/svg"><g id="Iconly/Sharp/Bulk/Call"><g id="Group 36910"><path id="Fill 457" d="M6.74931 8.15069C6.86706 8.52194 7.26906 9.58469 8.23131 10.5469L5.10306 12.7054C2.96631 10.2484 1.78956 7.21544 2.17506 5.15819L2.21856 5.03894C2.90031 3.86594 3.77181 2.99594 4.95831 2.29994L5.25081 2.12744L8.02356 5.93744L6.74931 8.15069Z" fill="#2F3268"></path><path id="Fill 585" opacity="0.4" d="M10.7683 12.1595L12.977 10.8882L16.898 13.7795L16.7368 14.0682C16.064 15.2697 15.191 16.1427 13.9895 16.8162L13.9123 16.8597L13.823 16.8635C13.688 16.8702 13.553 16.8725 13.418 16.8725C10.43 16.8725 7.42177 15.371 5.10352 12.7055L8.23177 10.547C9.25702 11.5722 10.3783 12.0245 10.7683 12.1595Z" fill="#2F3268"></path></g></g></svg>