<svg width="32" height="32" viewBox="0 0 32 32" fill="none" xmlns="http://www.w3.org/2000/svg">
<path d="M21.9999 2.99999C21.997 2.765 21.9389 2.53396 21.8303 2.32552C21.7218 2.11708 21.5658 1.93707 21.3749 1.79999C21.1797 1.65657 20.9526 1.56255 20.7132 1.52598C20.4737 1.48941 20.229 1.51138 19.9999 1.58999L10.2349 4.99999H21.9999V2.99999ZM16.4999 19.75C16.7399 19.75 17.4049 18.55 17.4999 16.25H15.4999C15.5949 18.55 16.2599 19.75 16.4999 19.75ZM16.4999 11.75C16.2599 11.75 15.5949 12.95 15.4999 15.25H17.4999C17.4049 12.95 16.7399 11.75 16.4999 11.75ZM15.1199 19.5C14.7266 18.4607 14.5168 17.3611 14.4999 16.25H12.5349C12.627 16.9764 12.9167 17.6636 13.3726 18.2367C13.8284 18.8098 14.4328 19.2468 15.1199 19.5ZM15.1199 12C14.4328 12.2532 13.8284 12.6902 13.3726 13.2633C12.9167 13.8363 12.627 14.5236 12.5349 15.25H14.4999C14.5168 14.1389 14.7266 13.0393 15.1199 12Z" fill="#BFBFD0"/>
<path d="M20.4649 15.25C20.3728 14.5236 20.083 13.8363 19.6272 13.2633C19.1714 12.6902 18.567 12.2532 17.8799 12C18.2732 13.0393 18.483 14.1389 18.4999 15.25H20.4649ZM20.4649 16.25H18.4999C18.483 17.3611 18.2732 18.4607 17.8799 19.5C18.567 19.2468 19.1714 18.8098 19.6272 18.2367C20.083 17.6637 20.3728 16.9764 20.4649 16.25Z" fill="#BFBFD0"/>
<path fill-rule="evenodd" clip-rule="evenodd" d="M7 29.5V7.5C7 7.10218 7.15804 6.72064 7.43934 6.43934C7.72064 6.15804 8.10217 6 8.5 6H24.5C24.8978 6 25.2794 6.15804 25.5607 6.43934C25.842 6.72064 26 7.10218 26 7.5V29.5C26 29.8978 25.842 30.2794 25.5607 30.5607C25.2794 30.842 24.8978 31 24.5 31H8.5C8.10217 31 7.72064 30.842 7.43934 30.5607C7.15804 30.2794 7 29.8978 7 29.5ZM19.2779 11.5927C18.4556 11.0432 17.4889 10.75 16.5 10.75C15.1739 10.75 13.9021 11.2768 12.9645 12.2145C12.0268 13.1521 11.5 14.4239 11.5 15.75C11.5 16.7389 11.7932 17.7056 12.3427 18.5279C12.8921 19.3501 13.673 19.991 14.5866 20.3694C15.5002 20.7478 16.5055 20.8469 17.4755 20.6539C18.4454 20.461 19.3363 19.9848 20.0355 19.2855C20.7348 18.5863 21.211 17.6954 21.4039 16.7255C21.5969 15.7555 21.4978 14.7502 21.1194 13.8366C20.741 12.923 20.1001 12.1421 19.2779 11.5927ZM25.2999 26.7833H23.7861V24.0947H25.2999V24.4412H24.1928V25.2093H25.2321V25.552H24.1928V26.4331H25.2999V26.7833ZM21.6899 26.7833H23.2037V26.4331H22.0966V25.552H23.1359V25.2093H22.0966V24.4412H23.2037V24.0947H21.6899V26.7833ZM20.0598 24.0947C20.2907 24.0947 20.4802 24.1236 20.6283 24.1813C20.7765 24.2391 20.8869 24.3257 20.9597 24.4412C21.0325 24.5541 21.0689 24.6972 21.0689 24.8704C21.0689 25.0085 21.0426 25.1252 20.9898 25.2206C20.9396 25.3135 20.8744 25.3901 20.794 25.4503C20.7137 25.5081 20.6296 25.5545 20.5417 25.5897L21.2949 26.7833H20.8279L20.1802 25.6951H19.7133V26.7833H19.3066V24.0947H20.0598ZM20.0334 24.4412H19.7133V25.3562H20.0522C20.1903 25.3562 20.3033 25.3386 20.3911 25.3035C20.4815 25.2683 20.5468 25.2156 20.5869 25.1453C20.6296 25.075 20.6509 24.9884 20.6509 24.8855C20.6509 24.7775 20.6283 24.6922 20.5832 24.6294C20.5405 24.5642 20.4727 24.5165 20.3798 24.4863C20.2894 24.4562 20.174 24.4412 20.0334 24.4412ZM17.3174 26.7833H17.7203V25.665H18.7596V25.3185H17.7203V24.4412H18.8311V24.0947H17.3174V26.7833ZM15.5515 26.7828L15.2653 26.0071H14.2261L13.9399 26.7828H13.5181L14.5386 24.0829H14.9603L15.977 26.7828H15.5515ZM14.8813 24.8963C14.8737 24.8687 14.8599 24.8272 14.8398 24.772L14.7871 24.5988C14.7695 24.5386 14.7557 24.4896 14.7457 24.4519C14.7331 24.5022 14.7181 24.5574 14.7005 24.6176C14.6855 24.6754 14.6704 24.7293 14.6553 24.7795C14.6403 24.8272 14.6277 24.8662 14.6177 24.8963L14.3466 25.6532H15.1524L14.8813 24.8963ZM13.2328 26.4676C13.3106 26.3546 13.3496 26.2178 13.3496 26.0571C13.3496 25.9165 13.3219 25.7998 13.2667 25.7069C13.2115 25.6115 13.1299 25.5299 13.022 25.4622C12.9165 25.3944 12.7885 25.3316 12.6379 25.2739C12.5023 25.2187 12.3931 25.1685 12.3103 25.1233C12.2274 25.0756 12.1672 25.0241 12.1295 24.9689C12.0919 24.9137 12.073 24.8446 12.073 24.7618C12.073 24.6915 12.0894 24.63 12.122 24.5773C12.1571 24.5245 12.2086 24.4831 12.2764 24.453C12.3442 24.4229 12.4283 24.4078 12.5287 24.4078C12.6441 24.4078 12.7546 24.4216 12.86 24.4492C12.9655 24.4768 13.0697 24.512 13.1726 24.5547L13.3006 24.2195C13.1876 24.1693 13.0684 24.1304 12.9429 24.1028C12.8199 24.0727 12.6856 24.0576 12.54 24.0576C12.3667 24.0576 12.2149 24.0865 12.0843 24.1442C11.9538 24.1995 11.8509 24.2798 11.7756 24.3852C11.7028 24.4907 11.6664 24.6174 11.6664 24.7655C11.6664 24.876 11.6827 24.9726 11.7153 25.0555C11.7479 25.1383 11.7944 25.2111 11.8546 25.2739C11.9174 25.3366 11.9889 25.3919 12.0693 25.4396C12.1521 25.4848 12.2437 25.5262 12.3442 25.5638C12.4898 25.6191 12.6052 25.6718 12.6906 25.722C12.7785 25.7697 12.8425 25.8224 12.8826 25.8801C12.9253 25.9354 12.9466 26.0044 12.9466 26.0872C12.9466 26.1651 12.9266 26.2329 12.8864 26.2906C12.8462 26.3483 12.786 26.3935 12.7056 26.4261C12.6253 26.4588 12.5249 26.4751 12.4044 26.4751C12.2638 26.4751 12.1258 26.4575 11.9902 26.4224C11.8546 26.3847 11.7366 26.3433 11.6362 26.2981V26.6822C11.6965 26.7123 11.7655 26.7374 11.8433 26.7575C11.9212 26.7776 12.0053 26.7927 12.0956 26.8027C12.186 26.8153 12.2801 26.8215 12.378 26.8215C12.5789 26.8215 12.7521 26.7914 12.8977 26.7312C13.0433 26.6684 13.155 26.5805 13.2328 26.4676ZM11.3023 26.7833H10.2593V26.5499L10.5793 26.4557V24.4261L10.2593 24.3282V24.0947H11.3023V24.3282L10.986 24.4261V26.4557L11.3023 26.5499V26.7833ZM9.1667 26.7833L10.1156 24.0947H9.69388L9.11775 25.7779C9.09766 25.8382 9.07633 25.9034 9.05373 25.9737C9.03365 26.044 9.01482 26.1131 8.99725 26.1808C8.98219 26.2486 8.96838 26.3126 8.95583 26.3729C8.94579 26.3126 8.93198 26.2486 8.91441 26.1808C8.89684 26.1131 8.87801 26.0453 8.85793 25.9775C8.83784 25.9072 8.8165 25.8419 8.79391 25.7817L8.21778 24.0947H7.7998L8.74496 26.7833H9.1667Z" fill="#BFBFD0"/>
</svg>
